{
.appVersion = "3308";
.formatVersion = 3;
axes = (
{
name = Weight;
tag = wght;
}
);
classes = (
{
automatic = 1;

glyphs = (
{
glyphname = A;
kernLeft = A;
kernRight = A;
layers = (
{
layerId = UUID0;
shapes = (
{
closed = 1;
nodes = (
(637,-5,o),
(651,-3,o),
(662,0,c),
(662,20,l),
(606,25,o),
(584,50,o),
(552,125,c),
(332,660,l),
(302,660,l),
(22,0,l),
(67,0,l),
(147,190,l),
(427,190,l),
(452,125,ls),
(495,9,o),
(577,-5,o),
(622,-5,cs)
);
},
{
closed = 1;
nodes = (
(287,520,l),
(407,230,l),
(162,230,l)
);
}
);
width = 635;
},
{
layerId = "C3EC177B-A859-46F4-B872-3D98CC06F87A";
shapes = (
{
closed = 1;
nodes = (
(643,-4,o),
(665,-2,o),
(676,1,c),
(676,26,l),
(631,31,o),
(596,67,o),
(572,126,cs),
(348,660,l),
(303,660,l),
(8,0,l),
(60,0,l),
(142,182,l),
(408,182,l),
(431,126,ls),
(479,12,o),
(562,-4,o),
(628,-4,cs)
);
},
{
closed = 1;
nodes = (
(279,488,l),
(389,227,l),
(163,227,l)
);
}
);
width = 647;
}
);
unicode = 65;
},
{
glyphname = Aring;
kernLeft = A;
kernRight = A;
layers = (
{
layerId = UUID0;
shapes = (
{
closed = 1;
nodes = (
(637,-5,o),
(651,-3,o),
(662,0,c),
(662,20,l),
(606,25,o),
(584,50,o),
(552,125,c),
(347,625,l),
(372,636,o),
(402,660,o),
(402,705,cs),
(402,750,o),
(362,790,o),
(317,790,cs),
(272,790,o),
(232,750,o),
(232,705,cs),
(232,660,o),
(262,636,o),
(287,625,c),
(22,0,l),
(67,0,l),
(147,190,l),
(427,190,l),
(452,125,ls),
(495,9,o),
(577,-5,o),
(622,-5,cs)
);
},
{
closed = 1;
nodes = (
(287,520,l),
(407,230,l),
(162,230,l)
);
},
{
closed = 1;
nodes = (
(282,671,o),
(272,685,o),
(272,705,cs),
(272,736,o),
(292,755,o),
(317,755,cs),
(342,755,o),
(362,736,o),
(362,705,cs),
(362,685,o),
(352,671,o),
(337,660,c),
(297,660,l)
);
}
);
width = 636;
},
{
layerId = "C3EC177B-A859-46F4-B872-3D98CC06F87A";
shapes = (
{
closed = 1;
nodes = (
(643,-4,o),
(665,-2,o),
(676,1,c),
(676,26,l),
(631,31,o),
(596,67,o),
(572,126,cs),
(365,619,l),
(389,630,o),
(420,661,o),
(420,705,cs),
(420,761,o),
(381,800,o),
(325,800,cs),
(269,800,o),
(230,761,o),
(230,705,cs),
(230,661,o),
(260,631,o),
(284,619,c),
(8,0,l),
(60,0,l),
(142,182,l),
(408,182,l),
(431,126,ls),
(479,12,o),
(562,-4,o),
(628,-4,cs)
);
},
{
closed = 1;
nodes = (
(279,488,l),
(389,227,l),
(163,227,l)
);
},
{
closed = 1;
nodes = (
(288,670,o),
(280,685,o),
(280,705,cs),
(280,736,o),
(300,755,o),
(325,755,cs),
(350,755,o),
(370,736,o),
(370,705,cs),
(370,685,o),
(363,670,o),
(348,660,c),
(303,660,l)
);
}
);
width = 647;
}
);
unicode = 197;
},
{
glyphname = AE;
kernRight = E;
layers = (
{
layerId = UUID0;
shapes = (
{
closed = 1;
nodes = (
(36,0,l),
(141,190,l),
(381,190,l),
(381,0,l),
(726,0,ls),
(766,0,o),
(790,19,o),
(801,50,cs),
(836,145,l),
(816,150,l),
(785,70,o),
(737,40,o),
(646,40,cs),
(471,40,l),
(471,320,l),
(741,320,l),
(741,360,l),
(471,360,l),
(471,620,l),
(657,620,ls),
(737,620,o),
(782,585,o),
(782,505,c),
(802,505,l),
(802,580,ls),
(802,620,o),
(786,660,o),
(717,660,cs),
(356,660,l),
(-14,0,l)
);
},
{
closed = 1;
nodes = (
(381,615,l),
(381,230,l),
(166,230,l)
);
}
);
width = 865;
},
{
layerId = "C3EC177B-A859-46F4-B872-3D98CC06F87A";
shapes = (
{
closed = 1;
nodes = (
(38,0,l),
(145,190,l),
(363,190,l),
(363,0,l),
(733,0,ls),
(788,0,o),
(805,27,o),
(820,70,cs),
(849,149,l),
(822,159,l),
(787,72,o),
(737,45,o),
(664,45,cs),
(493,45,l),
(493,320,l),
(753,320,l),
(753,365,l),
(493,365,l),
(493,615,l),
(654,615,ls),
(734,615,o),
(779,580,o),
(779,495,c),
(809,495,l),
(809,580,ls),
(809,620,o),
(793,660,o),
(724,660,cs),
(348,660,l),
(-22,0,l)
);
},
{
closed = 1;
nodes = (
(363,579,l),
(363,235,l),
(170,235,l)
);
}
);
width = 868;
}
);
unicode = 198;
},
{
glyphname = B;
kernLeft = B;
layers = (
{
layerId = UUID0;
shapes = (
{
closed = 1;
nodes = (
(306,0,ls),
(431,0,o),
(581,30,o),
(581,180,cs),
(581,261,o),
(546,319,o),
(416,340,c),
(507,371,o),
(546,425,o),
(546,485,cs),
(546,640,o),
(381,660,o),
(276,660,cs),
(16,660,l),
(16,640,l),
(36,640,ls),
(96,640,o),
(106,600,o),
(106,540,cs),
(106,0,l)
);
},
{
closed = 1;
nodes = (
(260,35,o),
(227,40,o),
(196,49,c),
(196,315,l),
(291,315,l),
(416,315,o),
(481,266,o),
(481,175,cs),
(481,84,o),
(412,35,o),
(291,35,cs)
);
},
{
closed = 1;
nodes = (
(196,615,l),
(216,620,o),
(246,625,o),
(271,625,cs),
(351,625,o),
(451,586,o),
(451,490,cs),
(451,400,o),
(370,355,o),
(291,355,cs),
(196,355,l)
);
}
);
width = 622;
},
{
layerId = "C3EC177B-A859-46F4-B872-3D98CC06F87A";
shapes = (
{
closed = 1;
nodes = (
(315,0,ls),
(457,0,o),
(610,30,o),
(610,183,cs),
(610,260,o),
(572,328,o),
(441,341,c),
(534,365,o),
(580,428,o),
(580,485,cs),
(580,643,o),
(410,660,o),
(285,660,cs),
(15,660,l),
(15,630,l),
(25,630,ls),
(85,630,o),
(95,590,o),
(95,530,cs),
(95,0,l)
);
},
{
closed = 1;
nodes = (
(275,40,o),
(258,42,o),
(245,45,cs),
(238,46,o),
(231,48,o),
(225,50,c),
(225,316,l),
(300,316,ls),
(413,316,o),
(470,270,o),
(470,178,cs),
(470,90,o),
(411,40,o),
(300,40,cs),
(295,40,l)
);
},
{
closed = 1;
nodes = (
(225,613,l),
(243,616,l),
(254,619,o),
(269,620,o),
(285,620,cs),
(362,620,o),
(440,589,o),
(440,490,cs),
(440,395,o),
(381,361,o),
(300,361,cs),
(225,361,l)
);
}
);
width = 644;
}
);
unicode = 66;
},
{
glyphname = C;
kernLeft = C;
kernRight = C;
layers = (
{
layerId = UUID0;
shapes = (
{
closed = 1;
nodes = (
(473,-20,o),
(565,20,o),
(629,145,c),
(609,160,l),
(553,69,o),
(484,20,o),
(384,20,cs),
(213,20,o),
(144,171,o),
(144,320,cs),
(144,559,o),
(253,640,o),
(384,640,cs),
(495,640,o),
(564,581,o),
(589,450,c),
(609,450,l),
(609,510,o),
(609,569,o),
(584,600,cs),
(548,644,o),
(465,680,o),
(354,680,cs),
(183,680,o),
(44,520,o),
(44,320,cs),
(44,131,o),
(164,-20,o),
(354,-20,cs)
);
}
);
width = 665;
},
{
layerId = "C3EC177B-A859-46F4-B872-3D98CC06F87A";
shapes = (
{
closed = 1;
nodes = (
(507,-20,o),
(592,30,o),
(655,141,c),
(620,168,l),
(572,75,o),
(489,25,o),
(397,25,cs),
(238,25,o),
(177,167,o),
(177,320,cs),
(177,563,o),
(274,635,o),
(397,635,cs),
(508,635,o),
(575,568,o),
(600,447,c),
(630,447,l),
(630,506,o),
(631,564,o),
(604,599,c),
(567,642,o),
(492,680,o),
(367,680,cs),
(178,680,o),
(37,522,o),
(37,320,cs),
(37,128,o),
(156,-20,o),
(367,-20,cs)
);
}
);
width = 679;
}
);
unicode = 67;
},
{
glyphname = Ccedilla;
kernLeft = C;
kernRight = C;
layers = (
{
layerId = UUID0;
shapes = (
{
closed = 1;
nodes = (
(384,-196,ls),
(429,-196,o),
(464,-170,o),
(464,-123,cs),
(464,-75,o),
(429,-50,o),
(384,-50,cs),
(374,-50,l),
(374,-20,l),
(484,-15,o),
(568,28,o),
(629,145,c),
(609,160,l),
(553,69,o),
(484,20,o),
(384,20,cs),
(213,20,o),
(144,171,o),
(144,320,cs),
(144,559,o),
(253,640,o),
(384,640,cs),
(495,640,o),
(564,581,o),
(589,450,c),
(609,450,l),
(609,510,o),
(609,569,o),
(584,600,cs),
(548,644,o),
(465,680,o),
(354,680,cs),
(183,680,o),
(44,520,o),
(44,320,cs),
(44,136,o),
(154,-9,o),
(329,-20,c),
(329,-90,l),
(374,-90,ls),
(401,-90,o),
(414,-101,o),
(414,-123,cs),
(414,-144,o),
(401,-155,o),
(374,-155,cs),
(324,-155,l),
(324,-196,l)
);
}
);
width = 665;
},
{
layerId = "C3EC177B-A859-46F4-B872-3D98CC06F87A";
shapes = (
{
closed = 1;
nodes = (
(387,-206,ls),
(443,-206,o),
(477,-175,o),
(477,-128,cs),
(477,-80,o),
(443,-50,o),
(387,-50,c),
(387,-19,l),
(515,-15,o),
(595,34,o),
(655,141,c),
(620,168,l),
(572,75,o),
(489,25,o),
(397,25,cs),
(238,25,o),
(177,167,o),
(177,320,cs),
(177,563,o),
(274,635,o),
(397,635,cs),
(508,635,o),
(575,568,o),
(600,447,c),
(630,447,l),
(630,506,o),
(631,564,o),
(604,599,c),
(567,642,o),
(492,680,o),
(367,680,cs),
(178,680,o),
(37,522,o),
(37,320,cs),
(37,142,o),
(141,2,o),
(322,-17,c),
(322,-95,l),
(367,-95,ls),
(392,-95,o),
(407,-109,o),
(407,-128,cs),
(407,-145,o),
(392,-160,o),
(367,-160,cs),
(317,-160,l),
(317,-206,l)
);
}
);
width = 679;
}
);
unicode = 199;
},
{
glyphname = D;
kernLeft = B;
kernRight = D;
layers = (
{
layerId = UUID0;
shapes = (
{
closed = 1;
nodes = (
(304,0,ls),
(546,0,o),
(671,139,o),
(671,334,cs),
(671,534,o),
(542,660,o),
(278,660,cs),
(16,660,l),
(16,640,l),
(36,640,ls),
(96,640,o),
(106,600,o),
(106,540,cs),
(106,0,l)
);
},
{
closed = 1;
nodes = (
(272,35,o),
(238,39,o),
(199,48,c),
(199,609,l),
(235,620,o),
(270,625,o),
(299,625,cs),
(452,625,o),
(562,507,o),
(562,330,cs),
(562,149,o),
(449,35,o),
(301,35,cs)
);
}
);
width = 715;
},
{
layerId = "C3EC177B-A859-46F4-B872-3D98CC06F87A";
shapes = (
{
closed = 1;
nodes = (
(313,0,ls),
(565,0,o),
(700,137,o),
(700,334,cs),
(700,537,o),
(561,660,o),
(287,660,cs),
(15,660,l),
(15,630,l),
(25,630,ls),
(85,630,o),
(95,590,o),
(95,530,cs),
(95,0,l)
);
},
{
closed = 1;
nodes = (
(279,40,o),
(261,41,o),
(247,43,cs),
(225,47,l),
(225,613,l),
(247,616,ls),
(262,619,o),
(280,620,o),
(300,620,cs),
(308,620,l),
(452,620,o),
(550,506,o),
(550,330,cs),
(550,150,o),
(449,40,o),
(310,40,cs),
(300,40,ls)
);
}
);
width = 736;
}
);
unicode = 68;
},
{
glyphname = Eth;
kernLeft = B;
kernRight = D;
layers = (
{
layerId = UUID0;
shapes = (
{
closed = 1;
nodes = (
(304,0,ls),
(546,0,o),
(671,139,o),
(671,334,cs),
(671,534,o),
(542,660,o),
(278,660,cs),
(16,660,l),
(16,640,l),
(36,640,ls),
(96,640,o),
(106,600,o),
(106,540,cs),
(106,350,l),
(31,350,l),
(31,310,l),
(106,310,l),
(106,0,l)
);
},
{
closed = 1;
nodes = (
(272,35,o),
(238,39,o),
(199,48,c),
(199,310,l),
(286,310,l),
(286,350,l),
(199,350,l),
(199,609,l),
(235,620,o),
(270,625,o),
(299,625,cs),
(452,625,o),
(562,507,o),
(562,330,cs),
(562,149,o),
(449,35,o),
(301,35,cs)
);
}
);
width = 715;
},
{
layerId = "C3EC177B-A859-46F4-B872-3D98CC06F87A";
shapes = (
{
closed = 1;
nodes = (
(313,0,ls),
(565,0,o),
(700,137,o),
(700,334,cs),
(700,537,o),
(561,660,o),
(287,660,cs),
(15,660,l),
(15,630,l),
(25,630,ls),
(85,630,o),
(95,590,o),
(95,530,cs),
(95,355,l),
(25,355,l),
(25,305,l),
(95,305,l),
(95,0,l)
);
},
{
closed = 1;
nodes = (
(279,40,o),
(261,41,o),
(247,43,cs),
(225,47,l),
(225,305,l),
(300,305,l),
(300,355,l),
(225,355,l),
(225,613,l),
(247,616,ls),
(262,619,o),
(280,620,o),
(300,620,cs),
(308,620,l),
(452,620,o),
(550,506,o),
(550,330,cs),
(550,150,o),
(449,40,o),
(310,40,cs),
(300,40,ls)
);
}
);
width = 736;
}
);
unicode = 208;
},
{
glyphname = E;
kernLeft = B;
kernRight = E;
layers = (
{
layerId = UUID0;
shapes = (
{
closed = 1;
nodes = (
(451,0,ls),
(491,0,o),
(515,19,o),
(526,50,cs),
(561,145,l),
(541,150,l),
(510,70,o),
(462,40,o),
(371,40,cs),
(196,40,l),
(196,320,l),
(466,320,l),
(466,360,l),
(196,360,l),
(196,620,l),
(382,620,ls),
(462,620,o),
(507,585,o),
(507,505,c),
(527,505,l),
(527,580,ls),
(527,620,o),
(511,660,o),
(442,660,cs),
(16,660,l),
(16,640,l),
(36,640,ls),
(96,640,o),
(106,600,o),
(106,540,cs),
(106,0,l)
);
}
);
width = 590;
},
{
layerId = "C3EC177B-A859-46F4-B872-3D98CC06F87A";
shapes = (
{
closed = 1;
nodes = (
(465,0,ls),
(520,0,o),
(537,27,o),
(552,70,cs),
(581,149,l),
(554,159,l),
(519,72,o),
(469,45,o),
(396,45,cs),
(225,45,l),
(225,320,l),
(485,320,l),
(485,365,l),
(225,365,l),
(225,615,l),
(386,615,ls),
(466,615,o),
(511,580,o),
(511,495,c),
(541,495,l),
(541,580,ls),
(541,620,o),
(525,660,o),
(456,660,cs),
(15,660,l),
(15,630,l),
(25,630,ls),
(85,630,o),
(95,590,o),
(95,530,cs),
(95,0,l)
);
}
);
width = 600;
}
);
unicode = 69;
},
{
glyphname = F;
kernLeft = B;
layers = (
{
layerId = UUID0;
shapes = (
{
closed = 1;
nodes = (
(196,0,l),
(196,315,l),
(422,315,l),
(422,355,l),
(196,355,l),
(196,620,l),
(355,620,ls),
(435,620,o),
(480,585,o),
(480,505,c),
(500,505,l),
(500,580,ls),
(500,620,o),
(484,660,o),
(415,660,cs),
(16,660,l),
(16,640,l),
(36,640,ls),
(96,640,o),
(106,600,o),
(106,540,cs),
(106,0,l)
);
}
);
width = 527;
},
{
layerId = "C3EC177B-A859-46F4-B872-3D98CC06F87A";
shapes = (
{
closed = 1;
nodes = (
(225,0,l),
(225,315,l),
(445,315,l),
(445,360,l),
(225,360,l),
(225,615,l),
(364,615,ls),
(444,615,o),
(489,582,o),
(489,495,c),
(519,495,l),
(519,580,ls),
(519,620,o),
(503,660,o),
(434,660,cs),
(15,660,l),
(15,630,l),
(25,630,ls),
(85,630,o),
(95,590,o),
(95,530,cs),
(95,0,l)
);
}
);
width = 539;
}
);
unicode = 70;
},
{
glyphname = G;
kernLeft = C;
kernRight = G;
layers = (
{
layerId = UUID0;
shapes = (
{
closed = 1;
nodes = (
(481,-20,o),
(557,-1,o),
(629,43,c),
(629,231,ls),
(629,290,o),
(639,326,o),
(704,326,c),
(704,346,l),
(554,346,o),
(539,284,o),
(539,229,cs),
(539,55,l),
(500,34,o),
(456,20,o),
(384,20,cs),
(253,20,o),
(144,99,o),
(144,340,cs),
(144,489,o),
(213,640,o),
(384,640,cs),
(505,640,o),
(574,581,o),
(599,465,c),
(619,465,l),
(619,510,o),
(619,569,o),
(594,600,cs),
(558,644,o),
(475,680,o),
(354,680,cs),
(164,680,o),
(44,529,o),
(44,340,cs),
(44,140,o),
(184,-20,o),
(384,-20,cs)
);
}
);
width = 720;
},
{
layerId = "C3EC177B-A859-46F4-B872-3D98CC06F87A";
shapes = (
{
closed = 1;
nodes = (
(498,-20,o),
(583,0,o),
(660,47,c),
(660,226,ls),
(660,286,o),
(679,321,o),
(724,321,c),
(724,346,l),
(554,346,o),
(530,279,o),
(530,224,cs),
(530,46,l),
(495,30,o),
(455,20,o),
(395,20,cs),
(272,20,o),
(175,97,o),
(175,340,cs),
(175,493,o),
(236,635,o),
(395,635,cs),
(511,635,o),
(578,583,o),
(603,460,c),
(633,460,l),
(633,505,o),
(633,565,o),
(607,599,c),
(570,642,o),
(490,680,o),
(365,680,cs),
(166,680,o),
(35,532,o),
(35,340,cs),
(35,138,o),
(187,-20,o),
(395,-20,cs)
);
}
);
width = 734;
}
);
unicode = 71;
},
{
glyphname = H;
kernLeft = B;
kernRight = H;
layers = (
{
layerId = UUID0;
shapes = (
{
closed = 1;
nodes = (
(196,0,l),
(196,320,l),
(496,320,l),
(496,120,ls),
(496,20,o),
(516,0,o),
(586,0,cs),
(676,0,l),
(676,20,l),
(656,20,ls),
(596,20,o),
(586,60,o),
(586,120,cs),
(586,660,l),
(496,660,l),
(496,360,l),
(196,360,l),
(196,540,ls),
(196,640,o),
(176,660,o),
(106,660,cs),
(16,660,l),
(16,640,l),
(36,640,ls),
(96,640,o),
(106,600,o),
(106,540,cs),
(106,0,l)
);
}
);
width = 693;
},
{
layerId = "C3EC177B-A859-46F4-B872-3D98CC06F87A";
shapes = (
{
closed = 1;
nodes = (
(225,0,l),
(225,320,l),
(495,320,l),
(495,130,ls),
(495,29,o),
(515,0,o),
(585,0,cs),
(705,0,l),
(705,30,l),
(695,30,ls),
(635,30,o),
(625,70,o),
(625,130,cs),
(625,660,l),
(495,660,l),
(495,365,l),
(225,365,l),
(225,530,ls),
(225,629,o),
(205,660,o),
(135,660,cs),
(15,660,l),
(15,630,l),
(25,630,ls),
(85,630,o),
(95,590,o),
(95,530,cs),
(95,0,l)
);
}
);
width = 720;
}
);
unicode = 72;
},
{
glyphname = I;
kernLeft = I;
kernRight = H;
layers = (
{
layerId = UUID0;
shapes = (
{
closed = 1;
nodes = (
(269,0,l),
(269,20,l),
(249,20,ls),
(189,20,o),
(179,60,o),
(179,120,cs),
(179,660,l),
(89,660,l),
(89,120,ls),
(89,20,o),
(109,0,o),
(179,0,cs)
);
}
);
width = 285;
},
{
layerId = "C3EC177B-A859-46F4-B872-3D98CC06F87A";
shapes = (
{
closed = 1;
nodes = (
(289,0,l),
(289,30,l),
(279,30,ls),
(219,30,o),
(209,70,o),
(209,130,cs),
(209,660,l),
(79,660,l),
(79,130,ls),
(79,29,o),
(99,0,o),
(169,0,cs)
);
}
);
width = 304;
}
);
unicode = 73;
},
{
glyphname = Idieresis;
kernLeft = I;
kernRight = H;
layers = (
{
layerId = UUID0;
shapes = (
{
closed = 1;
nodes = (
(269,0,l),
(269,20,l),
(249,20,ls),
(189,20,o),
(179,60,o),
(179,120,cs),
(179,660,l),
(89,660,l),
(89,120,l),
(89,20,o),
(109,0,o),
(179,0,cs)
);
},
{
closed = 1;
nodes = (
(88,715,o),
(107,734,o),
(107,765,cs),
(107,796,o),
(88,815,o),
(57,815,cs),
(26,815,o),
(7,796,o),
(7,765,cs),
(7,734,o),
(26,715,o),
(57,715,cs)
);
},
{
closed = 1;
nodes = (
(242,715,o),
(261,734,o),
(261,765,cs),
(261,796,o),
(242,815,o),
(211,815,cs),
(180,815,o),
(161,796,o),
(161,765,cs),
(161,734,o),
(180,715,o),
(211,715,cs)
);
}
);
width = 285;
},
{
layerId = "C3EC177B-A859-46F4-B872-3D98CC06F87A";
shapes = (
{
closed = 1;
nodes = (
(289,0,l),
(289,30,l),
(279,30,ls),
(219,30,o),
(209,70,o),
(209,130,cs),
(209,660,l),
(79,660,l),
(79,130,l),
(79,29,o),
(99,0,o),
(169,0,cs)
);
},
{
closed = 1;
nodes = (
(96,715,o),
(117,740,o),
(117,771,cs),
(117,802,o),
(96,827,o),
(61,827,cs),
(26,827,o),
(5,802,o),
(5,771,cs),
(5,740,o),
(26,715,o),
(61,715,cs)
);
},
{
closed = 1;
nodes = (
(262,715,o),
(283,740,o),
(283,771,cs),
(283,802,o),
(262,827,o),
(227,827,cs),
(192,827,o),
(171,802,o),
(171,771,cs),
(171,740,o),
(192,715,o),
(227,715,cs)
);
}
);
width = 304;
}
);
unicode = 207;
},
{
glyphname = Idotaccent;
kernLeft = I;
kernRight = H;
layers = (
{
background = {
shapes = (
{
closed = 1;
nodes = (
(269,0,l),
(269,20,l),
(249,20,ls),
(189,20,o),
(179,60,o),
(179,120,cs),
(179,660,l),
(89,660,l),
(89,120,l),
(89,20,o),
(109,0,o),
(179,0,cs)
);
},
{
closed = 1;
nodes = (
(165,710,o),
(183,727,o),
(183,755,cs),
(183,790,o),
(158,819,o),
(127,819,cs),
(99,819,o),
(81,802,o),
(81,774,cs),
(81,739,o),
(106,710,o),
(137,710,cs)
);
}
);
};
guides = (
{
angle = 90;
pos = (134,660);
}
);
layerId = UUID0;
shapes = (
{
closed = 1;
nodes = (
(269,0,l),
(269,20,l),
(249,20,ls),
(189,20,o),
(179,60,o),
(179,120,cs),
(179,660,l),
(89,660,l),
(89,120,l),
(89,20,o),
(109,0,o),
(179,0,cs)
);
},
{
closed = 1;
nodes = (
(162,710,o),
(187,734,o),
(187,765,cs),
(187,794,o),
(164,819,o),
(133,819,cs),
(104,819,o),
(79,794,o),
(79,765,cs),
(79,734,o),
(104,710,o),
(133,710,cs)
);
}
);
width = 285;
},
{
background = {
shapes = (
{
closed = 1;
nodes = (
(289,0,l),
(289,30,l),
(279,30,ls),
(219,30,o),
(209,70,o),
(209,130,cs),
(209,660,l),
(79,660,l),
(79,130,l),
(79,29,o),
(99,0,o),
(169,0,cs)
);
},
{
closed = 1;
nodes = (
(180,714,o),
(204,735,o),
(204,770,cs),
(204,810,o),
(180,846,o),
(129,846,cs),
(98,846,o),
(74,825,o),
(74,790,cs),
(74,750,o),
(98,714,o),
(149,714,cs)
);
}
);
};
guides = (
{
angle = 90;
pos = (144,660);
}
);
layerId = "C3EC177B-A859-46F4-B872-3D98CC06F87A";
shapes = (
{
closed = 1;
nodes = (
(289,0,l),
(289,30,l),
(279,30,ls),
(219,30,o),
(209,70,o),
(209,130,cs),
(209,660,l),
(79,660,l),
(79,130,l),
(79,29,o),
(99,0,o),
(169,0,cs)
);
},
{
closed = 1;
nodes = (
(183,718,o),
(205,743,o),
(205,779,cs),
(205,815,o),
(183,840,o),
(144,840,cs),
(105,840,o),
(83,815,o),
(83,779,cs),
(83,743,o),
(105,718,o),
(144,718,cs)
);
}
);
width = 304;
}
);
unicode = 304;
},
{
glyphname = J;
layers = (
{
layerId = UUID0;
shapes = (
{
closed = 1;
nodes = (
(136,-137,o),
(176,-72,o),
(176,78,cs),
(176,660,l),
(86,660,l),
(86,78,ls),
(86,-43,o),
(56,-117,o),
(-9,-117,c),
(-9,-137,l)
);
}
);
width = 261;
},
{
layerId = "C3EC177B-A859-46F4-B872-3D98CC06F87A";
shapes = (
{
closed = 1;
nodes = (
(161,-137,o),
(204,-89,o),
(204,83,cs),
(204,660,l),
(74,660,l),
(74,83,ls),
(74,-59,o),
(41,-99,o),
(-19,-107,c),
(-19,-137,l)
);
}
);
width = 278;
}
);
unicode = 74;
},
{
glyphname = K;
kernLeft = B;
layers = (
{
layerId = UUID0;
shapes = (
{
closed = 1;
nodes = (
(652,-10,o),
(671,-5,o),
(686,0,c),
(686,19,l),
(635,26,o),
(571,73,o),
(516,130,cs),
(286,370,l),
(481,565,ls),
(536,620,o),
(571,635,o),
(626,635,c),
(626,660,l),
(576,660,ls),
(496,660,o),
(456,605,o),
(406,555,cs),
(196,345,l),
(196,540,ls),
(196,640,o),
(176,660,o),
(106,660,cs),
(16,660,l),
(16,640,l),
(36,640,ls),
(96,640,o),
(106,600,o),
(106,540,cs),
(106,0,l),
(196,0,l),
(196,330,l),
(406,110,ls),
(501,10,o),
(566,-10,o),
(621,-10,cs)
);
}
);
width = 677;
},
{
layerId = "C3EC177B-A859-46F4-B872-3D98CC06F87A";
shapes = (
{
closed = 1;
nodes = (
(662,-10,o),
(689,-5,o),
(704,0,c),
(704,24,l),
(665,29,o),
(595,75,o),
(545,130,c),
(314,370,l),
(463,554,ls),
(508,610,o),
(570,625,o),
(646,625,c),
(646,660,l),
(576,660,ls),
(497,660,o),
(442,611,o),
(399,555,c),
(226,340,l),
(226,530,ls),
(226,629,o),
(204,660,o),
(135,660,cs),
(15,660,l),
(15,630,l),
(25,630,ls),
(85,630,o),
(95,590,o),
(95,530,cs),
(96,0,l),
(226,0,l),
(226,278,l),
(387,110,ls),
(482,10,o),
(557,-10,o),
(631,-10,cs)
);
}
);
width = 693;
}
);
unicode = 75;
},
{
glyphname = L;
kernLeft = B;
layers = (
{
layerId = UUID0;
shapes = (
{
closed = 1;
nodes = (
(551,0,l),
(551,40,l),
(196,40,l),
(196,540,ls),
(196,640,o),
(176,660,o),
(106,660,cs),
(16,660,l),
(16,640,l),
(36,640,ls),
(96,640,o),
(106,600,o),
(106,540,cs),
(106,0,l)
);
}
);
width = 558;
},
{
layerId = "C3EC177B-A859-46F4-B872-3D98CC06F87A";
shapes = (
{
closed = 1;
nodes = (
(570,0,l),
(570,45,l),
(225,45,l),
(225,530,ls),
(225,629,o),
(205,660,o),
(135,660,cs),
(15,660,l),
(15,630,l),
(25,630,ls),
(85,630,o),
(95,590,o),
(95,530,cs),
(95,0,l)
);
}
);
width = 570;
}
);
unicode = 76;
},
{
glyphname = M;
layers = (
{
layerId = UUID0;
shapes = (
{
closed = 1;
nodes = (
(841,-25,l),
(776,-25,o),
(746,49,o),
(746,170,cs),
(746,660,l),
(656,660,l),
(421,140,l),
(181,660,l),
(86,660,l),
(86,0,l),
(126,0,l),
(126,565,l),
(386,0,l),
(406,0,l),
(656,555,l),
(656,170,ls),
(656,20,o),
(696,-45,o),
(841,-45,c)
);
}
);
width = 855;
},
{
layerId = "C3EC177B-A859-46F4-B872-3D98CC06F87A";
shapes = (
{
closed = 1;
nodes = (
(847,-20,l),
(791,-9,o),
(774,49,o),
(774,170,cs),
(774,660,l),
(643,660,l),
(438,169,l),
(196,660,l),
(74,660,l),
(74,0,l),
(124,0,l),
(124,544,l),
(392,0,l),
(425,0,l),
(644,524,l),
(644,170,ls),
(644,19,o),
(702,-45,o),
(847,-45,c)
);
}
);
width = 867;
}
);
unicode = 77;
},
{
glyphname = N;
kernLeft = B;
kernRight = N;
layers = (
{
layerId = UUID0;
shapes = (
{
closed = 1;
nodes = (
(600,-10,l),
(600,660,l),
(560,660,l),
(560,165,l),
(210,600,l),
(179,637,o),
(140,660,o),
(75,660,cs),
(10,660,l),
(10,640,l),
(20,640,ls),
(89,640,o),
(110,600,o),
(110,540,cs),
(110,0,l),
(150,0,l),
(150,525,l),
(580,-10,l)
);
}
);
width = 685;
},
{
layerId = "C3EC177B-A859-46F4-B872-3D98CC06F87A";
shapes = (
{
closed = 1;
nodes = (
(618,-3,l),
(618,660,l),
(568,660,l),
(568,200,l),
(224,600,l),
(193,640,o),
(149,660,o),
(73,660,cs),
(3,660,l),
(3,630,l),
(8,630,ls),
(78,630,o),
(98,591,o),
(98,540,cs),
(98,0,l),
(148,0,l),
(148,495,l),
(572,-3,l)
);
}
);
width = 692;
}
);
unicode = 78;
},
{
glyphname = O;
kernLeft = C;
kernRight = O;
layers = (
{
layerId = UUID0;
shapes = (
{
closed = 1;
nodes = (
(546,-20,o),
(666,134,o),
(666,330,cs),
(666,526,o),
(546,680,o),
(356,680,cs),
(166,680,o),
(46,526,o),
(46,330,cs),
(46,134,o),
(166,-20,o),
(356,-20,cs)
);
},
{
closed = 1;
nodes = (
(225,20,o),
(146,140,o),
(146,330,cs),
(146,520,o),
(225,640,o),
(356,640,cs),
(487,640,o),
(566,520,o),
(566,330,cs),
(566,140,o),
(487,20,o),
(356,20,cs)
);
}
);
width = 712;
},
{
layerId = "C3EC177B-A859-46F4-B872-3D98CC06F87A";
shapes = (
{
closed = 1;
nodes = (
(566,-20,o),
(696,133,o),
(696,330,cs),
(696,527,o),
(566,680,o),
(367,680,cs),
(168,680,o),
(37,527,o),
(37,330,cs),
(37,133,o),
(168,-20,o),
(367,-20,cs)
);
},
{
closed = 1;
nodes = (
(246,25,o),
(177,135,o),
(177,330,cs),
(177,525,o),
(246,635,o),
(367,635,cs),
(488,635,o),
(558,525,o),
(558,330,cs),
(558,135,o),
(488,25,o),
(367,25,cs)
);
}
);
width = 733;
}
);
unicode = 79;
},
{
glyphname = Oslash;
kernLeft = C;
kernRight = O;
layers = (
{
layerId = UUID0;
shapes = (
{
closed = 1;
nodes = (
(199,-20,l),
(216,12,l),
(257,-9,o),
(304,-20,o),
(356,-20,cs),
(546,-20,o),
(666,134,o),
(666,330,cs),
(666,450,o),
(621,551,o),
(544,615,c),
(580,680,l),
(507,680,l),
(490,650,l),
(451,669,o),
(407,680,o),
(356,680,cs),
(166,680,o),
(46,526,o),
(46,330,cs),
(46,213,o),
(88,112,o),
(163,48,c),
(126,-20,l)
);
},
{
closed = 1;
nodes = (
(164,164,o),
(146,238,o),
(146,330,cs),
(146,520,o),
(225,640,o),
(356,640,cs),
(397,640,o),
(434,628,o),
(465,604,c),
(197,111,l)
);
},
{
closed = 1;
nodes = (
(313,20,o),
(275,33,o),
(242,59,c),
(511,554,l),
(546,499,o),
(566,423,o),
(566,330,cs),
(566,140,o),
(487,20,o),
(356,20,cs)
);
}
);
width = 712;
},
{
layerId = "C3EC177B-A859-46F4-B872-3D98CC06F87A";
shapes = (
{
closed = 1;
nodes = (
(199,-20,l),
(219,13,l),
(262,-8,o),
(311,-20,o),
(367,-20,cs),
(566,-20,o),
(696,133,o),
(696,330,cs),
(696,446,o),
(652,543,o),
(576,607,c),
(620,680,l),
(528,680,l),
(510,649,l),
(467,670,o),
(419,680,o),
(367,680,cs),
(168,680,o),
(37,527,o),
(37,330,cs),
(37,217,o),
(79,120,o),
(152,56,c),
(107,-20,l)
);
},
{
closed = 1;
nodes = (
(321,25,o),
(283,40,o),
(253,70,c),
(525,522,l),
(546,471,o),
(558,409,o),
(558,330,cs),
(558,135,o),
(488,25,o),
(367,25,cs)
);
},
{
closed = 1;
nodes = (
(187,195,o),
(177,257,o),
(177,330,cs),
(177,525,o),
(246,635,o),
(367,635,cs),
(408,635,o),
(445,621,o),
(476,593,c),
(206,145,l)
);
}
);
width = 733;
}
);
unicode = 216;
},
{
glyphname = OE;
kernLeft = C;
kernRight = E;
layers = (
{
layerId = UUID0;
shapes = (
{
closed = 1;
nodes = (
(396,-20,o),
(431,-15,o),
(466,0,c),
(806,0,ls),
(846,0,o),
(870,19,o),
(881,50,cs),
(916,145,l),
(896,150,l),
(865,70,o),
(817,40,o),
(726,40,cs),
(551,40,l),
(551,320,l),
(821,320,l),
(821,360,l),
(551,360,l),
(551,620,l),
(737,620,ls),
(817,620,o),
(862,585,o),
(862,505,c),
(882,505,l),
(882,580,ls),
(882,620,o),
(866,660,o),
(797,660,cs),
(466,660,l),
(431,675,o),
(396,680,o),
(356,680,cs),
(166,680,o),
(46,526,o),
(46,330,cs),
(46,134,o),
(166,-20,o),
(356,-20,cs)
);
},
{
closed = 1;
nodes = (
(225,20,o),
(146,140,o),
(146,330,cs),
(146,520,o),
(225,640,o),
(356,640,cs),
(396,640,o),
(431,630,o),
(461,610,c),
(461,52,l),
(432,31,o),
(397,20,o),
(356,20,cs)
);
}
);
width = 945;
},
{
layerId = "C3EC177B-A859-46F4-B872-3D98CC06F87A";
shapes = (
{
closed = 1;
nodes = (
(412,-20,o),
(447,-15,o),
(482,0,c),
(822,0,ls),
(877,0,o),
(894,27,o),
(909,70,cs),
(938,149,l),
(911,159,l),
(876,72,o),
(826,45,o),
(753,45,cs),
(582,45,l),
(582,320,l),
(842,320,l),
(842,365,l),
(582,365,l),
(582,615,l),
(743,615,ls),
(823,615,o),
(868,580,o),
(868,495,c),
(898,495,l),
(898,580,ls),
(898,620,o),
(882,660,o),
(813,660,cs),
(482,660,l),
(451,671,o),
(423,680,o),
(367,680,cs),
(168,680,o),
(37,527,o),
(37,330,cs),
(37,133,o),
(168,-20,o),
(367,-20,cs)
);
},
{
closed = 1;
nodes = (
(246,25,o),
(177,135,o),
(177,330,cs),
(177,525,o),
(246,635,o),
(367,635,cs),
(398,635,o),
(427,627,o),
(452,611,c),
(452,48,l),
(427,33,o),
(398,25,o),
(367,25,cs)
);
}
);
width = 957;
}
);
unicode = 338;
},
{
glyphname = P;
kernLeft = B;
layers = (
{
layerId = UUID0;
shapes = (
{
closed = 1;
nodes = (
(196,0,l),
(196,270,l),
(306,270,ls),
(361,270,o),
(526,289,o),
(526,460,cs),
(526,640,o),
(361,660,o),
(276,660,cs),
(16,660,l),
(16,640,l),
(36,640,ls),
(96,640,o),
(106,600,o),
(106,540,cs),
(106,0,l)
);
},
{
closed = 1;
nodes = (
(246,305,o),
(216,310,o),
(196,315,c),
(196,615,l),
(216,620,o),
(246,625,o),
(271,625,cs),
(326,625,o),
(426,585,o),
(426,465,cs),
(426,345,o),
(326,305,o),
(271,305,cs)
);
}
);
width = 552;
},
{
layerId = "C3EC177B-A859-46F4-B872-3D98CC06F87A";
shapes = (
{
closed = 1;
nodes = (
(225,0,l),
(225,267,l),
(320,267,ls),
(379,267,o),
(560,286,o),
(560,459,cs),
(560,642,o),
(380,660,o),
(290,660,cs),
(15,660,l),
(15,630,l),
(25,630,ls),
(85,630,o),
(95,590,o),
(95,530,cs),
(95,0,l)
);
},
{
closed = 1;
nodes = (
(225,613,l),
(245,616,l),
(257,619,o),
(274,620,o),
(290,620,cs),
(353,620,o),
(420,587,o),
(420,464,cs),
(420,340,o),
(353,307,o),
(285,307,cs),
(225,307,l)
);
}
);
width = 577;
}
);
unicode = 80;
},
{
glyphname = Thorn;
kernLeft = B;
layers = (
{
layerId = UUID0;
shapes = (
{
closed = 1;
nodes = (
(199,-30,l),
(199,80,l),
(400,80,o),
(509,159,o),
(509,315,cs),
(509,471,o),
(400,550,o),
(199,550,c),
(199,600,l),
(199,669,o),
(178,690,o),
(109,690,cs),
(19,690,l),
(19,670,l),
(39,670,ls),
(90,670,o),
(109,651,o),
(109,600,cs),
(109,-30,l)
);
},
{
closed = 1;
nodes = (
(199,510,l),
(349,510,o),
(409,430,o),
(409,315,cs),
(409,200,o),
(349,120,o),
(199,120,c)
);
}
);
width = 535;
},
{
layerId = "C3EC177B-A859-46F4-B872-3D98CC06F87A";
shapes = (
{
closed = 1;
nodes = (
(227,-30,l),
(227,80,l),
(434,84,o),
(537,162,o),
(537,315,cs),
(537,466,o),
(434,545,o),
(227,550,c),
(227,560,l),
(227,659,o),
(207,690,o),
(137,690,cs),
(17,690,l),
(17,660,l),
(27,660,ls),
(87,660,o),
(97,620,o),
(97,560,cs),
(97,-30,l)
);
},
{
closed = 1;
nodes = (
(227,504,l),
(343,497,o),
(397,424,o),
(397,315,cs),
(397,206,o),
(344,133,o),
(227,125,c)
);
}
);
width = 555;
}
);
unicode = 222;
},
{
glyphname = Q;
kernLeft = C;
kernRight = O;
layers = (
{
layerId = UUID0;
shapes = (
{
closed = 1;
nodes = (
(677,-185,l),
(591,-185,o),
(471,-109,o),
(439,-9,c),
(581,29,o),
(667,164,o),
(667,330,cs),
(667,526,o),
(547,680,o),
(357,680,cs),
(167,680,o),
(47,526,o),
(47,330,cs),
(47,167,o),
(130,33,o),
(267,-7,c),
(390,-160,o),
(531,-205,o),
(677,-205,c)
);
},
{
closed = 1;
nodes = (
(226,20,o),
(147,140,o),
(147,330,cs),
(147,520,o),
(226,640,o),
(357,640,cs),
(488,640,o),
(567,520,o),
(567,330,cs),
(567,140,o),
(488,20,o),
(357,20,cs)
);
}
);
width = 714;
},
{
layerId = "C3EC177B-A859-46F4-B872-3D98CC06F87A";
shapes = (
{
closed = 1;
nodes = (
(693,-179,l),
(609,-179,o),
(498,-104,o),
(463,-7,c),
(607,33,o),
(697,164,o),
(697,330,cs),
(697,527,o),
(567,680,o),
(368,680,cs),
(169,680,o),
(38,527,o),
(38,330,cs),
(38,169,o),
(125,39,o),
(264,-4,c),
(386,-152,o),
(541,-205,o),
(693,-205,c)
);
},
{
closed = 1;
nodes = (
(247,25,o),
(178,135,o),
(178,330,cs),
(178,525,o),
(247,635,o),
(368,635,cs),
(489,635,o),
(559,525,o),
(559,330,cs),
(559,135,o),
(489,25,o),
(368,25,cs)
);
}
);
width = 735;
}
);
unicode = 81;
},
{
glyphname = R;
kernLeft = B;
layers = (
{
layerId = UUID0;
shapes = (
{
closed = 1;
nodes = (
(571,-10,o),
(595,-5,o),
(606,0,c),
(606,20,l),
(556,25,o),
(522,50,o),
(471,135,cs),
(366,310,l),
(436,326,o),
(526,364,o),
(526,480,cs),
(526,640,o),
(361,660,o),
(276,660,cs),
(16,660,l),
(16,640,l),
(36,640,ls),
(96,640,o),
(106,600,o),
(106,540,cs),
(106,0,l),
(196,0,l),
(196,305,l),
(266,305,l),
(366,135,l),
(431,25,o),
(476,-10,o),
(546,-10,cs)
);
},
{
closed = 1;
nodes = (
(246,340,o),
(216,345,o),
(196,350,c),
(196,615,l),
(216,620,o),
(246,625,o),
(271,625,cs),
(326,625,o),
(426,585,o),
(426,480,cs),
(426,380,o),
(326,340,o),
(271,340,cs)
);
}
);
width = 595;
},
{
layerId = "C3EC177B-A859-46F4-B872-3D98CC06F87A";
shapes = (
{
closed = 1;
nodes = (
(585,-10,o),
(617,-5,o),
(628,0,c),
(628,25,l),
(599,30,o),
(555,50,o),
(504,135,cs),
(399,310,l),
(475,329,o),
(561,371,o),
(561,476,cs),
(561,640,o),
(386,660,o),
(291,660,cs),
(15,660,l),
(15,630,l),
(25,630,ls),
(85,630,o),
(95,590,o),
(95,530,cs),
(95,0,l),
(226,0,l),
(226,302,l),
(266,302,l),
(366,135,l),
(433,25,o),
(489,-10,o),
(560,-10,cs)
);
},
{
closed = 1;
nodes = (
(226,613,l),
(246,616,l),
(258,619,o),
(275,620,o),
(291,620,cs),
(350,620,o),
(421,585,o),
(421,481,cs),
(421,376,o),
(350,342,o),
(286,342,cs),
(226,342,l)
);
}
);
width = 616;
}
);
unicode = 82;
},
{
glyphname = S;
kernLeft = S;
kernRight = S;
layers = (
{
layerId = UUID0;
shapes = (
{
closed = 1;
nodes = (
(410,-17,o),
(490,56,o),
(490,168,cs),
(490,243,o),
(451,282,o),
(366,333,cs),
(243,406,ls),
(170,449,o),
(132,479,o),
(132,537,cs),
(132,599,o),
(189,638,o),
(248,638,cs),
(361,638,o),
(423,586,o),
(446,451,c),
(464,451,l),
(464,558,ls),
(464,634,o),
(347,678,o),
(248,678,cs),
(132,678,o),
(54,611,o),
(54,508,cs),
(54,433,o),
(86,387,o),
(171,336,cs),
(294,263,ls),
(367,220,o),
(404,184,o),
(404,125,cs),
(404,58,o),
(341,23,o),
(273,23,cs),
(160,23,o),
(95,77,o),
(72,212,c),
(54,212,l),
(54,105,ls),
(54,30,o),
(174,-17,o),
(282,-17,cs)
);
}
);
width = 533;
},
{
layerId = "C3EC177B-A859-46F4-B872-3D98CC06F87A";
shapes = (
{
closed = 1;
nodes = (
(434,-17,o),
(524,54,o),
(524,169,cs),
(524,242,o),
(484,288,o),
(393,341,cs),
(270,414,ls),
(207,451,o),
(166,480,o),
(166,536,cs),
(166,596,o),
(211,633,o),
(283,633,cs),
(384,633,o),
(447,580,o),
(470,441,c),
(498,441,l),
(498,558,ls),
(498,634,o),
(381,678,o),
(272,678,cs),
(135,678,o),
(48,612,o),
(48,507,cs),
(48,434,o),
(81,381,o),
(172,328,c),
(295,254,ls),
(359,215,o),
(398,182,o),
(398,125,cs),
(398,61,o),
(348,28,o),
(272,28,cs),
(160,28,o),
(96,81,o),
(75,220,c),
(47,220,l),
(47,103,ls),
(47,27,o),
(164,-17,o),
(273,-17,cs)
);
}
);
width = 561;
}
);
unicode = 83;
},
{
glyphname = Scedilla;
kernLeft = S;
kernRight = S;
layers = (
{
layerId = UUID0;
shapes = (
{
closed = 1;
nodes = (
(292,-186,ls),
(337,-186,o),
(372,-160,o),
(372,-113,cs),
(372,-65,o),
(337,-40,o),
(292,-40,cs),
(282,-40,l),
(282,-17,l),
(410,-17,o),
(490,56,o),
(490,168,cs),
(490,243,o),
(451,282,o),
(366,333,cs),
(243,406,ls),
(170,449,o),
(132,479,o),
(132,537,cs),
(132,599,o),
(189,638,o),
(248,638,cs),
(361,638,o),
(423,586,o),
(446,451,c),
(464,451,l),
(464,558,ls),
(464,634,o),
(347,678,o),
(248,678,cs),
(132,678,o),
(54,611,o),
(54,508,cs),
(54,433,o),
(86,387,o),
(171,336,cs),
(294,263,ls),
(367,220,o),
(404,184,o),
(404,125,cs),
(404,58,o),
(341,23,o),
(273,23,cs),
(160,23,o),
(95,77,o),
(72,212,c),
(54,212,l),
(54,105,ls),
(54,40,o),
(141,-3,o),
(237,-14,c),
(237,-80,l),
(282,-80,ls),
(309,-80,o),
(322,-91,o),
(322,-113,cs),
(322,-134,o),
(309,-145,o),
(282,-145,cs),
(232,-145,l),
(232,-186,l)
);
}
);
width = 533;
},
{
layerId = "C3EC177B-A859-46F4-B872-3D98CC06F87A";
shapes = (
{
closed = 1;
nodes = (
(306,-206,ls),
(362,-206,o),
(396,-175,o),
(396,-128,cs),
(396,-80,o),
(362,-50,o),
(306,-50,c),
(306,-16,l),
(447,-7,o),
(525,62,o),
(525,169,cs),
(525,242,o),
(485,288,o),
(394,341,cs),
(271,414,ls),
(208,451,o),
(167,480,o),
(167,536,cs),
(167,596,o),
(212,633,o),
(284,633,cs),
(385,633,o),
(448,580,o),
(471,441,c),
(499,441,l),
(499,558,ls),
(499,634,o),
(382,678,o),
(273,678,cs),
(136,678,o),
(49,612,o),
(49,507,cs),
(49,434,o),
(82,381,o),
(173,328,c),
(296,254,ls),
(360,215,o),
(399,182,o),
(399,125,cs),
(399,61,o),
(349,28,o),
(273,28,cs),
(161,28,o),
(97,81,o),
(76,220,c),
(48,220,l),
(48,103,ls),
(48,34,o),
(141,-7,o),
(241,-15,c),
(241,-95,l),
(286,-95,ls),
(311,-95,o),
(326,-109,o),
(326,-128,cs),
(326,-145,o),
(311,-160,o),
(286,-160,cs),
(236,-160,l),
(236,-206,l)
);
}
);
width = 563;
}
);
unicode = 350;
},
{
glyphname = T;
layers = (
{
layerId = UUID0;
shapes = (
{
closed = 1;
nodes = (
(346,0,l),
(346,620,l),
(571,620,l),
(571,660,l),
(106,660,ls),
(37,660,o),
(21,620,o),
(21,580,cs),
(21,505,l),
(41,505,l),
(41,585,o),
(86,620,o),
(166,620,cs),
(256,620,l),
(256,0,l)
);
}
);
width = 583;
},
{
layerId = "C3EC177B-A859-46F4-B872-3D98CC06F87A";
shapes = (
{
closed = 1;
nodes = (
(362,0,l),
(362,615,l),
(571,615,l),
(571,660,l),
(101,660,ls),
(32,660,o),
(16,620,o),
(16,580,cs),
(16,495,l),
(46,495,l),
(46,584,o),
(90,615,o),
(161,615,cs),
(232,615,l),
(232,0,l)
);
}
);
width = 575;
}
);
unicode = 84;
},
{
glyphname = U;
kernLeft = U;
kernRight = U;
layers = (
{
layerId = UUID0;
shapes = (
{
closed = 1;
nodes = (
(559,-10,o),
(609,89,o),
(609,285,cs),
(609,660,l),
(569,660,l),
(569,285,ls),
(569,109,o),
(519,30,o),
(366,30,cs),
(234,30,o),
(189,115,o),
(189,255,cs),
(189,540,ls),
(189,640,o),
(169,660,o),
(99,660,cs),
(9,660,l),
(9,640,l),
(29,640,ls),
(89,640,o),
(99,600,o),
(99,540,cs),
(99,285,ls),
(99,89,o),
(159,-10,o),
(354,-10,cs)
);
}
);
width = 687;
},
{
layerId = "C3EC177B-A859-46F4-B872-3D98CC06F87A";
shapes = (
{
closed = 1;
nodes = (
(557,-10,o),
(627,100,o),
(627,288,cs),
(627,660,l),
(577,660,l),
(577,288,ls),
(577,113,o),
(518,35,o),
(382,35,cs),
(277,35,o),
(224,119,o),
(223,258,cs),
(222,530,ls),
(222,629,o),
(202,660,o),
(132,660,cs),
(22,660,l),
(22,630,l),
(82,630,o),
(92,590,o),
(92,530,cs),
(92,288,ls),
(92,89,o),
(182,-10,o),
(362,-10,cs)
);
}
);
width = 694;
}
);
unicode = 85;
},
{
glyphname = V;
layers = (
{
layerId = UUID0;
shapes = (
{
closed = 1;
nodes = (
(331,-10,l),
(618,660,l),
(570,660,l),
(411,278,o),
(483,448,o),
(350,140,c),
(179,543,ls),
(131,657,o),
(54,670,o),
(5,670,cs),
(-4,670,o),
(-24,668,o),
(-29,668,c),
(-29,648,l),
(27,643,o),
(49,618,o),
(81,543,cs),
(313,-10,l)
);
}
);
width = 640;
},
{
layerId = "C3EC177B-A859-46F4-B872-3D98CC06F87A";
shapes = (
{
closed = 1;
nodes = (
(339,-10,l),
(627,660,l),
(576,660,l),
(365,169,l),
(207,543,ls),
(159,657,o),
(78,670,o),
(9,670,cs),
(0,670,o),
(-28,668,o),
(-33,668,c),
(-33,648,l),
(7,643,o),
(34,618,o),
(66,543,cs),
(299,-10,l)
);
}
);
width = 635;
}
);
unicode = 86;
},
{
glyphname = W;
layers = (
{
layerId = UUID0;
shapes = (
{
closed = 1;
nodes = (
(292,-10,l),
(436,411,l),
(584,-10,l),
(604,-10,l),
(833,660,l),
(790,660,l),
(619,157,l),
(485,543,ls),
(445,659,o),
(369,670,o),
(314,670,cs),
(305,670,o),
(285,668,o),
(280,668,c),
(280,648,l),
(340,643,o),
(363,619,o),
(390,543,cs),
(414,474,l),
(307,157,l),
(173,543,ls),
(133,659,o),
(57,670,o),
(2,670,cs),
(-7,670,o),
(-27,668,o),
(-32,668,c),
(-32,648,l),
(28,643,o),
(51,619,o),
(78,543,cs),
(272,-10,l)
);
}
);
width = 866;
},
{
layerId = "C3EC177B-A859-46F4-B872-3D98CC06F87A";
shapes = (
{
closed = 1;
nodes = (
(317,-9,l),
(454,383,l),
(608,-9,l),
(648,-9,l),
(885,660,l),
(837,660,l),
(666,179,l),
(523,543,ls),
(477,658,o),
(395,670,o),
(325,670,cs),
(316,670,o),
(291,668,o),
(286,668,c),
(286,648,l),
(326,643,o),
(361,619,o),
(392,543,cs),
(427,454,l),
(337,198,l),
(202,543,ls),
(156,659,o),
(74,670,o),
(4,670,cs),
(-5,670,o),
(-33,668,o),
(-38,668,c),
(-38,648,l),
(2,643,o),
(30,619,o),
(61,543,c),
(277,-9,l)
);
}
);
width = 906;
}
);
unicode = 87;
},
{
glyphname = X;
layers = (
{
layerId = UUID0;
shapes = (
{
closed = 1;
nodes = (
(91,0,l),
(316,290,l),
(436,110,l),
(468,59,o),
(512,0,o),
(576,0,cs),
(681,0,l),
(681,20,l),
(617,25,o),
(570,80,o),
(536,130,cs),
(376,365,l),
(601,660,l),
(551,660,l),
(351,400,l),
(251,550,ls),
(217,600,o),
(177,660,o),
(111,660,cs),
(-9,660,l),
(-9,640,l),
(81,635,o),
(117,580,o),
(151,530,cs),
(291,325,l),
(41,0,l)
);
}
);
width = 667;
},
{
layerId = "C3EC177B-A859-46F4-B872-3D98CC06F87A";
shapes = (
{
closed = 1;
nodes = (
(82,0,l),
(293,266,l),
(394,110,ls),
(426,59,o),
(482,0,o),
(557,0,cs),
(667,0,l),
(667,20,l),
(622,25,o),
(566,78,o),
(533,130,cs),
(376,371,l),
(605,660,l),
(540,660,l),
(347,416,l),
(260,550,ls),
(228,601,o),
(172,660,o),
(97,660,cs),
(-13,660,l),
(-13,640,l),
(32,635,o),
(88,582,o),
(121,530,cs),
(263,311,l),
(17,0,l)
);
}
);
width = 647;
}
);
unicode = 88;
},
{
glyphname = Y;
kernLeft = Y;
kernRight = Y;
layers = (
{
layerId = UUID0;
shapes = (
{
closed = 1;
nodes = (
(380,0,l),
(380,280,l),
(614,660,l),
(569,660,l),
(360,325,l),
(215,550,l),
(181,605,o),
(139,660,o),
(65,660,cs),
(-25,660,l),
(-25,640,l),
(46,635,o),
(79,589,o),
(120,530,c),
(290,273,l),
(290,0,l)
);
}
);
width = 628;
},
{
layerId = "C3EC177B-A859-46F4-B872-3D98CC06F87A";
shapes = (
{
closed = 1;
nodes = (
(409,0,l),
(409,291,l),
(636,660,l),
(571,660,l),
(377,345,l),
(241,550,l),
(209,601,o),
(153,660,o),
(78,660,cs),
(-31,660,l),
(-31,640,l),
(15,635,o),
(67,581,o),
(102,530,c),
(279,264,l),
(279,0,l)
);
}
);
width = 638;
}
);
unicode = 89;
},
{
glyphname = Z;
kernLeft = Z;
kernRight = Z;
layers = (
{
layerId = UUID0;
shapes = (
{
closed = 1;
nodes = (
(559,0,l),
(559,40,l),
(149,40,l),
(574,660,l),
(139,660,ls),
(70,660,o),
(54,620,o),
(54,580,cs),
(54,505,l),
(74,505,l),
(74,585,o),
(119,620,o),
(199,620,cs),
(439,620,l),
(24,20,l),
(24,0,l)
);
}
);
width = 591;
},
{
layerId = "C3EC177B-A859-46F4-B872-3D98CC06F87A";
shapes = (
{
closed = 1;
nodes = (
(576,0,l),
(576,45,l),
(189,45,l),
(581,660,l),
(126,660,ls),
(57,660,o),
(41,620,o),
(41,580,cs),
(41,495,l),
(71,495,l),
(71,584,o),
(115,616,o),
(186,616,cs),
(403,616,l),
(31,32,l),
(31,0,l)
);
}
);
width = 599;
}
);
unicode = 90;
},
{
glyphname = a;
kernLeft = a;
kernRight = a;
layers = (
{
anchors = (
{
name = bottom;
pos = (241,0);
},
{
name = ogonek;
pos = (433,10);
},
{
name = top;
pos = (241,470);
}
);
layerId = UUID0;
shapes = (
{
closed = 1;
nodes = (
(260,-10,o),
(304,20,o),
(324,45,c),
(329,45,l),
(364,0,l),
(414,0,l),
(414,270,ls),
(414,450,o),
(330,480,o),
(239,480,cs),
(179,480,o),
(114,470,o),
(89,445,cs),
(64,420,o),
(64,390,o),
(64,355,c),
(109,355,l),
(124,420,o),
(163,440,o),
(219,440,cs),
(279,440,o),
(324,410,o),
(324,270,c),
(294,270,ls),
(159,270,o),
(39,239,o),
(39,130,cs),
(39,21,o),
(129,-10,o),
(184,-10,cs)
);
},
{
closed = 1;
nodes = (
(179,35,o),
(134,65,o),
(134,130,cs),
(134,190,o),
(194,230,o),
(294,230,cs),
(324,230,l),
(324,95,l),
(304,64,o),
(278,35,o),
(229,35,cs)
);
}
);
width = 481;
},
{
anchors = (
{
name = bottom;
pos = (248,0);
},
{
name = ogonek;
pos = (446,10);
},
{
name = top;
pos = (248,470);
}
);
layerId = "C3EC177B-A859-46F4-B872-3D98CC06F87A";
shapes = (
{
closed = 1;
nodes = (
(242,-10,o),
(272,2,o),
(291,17,cs),
(302,25,o),
(312,34,o),
(319,45,c),
(324,45,l),
(359,0,l),
(444,0,l),
(444,270,ls),
(444,411,o),
(370,480,o),
(239,480,cs),
(174,480,o),
(113,472,o),
(89,445,cs),
(65,418,o),
(64,380,o),
(64,345,c),
(119,345,l),
(135,420,o),
(174,435,o),
(219,435,cs),
(279,435,o),
(314,395,o),
(314,275,c),
(299,275,ls),
(84,275,o),
(29,220,o),
(29,125,cs),
(29,45,o),
(88,-10,o),
(199,-10,cs)
);
},
{
closed = 1;
nodes = (
(189,40,o),
(164,69,o),
(164,125,cs),
(164,196,o),
(203,230,o),
(299,230,cs),
(314,230,l),
(314,105,l),
(309,92,o),
(302,81,o),
(294,72,cs),
(279,56,o),
(260,40,o),
(229,40,cs)
);
}
);
width = 496;
}
);
unicode = 97;
},
{
glyphname = ae;
kernLeft = a;
kernRight = e;
layers = (
{
layerId = UUID0;
shapes = (
{
closed = 1;
nodes = (
(285,-10,o),
(330,20,o),
(359,75,c),
(394,19,o),
(450,-10,o),
(529,-10,cs),
(605,-10,o),
(664,19,o),
(709,95,c),
(689,110,l),
(654,59,o),
(614,30,o),
(549,30,cs),
(464,30,o),
(414,110,o),
(414,220,c),
(712,220,l),
(714,260,l),
(714,401,o),
(650,480,o),
(514,480,cs),
(449,480,o),
(399,441,o),
(379,390,c),
(359,441,o),
(310,480,o),
(239,480,cs),
(179,480,o),
(114,470,o),
(89,445,cs),
(64,420,o),
(64,390,o),
(64,355,c),
(109,355,l),
(124,420,o),
(163,440,o),
(219,440,cs),
(279,440,o),
(324,410,o),
(324,260,c),
(294,260,ls),
(159,260,o),
(39,229,o),
(39,125,cs),
(39,21,o),
(129,-10,o),
(199,-10,cs)
);
},
{
closed = 1;
nodes = (
(178,35,o),
(134,65,o),
(134,125,cs),
(134,181,o),
(194,220,o),
(294,220,cs),
(324,220,l),
(324,95,l),
(304,64,o),
(278,35,o),
(229,35,cs)
);
},
{
closed = 1;
nodes = (
(414,360,o),
(459,435,o),
(519,435,cs),
(590,435,o),
(624,371,o),
(624,260,c),
(414,260,l)
);
}
);
width = 759;
},
{
layerId = "C3EC177B-A859-46F4-B872-3D98CC06F87A";
shapes = (
{
closed = 1;
nodes = (
(302,-10,o),
(359,35,o),
(383,80,c),
(423,20,o),
(480,-10,o),
(553,-10,cs),
(662,-10,o),
(713,50,o),
(742,95,c),
(711,118,l),
(676,71,o),
(637,35,o),
(568,35,cs),
(504,35,o),
(459,83,o),
(458,207,cs),
(458,217,l),
(759,217,l),
(761,237,ls),
(762,249,o),
(763,265,o),
(763,280,cs),
(763,400,o),
(669,480,o),
(553,480,cs),
(489,480,o),
(432,450,o),
(393,389,c),
(362,445,o),
(303,480,o),
(218,480,cs),
(173,480,o),
(111,471,o),
(88,445,cs),
(64,418,o),
(63,380,o),
(63,345,c),
(118,345,l),
(134,420,o),
(173,435,o),
(218,435,cs),
(283,435,o),
(318,383,o),
(318,262,c),
(303,262,ls),
(87,262,o),
(28,205,o),
(28,120,cs),
(28,45,o),
(88,-10,o),
(208,-10,cs)
);
},
{
closed = 1;
nodes = (
(188,40,o),
(163,75,o),
(163,120,cs),
(163,180,o),
(187,217,o),
(303,217,cs),
(318,217,l),
(318,105,l),
(312,92,o),
(305,81,o),
(297,72,cs),
(282,56,o),
(260,40,o),
(228,40,cs)
);
},
{
closed = 1;
nodes = (
(458,385,o),
(498,435,o),
(543,435,cs),
(592,435,o),
(628,385,o),
(628,262,c),
(458,262,l)
);
}
);
width = 795;
}
);
unicode = 230;
},
{
glyphname = b;
kernLeft = b;
kernRight = b;
layers = (
{
layerId = UUID0;
shapes = (
{
closed = 1;
nodes = (
(416,-10,o),
(477,100,o),
(477,235,cs),
(477,370,o),
(417,480,o),
(287,480,cs),
(231,480,o),
(193,465,o),
(162,450,c),
(162,540,ls),
(162,640,o),
(142,660,o),
(72,660,cs),
(-18,660,l),
(-18,640,l),
(2,640,ls),
(62,640,o),
(72,600,o),
(72,540,cs),
(72,0,l),
(122,0,l),
(157,45,l),
(162,45,l),
(182,20,o),
(222,-10,o),
(297,-10,cs)
);
},
{
closed = 1;
nodes = (
(212,30,o),
(182,59,o),
(162,90,c),
(162,410,l),
(193,425,o),
(226,440,o),
(257,440,cs),
(347,440,o),
(382,350,o),
(382,235,cs),
(382,120,o),
(347,30,o),
(267,30,cs)
);
}
);
width = 523;
},
{
layerId = "C3EC177B-A859-46F4-B872-3D98CC06F87A";
shapes = (
{
closed = 1;
nodes = (
(440,-10,o),
(510,98,o),
(510,235,cs),
(510,372,o),
(440,480,o),
(295,480,cs),
(262,480,o),
(237,472,o),
(218,465,cs),
(207,460,o),
(198,455,o),
(190,450,c),
(190,530,ls),
(190,629,o),
(170,660,o),
(100,660,cs),
(-20,660,l),
(-20,630,l),
(-10,630,ls),
(50,630,o),
(60,590,o),
(60,530,cs),
(60,0,l),
(145,0,l),
(180,45,l),
(185,45,l),
(192,34,o),
(201,25,o),
(212,17,cs),
(231,2,o),
(260,-10,o),
(300,-10,cs)
);
},
{
closed = 1;
nodes = (
(249,35,o),
(227,51,o),
(212,67,cs),
(203,76,o),
(196,87,o),
(190,100,c),
(190,405,l),
(197,410,o),
(205,415,o),
(214,420,cs),
(229,427,o),
(250,435,o),
(275,435,cs),
(350,435,o),
(375,350,o),
(375,235,cs),
(375,120,o),
(349,35,o),
(280,35,cs)
);
}
);
width = 547;
}
);
unicode = 98;
},
{
glyphname = c;
kernLeft = c;
kernRight = c;
layers = (
{
layerId = UUID0;
shapes = (
{
closed = 1;
nodes = (
(345,-10,o),
(405,19,o),
(450,95,c),
(430,110,l),
(395,59,o),
(356,30,o),
(285,30,cs),
(185,30,o),
(140,120,o),
(140,235,cs),
(140,350,o),
(185,440,o),
(285,440,cs),
(356,440,o),
(410,400,o),
(415,315,c),
(435,315,l),
(435,390,o),
(435,420,o),
(410,445,cs),
(385,470,o),
(336,480,o),
(265,480,cs),
(116,480,o),
(45,370,o),
(45,235,cs),
(45,100,o),
(116,-10,o),
(265,-10,cs)
);
}
);
width = 483;
},
{
layerId = "C3EC177B-A859-46F4-B872-3D98CC06F87A";
shapes = (
{
closed = 1;
nodes = (
(391,-10,o),
(441,50,o),
(470,95,c),
(439,118,l),
(404,71,o),
(365,35,o),
(296,35,cs),
(213,35,o),
(171,102,o),
(171,235,cs),
(171,371,o),
(220,435,o),
(291,435,cs),
(371,435,o),
(421,390,o),
(426,305,c),
(456,305,l),
(456,381,o),
(456,420,o),
(431,445,cs),
(406,470,o),
(352,480,o),
(276,480,cs),
(116,480,o),
(36,368,o),
(36,235,cs),
(36,102,o),
(116,-10,o),
(276,-10,cs)
);
}
);
width = 496;
}
);
unicode = 99;
},
{
glyphname = ccedilla;
kernLeft = c;
kernRight = c;
layers = (
{
layerId = UUID0;
shapes = (
{
closed = 1;
nodes = (
(291,-196,ls),
(336,-196,o),
(371,-170,o),
(371,-123,cs),
(371,-75,o),
(336,-50,o),
(291,-50,cs),
(281,-50,l),
(281,-9,l),
(316,-6,o),
(348,2,o),
(375,17,cs),
(404,33,o),
(429,59,o),
(450,95,c),
(430,110,l),
(395,59,o),
(356,30,o),
(285,30,cs),
(185,30,o),
(140,120,o),
(140,235,cs),
(140,350,o),
(185,440,o),
(285,440,cs),
(356,440,o),
(410,400,o),
(415,315,c),
(435,315,l),
(435,390,o),
(435,420,o),
(410,445,cs),
(385,470,o),
(336,480,o),
(265,480,cs),
(116,480,o),
(45,370,o),
(45,235,cs),
(45,109,o),
(105,6,o),
(236,-10,c),
(236,-90,l),
(281,-90,ls),
(308,-90,o),
(321,-101,o),
(321,-123,cs),
(321,-144,o),
(308,-155,o),
(281,-155,cs),
(231,-155,l),
(231,-196,l)
);
}
);
width = 483;
},
{
layerId = "C3EC177B-A859-46F4-B872-3D98CC06F87A";
shapes = (
{
closed = 1;
nodes = (
(296,-188,ls),
(347,-188,o),
(382,-157,o),
(382,-110,cs),
(382,-62,o),
(347,-32,o),
(296,-32,c),
(296,-9,l),
(399,-4,o),
(442,53,o),
(471,95,c),
(440,118,l),
(405,71,o),
(366,35,o),
(297,35,cs),
(214,35,o),
(172,102,o),
(172,235,cs),
(172,371,o),
(221,435,o),
(292,435,cs),
(372,435,o),
(422,390,o),
(427,305,c),
(457,305,l),
(457,381,o),
(457,420,o),
(432,445,cs),
(407,470,o),
(353,480,o),
(277,480,cs),
(117,480,o),
(37,368,o),
(37,235,cs),
(37,112,o),
(104,9,o),
(237,-7,c),
(237,-77,l),
(276,-77,ls),
(301,-77,o),
(316,-91,o),
(316,-110,cs),
(316,-127,o),
(301,-142,o),
(276,-142,cs),
(236,-142,l),
(236,-188,l)
);
}
);
width = 498;
}
);
unicode = 231;
},
{
glyphname = d;
kernLeft = c;
layers = (
{
layerId = UUID0;
shapes = (
{
closed = 1;
nodes = (
(308,-10,o),
(340,20,o),
(362,45,c),
(367,45,l),
(402,0,l),
(452,0,l),
(452,540,l),
(452,640,o),
(432,660,o),
(362,660,cs),
(272,660,l),
(272,640,l),
(292,640,ls),
(352,640,o),
(362,600,o),
(362,540,cs),
(362,450,l),
(331,465,o),
(293,480,o),
(237,480,cs),
(107,480,o),
(47,370,o),
(47,235,cs),
(47,100,o),
(106,-10,o),
(227,-10,cs)
);
},
{
closed = 1;
nodes = (
(177,30,o),
(142,120,o),
(142,235,cs),
(142,350,o),
(177,440,o),
(267,440,cs),
(298,440,o),
(331,425,o),
(362,410,c),
(362,90,l),
(340,60,o),
(318,30,o),
(257,30,cs)
);
}
);
width = 524;
},
{
layerId = "C3EC177B-A859-46F4-B872-3D98CC06F87A";
shapes = (
{
closed = 1;
nodes = (
(287,-10,o),
(315,2,o),
(334,17,cs),
(345,25,o),
(355,34,o),
(362,45,c),
(367,45,l),
(402,0,l),
(487,0,l),
(487,530,ls),
(487,629,o),
(467,660,o),
(397,660,cs),
(277,660,l),
(277,630,l),
(287,630,ls),
(347,630,o),
(357,590,o),
(357,530,cs),
(357,450,l),
(349,455,o),
(340,460,o),
(329,465,cs),
(310,472,o),
(284,480,o),
(252,480,cs),
(107,480,o),
(37,372,o),
(37,235,cs),
(37,98,o),
(107,-10,o),
(247,-10,cs)
);
},
{
closed = 1;
nodes = (
(197,35,o),
(172,120,o),
(172,235,cs),
(172,350,o),
(197,435,o),
(272,435,cs),
(297,435,o),
(318,427,o),
(333,420,cs),
(342,415,o),
(350,410,o),
(357,405,c),
(357,100,l),
(350,87,o),
(343,76,o),
(334,67,cs),
(319,51,o),
(298,35,o),
(267,35,cs)
);
}
);
width = 547;
}
);
unicode = 100;
},
{
glyphname = eth;
kernLeft = c;
layers = (
{
layerId = UUID0;
shapes = (
{
closed = 1;
nodes = (
(404,-10,o),
(484,100,o),
(484,270,cs),
(484,421,o),
(440,534,o),
(369,605,c),
(404,640,l),
(374,670,l),
(339,630,l),
(304,655,o),
(264,670,o),
(224,670,cs),
(189,670,o),
(159,667,o),
(132,648,c),
(140,629,l),
(148,632,o),
(168,635,o),
(184,635,cs),
(235,635,o),
(263,621,o),
(294,590,c),
(254,550,l),
(284,520,l),
(324,560,l),
(359,520,o),
(379,471,o),
(394,400,c),
(369,451,o),
(320,480,o),
(264,480,cs),
(124,480,o),
(44,370,o),
(44,235,cs),
(44,100,o),
(124,-10,o),
(264,-10,cs)
);
},
{
closed = 1;
nodes = (
(189,30,o),
(139,120,o),
(139,235,cs),
(139,350,o),
(189,440,o),
(264,440,cs),
(339,440,o),
(389,350,o),
(389,235,cs),
(389,120,o),
(339,30,o),
(264,30,cs)
);
}
);
width = 537;
},
{
layerId = "C3EC177B-A859-46F4-B872-3D98CC06F87A";
shapes = (
{
closed = 1;
nodes = (
(436,-10,o),
(516,100,o),
(516,270,cs),
(516,418,o),
(460,533,o),
(385,600,c),
(427,642,l),
(387,680,l),
(344,634,l),
(311,657,o),
(273,670,o),
(216,670,cs),
(191,670,o),
(153,663,o),
(129,648,c),
(143,616,l),
(147,617,o),
(152,619,o),
(158,620,cs),
(167,623,o),
(181,625,o),
(196,625,cs),
(233,625,o),
(272,622,o),
(300,595,c),
(253,548,l),
(293,508,l),
(340,555,l),
(372,516,o),
(391,468,o),
(406,400,c),
(381,451,o),
(331,480,o),
(266,480,cs),
(117,480,o),
(36,370,o),
(36,235,cs),
(36,100,o),
(116,-10,o),
(276,-10,cs)
);
},
{
closed = 1;
nodes = (
(220,35,o),
(171,100,o),
(171,235,cs),
(171,330,o),
(201,435,o),
(276,435,cs),
(351,435,o),
(381,330,o),
(381,235,cs),
(381,100,o),
(332,35,o),
(276,35,cs)
);
}
);
width = 557;
}
);
unicode = 240;
},
{
glyphname = e;
kernLeft = c;
kernRight = e;
layers = (
{
layerId = UUID0;
shapes = (
{
closed = 1;
nodes = (
(331,-10,o),
(390,19,o),
(435,95,c),
(415,110,l),
(380,59,o),
(340,30,o),
(275,30,cs),
(190,30,o),
(140,110,o),
(140,220,c),
(443,220,l),
(445,260,l),
(445,401,o),
(381,480,o),
(245,480,cs),
(120,480,o),
(45,370,o),
(45,235,cs),
(45,100,o),
(115,-10,o),
(255,-10,cs)
);
},
{
closed = 1;
nodes = (
(140,364,o),
(185,440,o),
(245,440,cs),
(316,440,o),
(350,376,o),
(350,260,c),
(140,260,l)
);
}
);
width = 488;
},
{
layerId = "C3EC177B-A859-46F4-B872-3D98CC06F87A";
shapes = (
{
closed = 1;
nodes = (
(376,-10,o),
(427,50,o),
(456,95,c),
(425,118,l),
(390,71,o),
(351,35,o),
(282,35,cs),
(217,35,o),
(172,85,o),
(172,217,c),
(473,217,l),
(475,237,ls),
(476,249,o),
(477,265,o),
(477,280,cs),
(477,400,o),
(381,480,o),
(257,480,cs),
(133,480,o),
(37,395,o),
(37,235,cs),
(37,95,o),
(126,-10,o),
(267,-10,cs)
);
},
{
closed = 1;
nodes = (
(172,394,o),
(212,435,o),
(257,435,cs),
(307,435,o),
(342,394,o),
(342,262,c),
(172,262,l)
);
}
);
width = 509;
}
);
unicode = 101;
},
{
glyphname = f;
layers = (
{
layerId = UUID0;
shapes = (
{
closed = 1;
nodes = (
(181,0,l),
(181,430,l),
(321,430,l),
(321,470,l),
(181,470,l),
(181,500,ls),
(181,599,o),
(216,630,o),
(261,630,cs),
(304,630,o),
(336,615,o),
(356,585,c),
(386,610,l),
(375,630,o),
(366,644,o),
(351,655,cs),
(336,665,o),
(307,670,o),
(266,670,cs),
(181,670,o),
(91,640,o),
(91,500,cs),
(91,470,l),
(21,470,l),
(21,430,l),
(91,430,l),
(91,0,l)
);
}
);
width = 337;
},
{
layerId = "C3EC177B-A859-46F4-B872-3D98CC06F87A";
shapes = (
{
closed = 1;
nodes = (
(202,0,l),
(202,425,l),
(332,425,l),
(332,470,l),
(202,470,l),
(202,497,ls),
(202,594,o),
(227,625,o),
(272,625,cs),
(307,625,o),
(337,606,o),
(357,575,c),
(397,610,l),
(388,629,o),
(375,643,o),
(358,653,cs),
(341,664,o),
(302,670,o),
(267,670,cs),
(136,670,o),
(72,610,o),
(72,497,cs),
(72,470,l),
(12,470,l),
(12,425,l),
(72,425,l),
(72,0,l)
);
}
);
width = 342;
}
);
unicode = 102;
},
{
glyphname = g;
kernLeft = g;
kernRight = g;
layers = (
{
layerId = UUID0;
shapes = (
{
closed = 1;
nodes = (
(370,-200,o),
(466,-160,o),
(466,-45,cs),
(466,64,o),
(366,110,o),
(246,110,cs),
(176,110,o),
(141,122,o),
(141,145,cs),
(141,168,o),
(176,180,o),
(246,180,cs),
(351,180,o),
(436,215,o),
(436,330,cs),
(436,381,o),
(406,420,o),
(366,440,c),
(366,445,l),
(431,455,l),
(431,480,l),
(246,480,ls),
(141,480,o),
(56,445,o),
(56,330,cs),
(56,265,o),
(91,220,o),
(131,200,c),
(116,189,o),
(96,176,o),
(96,145,cs),
(96,114,o),
(116,96,o),
(136,85,c),
(76,65,o),
(26,20,o),
(26,-45,cs),
(26,-160,o),
(122,-200,o),
(246,-200,cs)
);
},
{
closed = 1;
nodes = (
(170,-160,o),
(116,-125,o),
(116,-45,cs),
(116,20,o),
(150,55,o),
(201,75,c),
(256,70,l),
(336,60,o),
(376,22,o),
(376,-45,cs),
(376,-125,o),
(322,-160,o),
(246,-160,cs)
);
},
{
closed = 1;
nodes = (
(191,215,o),
(146,245,o),
(146,330,cs),
(146,415,o),
(191,445,o),
(246,445,cs),
(302,445,o),
(346,410,o),
(346,330,cs),
(346,245,o),
(301,215,o),
(246,215,cs)
);
}
);
width = 492;
},
{
layerId = "C3EC177B-A859-46F4-B872-3D98CC06F87A";
shapes = (
{
closed = 1;
nodes = (
(399,-200,o),
(504,-161,o),
(504,-45,cs),
(504,60,o),
(394,110,o),
(259,113,cs),
(199,114,o),
(159,117,o),
(159,140,cs),
(159,167,o),
(199,170,o),
(259,170,cs),
(389,170,o),
(474,209,o),
(474,324,cs),
(474,371,o),
(435,420,o),
(379,441,c),
(469,453,l),
(469,480,l),
(259,480,ls),
(139,480,o),
(44,440,o),
(44,324,cs),
(44,263,o),
(88,210,o),
(144,190,c),
(117,179,o),
(104,163,o),
(104,140,cs),
(104,109,o),
(124,93,o),
(149,85,c),
(85,69,o),
(14,27,o),
(14,-45,cs),
(14,-161,o),
(119,-200,o),
(259,-200,cs)
);
},
{
closed = 1;
nodes = (
(192,-155,o),
(149,-121,o),
(149,-45,cs),
(149,19,o),
(176,53,o),
(220,72,c),
(267,67,l),
(328,55,o),
(369,15,o),
(369,-45,cs),
(369,-121,o),
(326,-155,o),
(259,-155,cs)
);
},
{
closed = 1;
nodes = (
(212,210,o),
(179,241,o),
(179,324,cs),
(179,405,o),
(212,440,o),
(259,440,cs),
(306,440,o),
(339,400,o),
(339,324,cs),
(339,241,o),
(306,210,o),
(259,210,cs)
);
}
);
width = 523;
}
);
unicode = 103;
},
{
glyphname = h;
kernLeft = b;
kernRight = h;
layers = (
{
layerId = UUID0;
shapes = (
{
closed = 1;
nodes = (
(162,0,l),
(162,382,l),
(187,410,o),
(222,435,o),
(262,435,cs),
(317,435,o),
(372,400,o),
(372,300,cs),
(372,0,l),
(462,0,l),
(462,300,ls),
(462,445,o),
(377,480,o),
(292,480,cs),
(232,480,o),
(187,455,o),
(162,430,c),
(162,540,ls),
(162,640,o),
(142,660,o),
(72,660,cs),
(-18,660,l),
(-18,640,l),
(2,640,ls),
(62,640,o),
(72,600,o),
(72,540,cs),
(72,0,l)
);
}
);
width = 529;
},
{
layerId = "C3EC177B-A859-46F4-B872-3D98CC06F87A";
shapes = (
{
closed = 1;
nodes = (
(190,0,l),
(190,395,l),
(197,401,o),
(205,407,o),
(213,412,cs),
(228,421,o),
(247,430,o),
(270,430,cs),
(317,430,o),
(360,395,o),
(360,292,cs),
(360,0,l),
(490,0,l),
(490,297,ls),
(490,444,o),
(391,480,o),
(300,480,cs),
(267,480,o),
(240,470,o),
(221,461,cs),
(210,455,o),
(199,449,o),
(190,442,c),
(190,530,ls),
(190,629,o),
(170,660,o),
(100,660,cs),
(-20,660,l),
(-20,630,l),
(-10,630,ls),
(50,630,o),
(60,590,o),
(60,530,cs),
(60,0,l)
);
}
);
width = 544;
}
);
unicode = 104;
},
{
glyphname = i;
kernLeft = i;
kernRight = i;
layers = (
{
layerId = UUID0;
shapes = (
{
closed = 1;
nodes = (
(177,0,l),
(177,350,l),
(177,450,o),
(157,470,o),
(87,470,cs),
(-3,470,l),
(-3,450,l),
(17,450,ls),
(77,450,o),
(87,410,o),
(87,350,cs),
(87,0,l)
);
},
{
closed = 1;
nodes = (
(153,530,o),
(171,547,o),
(171,575,cs),
(171,610,o),
(146,639,o),
(115,639,cs),
(87,639,o),
(69,622,o),
(69,594,cs),
(69,559,o),
(94,530,o),
(125,530,cs)
);
}
);
width = 246;
},
{
layerId = "C3EC177B-A859-46F4-B872-3D98CC06F87A";
shapes = (
{
closed = 1;
nodes = (
(209,0,l),
(209,340,ls),
(209,439,o),
(189,470,o),
(119,470,cs),
(-1,470,l),
(-1,440,l),
(9,440,ls),
(69,440,o),
(79,400,o),
(79,340,cs),
(79,0,l)
);
},
{
closed = 1;
nodes = (
(175,524,o),
(199,545,o),
(199,580,cs),
(199,620,o),
(175,656,o),
(124,656,cs),
(93,656,o),
(69,635,o),
(69,600,cs),
(69,560,o),
(93,524,o),
(144,524,cs)
);
}
);
width = 267;
}
);
unicode = 105;
},
{
glyphname = idotless;
kernLeft = i;
kernRight = i;
layers = (
{
layerId = UUID0;
shapes = (
{
closed = 1;
nodes = (
(177,0,l),
(177,350,ls),
(177,450,o),
(157,470,o),
(87,470,cs),
(-3,470,l),
(-3,450,l),
(17,450,ls),
(77,450,o),
(87,410,o),
(87,350,cs),
(87,0,l)
);
}
);
width = 246;
},
{
layerId = "C3EC177B-A859-46F4-B872-3D98CC06F87A";
shapes = (
{
closed = 1;
nodes = (
(209,0,l),
(209,340,ls),
(209,439,o),
(189,470,o),
(119,470,cs),
(-1,470,l),
(-1,440,l),
(9,440,ls),
(69,440,o),
(79,400,o),
(79,340,cs),
(79,0,l)
);
}
);
width = 267;
}
);
unicode = 305;
},
{
glyphname = j;
kernLeft = i;
kernRight = i;
layers = (
{
layerId = UUID0;
shapes = (
{
closed = 1;
nodes = (
(137,-190,o),
(177,-125,o),
(177,25,cs),
(177,350,ls),
(177,450,o),
(157,470,o),
(87,470,cs),
(-3,470,l),
(-3,450,l),
(17,450,ls),
(77,450,o),
(87,410,o),
(87,350,cs),
(87,25,l),
(87,-96,o),
(57,-170,o),
(-8,-170,c),
(-8,-190,l)
);
},
{
closed = 1;
nodes = (
(153,530,o),
(171,547,o),
(171,575,cs),
(171,610,o),
(146,639,o),
(115,639,cs),
(87,639,o),
(69,622,o),
(69,594,cs),
(69,559,o),
(94,530,o),
(125,530,cs)
);
}
);
width = 246;
},
{
layerId = "C3EC177B-A859-46F4-B872-3D98CC06F87A";
shapes = (
{
closed = 1;
nodes = (
(155,-190,o),
(209,-140,o),
(209,25,cs),
(209,340,ls),
(209,439,o),
(189,470,o),
(119,470,cs),
(-1,470,l),
(-1,440,l),
(9,440,ls),
(69,440,o),
(79,400,o),
(79,340,cs),
(79,25,l),
(79,-111,o),
(51,-154,o),
(-9,-165,c),
(-9,-190,l)
);
},
{
closed = 1;
nodes = (
(175,524,o),
(199,545,o),
(199,580,cs),
(199,620,o),
(175,656,o),
(124,656,cs),
(93,656,o),
(69,635,o),
(69,600,cs),
(69,560,o),
(93,524,o),
(144,524,cs)
);
}
);
width = 267;
}
);
unicode = 106;
},
{
glyphname = k;
kernLeft = b;
layers = (
{
layerId = UUID0;
shapes = (
{
closed = 1;
nodes = (
(447,-10,o),
(466,-5,o),
(477,0,c),
(477,19,l),
(437,26,o),
(406,49,o),
(367,100,cs),
(242,260,l),
(352,400,ls),
(377,431,o),
(412,445,o),
(447,445,c),
(447,470,l),
(417,470,ls),
(352,470,o),
(318,444,o),
(287,405,cs),
(162,245,l),
(162,540,ls),
(162,640,o),
(142,660,o),
(72,660,cs),
(-18,660,l),
(-18,640,l),
(2,640,ls),
(62,640,o),
(72,600,o),
(72,540,cs),
(72,0,l),
(162,0,l),
(162,230,l),
(282,70,ls),
(327,10,o),
(376,-10,o),
(427,-10,cs)
);
}
);
width = 485;
},
{
layerId = "C3EC177B-A859-46F4-B872-3D98CC06F87A";
shapes = (
{
closed = 1;
nodes = (
(460,-10,o),
(493,-5,o),
(504,0,c),
(504,24,l),
(476,31,o),
(446,53,o),
(411,100,cs),
(278,276,l),
(375,394,ls),
(404,429,o),
(435,444,o),
(475,444,c),
(475,470,l),
(455,470,ls),
(384,470,o),
(352,442,o),
(311,393,cs),
(190,245,l),
(190,530,ls),
(190,629,o),
(170,660,o),
(100,660,cs),
(-20,660,l),
(-20,630,l),
(-10,630,ls),
(50,630,o),
(60,590,o),
(60,530,cs),
(60,0,l),
(190,0,l),
(190,196,l),
(286,70,l),
(330,10,o),
(379,-10,o),
(435,-10,cs)
);
}
);
width = 505;
}
);
unicode = 107;
},
{
glyphname = l;
layers = (
{
layerId = UUID0;
shapes = (
{
closed = 1;
nodes = (
(166,0,l),
(166,540,ls),
(166,640,o),
(146,660,o),
(76,660,cs),
(-14,660,l),
(-14,640,l),
(6,640,ls),
(66,640,o),
(76,600,o),
(76,540,cs),
(76,0,l)
);
}
);
width = 242;
},
{
layerId = "C3EC177B-A859-46F4-B872-3D98CC06F87A";
shapes = (
{
closed = 1;
nodes = (
(194,0,l),
(194,530,ls),
(194,629,o),
(174,660,o),
(104,660,cs),
(-16,660,l),
(-16,630,l),
(-6,630,ls),
(54,630,o),
(64,590,o),
(64,530,cs),
(64,0,l)
);
}
);
width = 258;
}
);
unicode = 108;
},
{
glyphname = m;
kernLeft = m;
kernRight = h;
layers = (
{
layerId = UUID0;
shapes = (
{
closed = 1;
nodes = (
(177,0,l),
(177,382,l),
(202,410,o),
(237,435,o),
(277,435,cs),
(328,435,o),
(357,400,o),
(357,300,cs),
(357,0,l),
(447,0,l),
(447,300,ls),
(447,320,o),
(447,355,o),
(442,370,c),
(461,400,o),
(508,435,o),
(547,435,cs),
(598,435,o),
(627,400,o),
(627,300,cs),
(627,0,l),
(717,0,l),
(717,300,ls),
(717,445,o),
(652,480,o),
(577,480,cs),
(521,480,o),
(462,455,o),
(427,410,c),
(402,466,o),
(358,480,o),
(307,480,cs),
(247,480,o),
(202,455,o),
(177,430,c),
(172,430,l),
(161,455,o),
(138,470,o),
(87,470,cs),
(-3,470,l),
(-3,450,l),
(17,450,ls),
(77,450,o),
(87,410,o),
(87,350,cs),
(87,0,l)
);
}
);
width = 785;
},
{
layerId = "C3EC177B-A859-46F4-B872-3D98CC06F87A";
shapes = (
{
closed = 1;
nodes = (
(210,0,l),
(210,337,ls),
(210,353,o),
(209,367,o),
(206,376,c),
(203,390,l),
(216,407,o),
(249,430,o),
(280,430,cs),
(325,430,o),
(360,394,o),
(360,297,cs),
(360,0,l),
(490,0,l),
(490,296,ls),
(490,331,o),
(486,355,o),
(482,370,cs),
(479,379,o),
(477,386,o),
(474,392,c),
(491,413,o),
(523,430,o),
(560,430,cs),
(605,430,o),
(640,394,o),
(640,297,cs),
(640,0,l),
(770,0,l),
(770,296,ls),
(770,425,o),
(706,480,o),
(595,480,cs),
(518,480,o),
(480,452,o),
(453,423,c),
(438,441,o),
(390,480,o),
(315,480,cs),
(255,480,o),
(213,453,o),
(189,432,c),
(185,432,l),
(170,460,o),
(140,470,o),
(100,470,cs),
(1,470,l),
(1,440,l),
(11,440,ls),
(71,440,o),
(80,400,o),
(80,340,cs),
(80,0,l)
);
}
);
width = 826;
}
);
unicode = 109;
},
{
glyphname = n;
kernLeft = m;
kernRight = h;
layers = (
{
layerId = UUID0;
shapes = (
{
closed = 1;
nodes = (
(177,0,l),
(177,382,l),
(202,410,o),
(237,435,o),
(277,435,cs),
(332,435,o),
(387,400,o),
(387,300,cs),
(387,0,l),
(477,0,l),
(477,300,ls),
(477,445,o),
(392,480,o),
(307,480,cs),
(247,480,o),
(202,455,o),
(177,430,c),
(172,430,l),
(161,455,o),
(138,470,o),
(87,470,cs),
(-3,470,l),
(-3,450,l),
(17,450,ls),
(77,450,o),
(87,410,o),
(87,350,cs),
(87,0,l)
);
}
);
width = 544;
},
{
layerId = "C3EC177B-A859-46F4-B872-3D98CC06F87A";
shapes = (
{
closed = 1;
nodes = (
(210,0,l),
(210,346,ls),
(210,362,o),
(209,376,o),
(206,385,c),
(203,399,l),
(220,416,o),
(252,430,o),
(295,430,cs),
(350,430,o),
(390,394,o),
(390,297,cs),
(390,0,l),
(520,0,l),
(520,296,ls),
(520,425,o),
(455,480,o),
(330,480,cs),
(248,480,o),
(208,455,o),
(184,433,c),
(169,460,o),
(145,470,o),
(100,470,cs),
(1,470,l),
(1,440,l),
(11,440,ls),
(71,440,o),
(80,400,o),
(80,340,cs),
(80,0,l)
);
}
);
width = 575;
}
);
unicode = 110;
},
{
glyphname = o;
kernLeft = c;
kernRight = b;
layers = (
{
anchors = (
{
name = bottom;
pos = (265,0);
},
{
name = center;
pos = (265,235);
},
{
name = ogonek;
pos = (357,10);
},
{
name = top;
pos = (265,470);
},
{
name = topright;
pos = (406,470);
}
);
layerId = UUID0;
shapes = (
{
closed = 1;
nodes = (
(405,-10,o),
(485,100,o),
(485,235,cs),
(485,370,o),
(405,480,o),
(265,480,cs),
(125,480,o),
(45,370,o),
(45,235,cs),
(45,100,o),
(125,-10,o),
(265,-10,cs)
);
},
{
closed = 1;
nodes = (
(190,30,o),
(140,120,o),
(140,235,cs),
(140,350,o),
(190,440,o),
(265,440,cs),
(340,440,o),
(390,350,o),
(390,235,cs),
(390,120,o),
(340,30,o),
(265,30,cs)
);
}
);
width = 530;
},
{
anchors = (
{
name = bottom;
pos = (276,0);
},
{
name = center;
pos = (276,235);
},
{
name = ogonek;
pos = (377,10);
},
{
name = top;
pos = (276,470);
},
{
name = topright;
pos = (443,470);
}
);
background = {
shapes = (
{
closed = 1;
nodes = (
(255,35,o),
(210,85,o),
(210,217,c),
(511,217,l),
(513,237,ls),
(514,249,o),
(515,265,o),
(515,280,cs),
(515,400,o),
(419,480,o),
(295,480,cs),
(171,480,o),
(75,395,o),
(75,235,cs),
(75,95,o),
(164,-10,o),
(305,-10,cs),
(414,-10,o),
(465,50,o),
(494,95,c),
(463,118,l),
(428,71,o),
(389,35,o),
(320,35,cs)
);
},
{
closed = 1;
nodes = (
(210,262,l),
(210,394,o),
(250,435,o),
(295,435,cs),
(345,435,o),
(380,394,o),
(380,262,c)
);
}
);
};
layerId = "C3EC177B-A859-46F4-B872-3D98CC06F87A";
shapes = (
{
closed = 1;
nodes = (
(425,-10,o),
(516,98,o),
(516,235,cs),
(516,372,o),
(425,480,o),
(276,480,cs),
(127,480,o),
(36,372,o),
(36,235,cs),
(36,98,o),
(127,-10,o),
(276,-10,cs)
);
},
{
closed = 1;
nodes = (
(206,35,o),
(171,120,o),
(171,235,cs),
(171,350,o),
(206,435,o),
(276,435,cs),
(346,435,o),
(381,350,o),
(381,235,cs),
(381,120,o),
(346,35,o),
(276,35,cs)
);
}
);
width = 552;
}
);
unicode = 111;
},
{
glyphname = oslash;
kernLeft = c;
kernRight = b;
layers = (
{
layerId = UUID0;
shapes = (
{
closed = 1;
nodes = (
(405,-10,o),
(485,100,o),
(485,235,cs),
(485,304,o),
(463,367,o),
(424,411,c),
(465,470,l),
(392,470,l),
(378,450,l),
(347,469,o),
(309,480,o),
(265,480,cs),
(125,480,o),
(45,370,o),
(45,235,cs),
(45,164,o),
(66,103,o),
(105,58,c),
(65,0,l),
(138,0,l),
(151,20,l),
(183,1,o),
(221,-10,o),
(265,-10,cs)
);
},
{
closed = 1;
nodes = (
(234,30,o),
(208,44,o),
(187,71,c),
(374,339,l),
(385,308,o),
(390,274,o),
(390,235,cs),
(390,120,o),
(340,30,o),
(265,30,cs)
);
},
{
closed = 1;
nodes = (
(145,162,o),
(140,196,o),
(140,235,cs),
(140,350,o),
(190,440,o),
(265,440,cs),
(295,440,o),
(321,426,o),
(343,399,c),
(156,131,l)
);
}
);
width = 530;
},
{
layerId = "C3EC177B-A859-46F4-B872-3D98CC06F87A";
shapes = (
{
closed = 1;
nodes = (
(425,-10,o),
(516,98,o),
(516,235,cs),
(516,304,o),
(494,366,o),
(451,410,c),
(496,470,l),
(404,470,l),
(392,454,l),
(359,470,o),
(320,480,o),
(276,480,cs),
(127,480,o),
(36,372,o),
(36,235,cs),
(36,166,o),
(59,104,o),
(100,60,c),
(56,0,l),
(148,0,l),
(160,16,l),
(193,0,o),
(232,-10,o),
(276,-10,cs)
);
},
{
closed = 1;
nodes = (
(245,35,o),
(222,50,o),
(205,77,c),
(375,307,l),
(379,285,o),
(381,261,o),
(381,235,cs),
(381,120,o),
(346,35,o),
(276,35,cs)
);
},
{
closed = 1;
nodes = (
(172,185,o),
(171,208,o),
(171,235,cs),
(171,350,o),
(206,435,o),
(276,435,cs),
(307,435,o),
(329,419,o),
(346,392,c),
(176,162,l)
);
}
);
width = 552;
}
);
unicode = 248;
},
{
glyphname = oe;
kernLeft = c;
kernRight = e;
layers = (
{
layerId = UUID0;
shapes = (
{
closed = 1;
nodes = (
(330,-10,o),
(380,15,o),
(415,50,c),
(450,15,o),
(500,-10,o),
(565,-10,cs),
(641,-10,o),
(700,19,o),
(745,95,c),
(725,110,l),
(690,59,o),
(650,30,o),
(585,30,cs),
(500,30,o),
(450,110,o),
(450,220,c),
(748,220,l),
(750,260,l),
(750,401,o),
(686,480,o),
(550,480,cs),
(493,480,o),
(448,458,o),
(416,421,c),
(380,460,o),
(330,480,o),
(265,480,cs),
(125,480,o),
(45,370,o),
(45,235,cs),
(45,100,o),
(125,-10,o),
(265,-10,cs)
);
},
{
closed = 1;
nodes = (
(190,30,o),
(140,120,o),
(140,235,cs),
(140,350,o),
(190,440,o),
(265,440,cs),
(316,440,o),
(355,401,o),
(375,345,c),
(364,320,o),
(355,280,o),
(355,235,cs),
(355,190,o),
(364,150,o),
(375,125,c),
(350,65,o),
(316,30,o),
(265,30,cs)
);
},
{
closed = 1;
nodes = (
(450,360,o),
(495,435,o),
(555,435,cs),
(626,435,o),
(660,371,o),
(660,260,c),
(450,260,l)
);
}
);
width = 795;
},
{
layerId = "C3EC177B-A859-46F4-B872-3D98CC06F87A";
shapes = (
{
closed = 1;
nodes = (
(348,-10,o),
(406,15,o),
(447,56,c),
(487,13,o),
(543,-10,o),
(611,-10,cs),
(720,-10,o),
(771,50,o),
(800,95,c),
(769,118,l),
(734,71,o),
(695,35,o),
(626,35,cs),
(561,35,o),
(516,85,o),
(516,217,c),
(817,217,l),
(819,237,ls),
(820,249,o),
(821,265,o),
(821,280,cs),
(821,400,o),
(725,480,o),
(601,480,cs),
(536,480,o),
(484,459,o),
(444,417,c),
(403,456,o),
(347,480,o),
(276,480,cs),
(127,480,o),
(36,372,o),
(36,235,cs),
(36,98,o),
(127,-10,o),
(276,-10,cs)
);
},
{
closed = 1;
nodes = (
(206,35,o),
(171,120,o),
(171,235,cs),
(171,350,o),
(206,435,o),
(276,435,cs),
(346,435,o),
(381,350,o),
(381,235,cs),
(381,120,o),
(346,35,o),
(276,35,cs)
);
},
{
closed = 1;
nodes = (
(516,394,o),
(556,435,o),
(601,435,cs),
(651,435,o),
(686,394,o),
(686,262,c),
(516,262,l)
);
}
);
width = 853;
}
);
unicode = 339;
},
{
glyphname = p;
kernLeft = m;
kernRight = b;
layers = (
{
layerId = UUID0;
shapes = (
{
closed = 1;
nodes = (
(177,-190,l),
(177,20,l),
(208,5,o),
(246,-10,o),
(302,-10,cs),
(432,-10,o),
(492,100,o),
(492,235,cs),
(492,370,o),
(431,480,o),
(312,480,cs),
(237,480,o),
(197,450,o),
(177,425,c),
(172,425,l),
(161,456,o),
(138,470,o),
(87,470,cs),
(-3,470,l),
(-3,450,l),
(17,450,ls),
(77,450,o),
(87,410,o),
(87,350,cs),
(87,-190,l)
);
},
{
closed = 1;
nodes = (
(241,30,o),
(208,45,o),
(177,60,c),
(177,380,l),
(196,410,o),
(227,440,o),
(282,440,cs),
(362,440,o),
(397,350,o),
(397,235,cs),
(397,120,o),
(362,30,o),
(272,30,cs)
);
}
);
width = 538;
},
{
layerId = "C3EC177B-A859-46F4-B872-3D98CC06F87A";
shapes = (
{
closed = 1;
nodes = (
(210,-190,l),
(210,20,l),
(218,14,o),
(227,9,o),
(238,5,cs),
(257,-3,o),
(282,-10,o),
(315,-10,cs),
(460,-10,o),
(530,98,o),
(530,235,cs),
(530,372,o),
(460,480,o),
(320,480,cs),
(250,480,o),
(208,449,o),
(184,428,c),
(169,460,o),
(145,470,o),
(100,470,cs),
(1,470,l),
(1,440,l),
(11,440,ls),
(71,440,o),
(80,400,o),
(80,340,cs),
(80,-190,l)
);
},
{
closed = 1;
nodes = (
(270,35,o),
(249,42,o),
(234,50,cs),
(225,54,o),
(217,59,o),
(210,65,c),
(210,346,ls),
(210,361,o),
(209,371,o),
(206,380,c),
(203,394,l),
(220,411,o),
(249,435,o),
(300,435,cs),
(369,435,o),
(395,350,o),
(395,235,cs),
(395,120,o),
(370,35,o),
(295,35,cs)
);
}
);
width = 567;
}
);
unicode = 112;
},
{
glyphname = thorn;
kernLeft = b;
kernRight = b;
layers = (
{
layerId = UUID0;
shapes = (
{
closed = 1;
nodes = (
(162,-190,l),
(162,20,l),
(193,5,o),
(231,-10,o),
(287,-10,cs),
(417,-10,o),
(477,100,o),
(477,235,cs),
(477,370,o),
(416,480,o),
(297,480,cs),
(222,480,o),
(182,450,o),
(162,425,c),
(162,480,l),
(162,540,ls),
(162,640,o),
(142,660,o),
(72,660,cs),
(-13,660,l),
(-13,640,l),
(2,640,ls),
(62,640,o),
(72,600,o),
(72,540,cs),
(72,-190,l)
);
},
{
closed = 1;
nodes = (
(226,30,o),
(193,45,o),
(162,60,c),
(162,380,l),
(181,410,o),
(212,440,o),
(267,440,cs),
(347,440,o),
(382,350,o),
(382,235,cs),
(382,120,o),
(347,30,o),
(257,30,cs)
);
}
);
width = 523;
},
{
layerId = "C3EC177B-A859-46F4-B872-3D98CC06F87A";
shapes = (
{
closed = 1;
nodes = (
(190,-190,l),
(190,10,l),
(217,-1,o),
(251,-10,o),
(294,-10,cs),
(439,-10,o),
(504,90,o),
(504,235,cs),
(504,380,o),
(439,480,o),
(304,480,cs),
(248,480,o),
(213,464,o),
(190,445,c),
(190,530,ls),
(190,629,o),
(170,660,o),
(100,660,cs),
(-20,660,l),
(-20,630,l),
(-10,630,ls),
(50,630,o),
(60,590,o),
(60,530,cs),
(60,-190,l)
);
},
{
closed = 1;
nodes = (
(239,35,o),
(214,41,o),
(190,50,c),
(190,405,l),
(209,422,o),
(234,435,o),
(269,435,cs),
(329,435,o),
(369,360,o),
(369,235,cs),
(369,110,o),
(330,35,o),
(259,35,cs)
);
}
);
width = 542;
}
);
unicode = 254;
},
{
glyphname = q;
kernLeft = c;
kernRight = q;
layers = (
{
layerId = UUID0;
shapes = (
{
closed = 1;
nodes = (
(452,-190,l),
(452,470,l),
(402,470,l),
(367,425,l),
(362,425,l),
(342,450,o),
(302,480,o),
(227,480,cs),
(106,480,o),
(47,370,o),
(47,235,cs),
(47,100,o),
(107,-10,o),
(237,-10,cs),
(293,-10,o),
(331,5,o),
(362,20,c),
(362,-190,l)
);
},
{
closed = 1;
nodes = (
(177,30,o),
(142,120,o),
(142,235,cs),
(142,350,o),
(177,440,o),
(257,440,cs),
(313,440,o),
(340,410,o),
(362,380,c),
(362,60,l),
(331,45,o),
(298,30,o),
(267,30,cs)
);
}
);
width = 524;
},
{
layerId = "C3EC177B-A859-46F4-B872-3D98CC06F87A";
shapes = (
{
closed = 1;
nodes = (
(487,-190,l),
(487,470,l),
(402,470,l),
(367,425,l),
(362,425,l),
(355,435,o),
(345,444,o),
(334,452,cs),
(315,467,o),
(287,480,o),
(247,480,cs),
(107,480,o),
(37,372,o),
(37,235,cs),
(37,98,o),
(107,-10,o),
(252,-10,cs),
(284,-10,o),
(310,-3,o),
(329,5,cs),
(340,9,o),
(349,14,o),
(357,20,c),
(357,-190,l)
);
},
{
closed = 1;
nodes = (
(197,35,o),
(172,120,o),
(172,235,cs),
(172,350,o),
(197,435,o),
(267,435,cs),
(298,435,o),
(319,418,o),
(334,402,cs),
(343,393,o),
(350,382,o),
(357,370,c),
(357,65,l),
(350,59,o),
(342,54,o),
(333,50,cs),
(318,42,o),
(297,35,o),
(272,35,cs)
);
}
);
width = 547;
}
);
unicode = 113;
},
{
glyphname = r;
kernLeft = m;
layers = (
{
layerId = UUID0;
shapes = (
{
closed = 1;
nodes = (
(170,0,l),
(170,370,l),
(190,401,o),
(225,420,o),
(265,420,cs),
(300,420,o),
(330,410,o),
(345,390,c),
(385,420,l),
(374,440,o),
(365,454,o),
(350,465,cs),
(335,476,o),
(310,480,o),
(290,480,cs),
(230,480,o),
(190,450,o),
(170,425,c),
(165,425,l),
(154,456,o),
(131,470,o),
(80,470,cs),
(0,470,l),
(0,450,l),
(10,450,ls),
(70,450,o),
(80,410,o),
(80,350,cs),
(80,0,l)
);
}
);
width = 397;
},
{
layerId = "C3EC177B-A859-46F4-B872-3D98CC06F87A";
shapes = (
{
closed = 1;
nodes = (
(210,0,l),
(210,336,ls),
(210,348,o),
(209,360,o),
(208,369,cs),
(206,384,l),
(223,401,o),
(252,415,o),
(295,415,cs),
(318,415,o),
(334,406,o),
(346,395,cs),
(353,389,o),
(359,383,o),
(364,376,c),
(415,415,l),
(415,414,o),
(404,444,o),
(381,460,cs),
(363,473,o),
(339,480,o),
(310,480,cs),
(250,480,o),
(208,454,o),
(184,433,c),
(169,460,o),
(145,470,o),
(100,470,cs),
(1,470,l),
(1,440,l),
(11,440,ls),
(71,440,o),
(80,400,o),
(80,340,cs),
(80,0,l)
);
}
);
width = 418;
}
);
unicode = 114;
},
{
glyphname = s;
kernLeft = s;
kernRight = s;
layers = (
{
layerId = UUID0;
shapes = (
{
closed = 1;
nodes = (
(329,-10,o),
(404,36,o),
(404,120,cs),
(404,189,o),
(359,225,o),
(274,260,cs),
(214,285,ls),
(163,306,o),
(134,335,o),
(134,370,cs),
(134,410,o),
(169,440,o),
(234,440,cs),
(314,440,o),
(358,400,o),
(369,335,c),
(389,335,l),
(389,386,o),
(389,415,o),
(364,440,cs),
(339,465,o),
(290,480,o),
(214,480,cs),
(119,480,o),
(49,434,o),
(49,350,cs),
(49,285,o),
(93,246,o),
(169,215,cs),
(229,190,ls),
(289,165,o),
(319,140,o),
(319,100,cs),
(319,60,o),
(285,30,o),
(209,30,cs),
(124,30,o),
(80,70,o),
(69,135,c),
(49,135,l),
(49,84,o),
(49,55,o),
(74,30,cs),
(99,5,o),
(149,-10,o),
(229,-10,cs)
);
}
);
width = 446;
},
{
layerId = "C3EC177B-A859-46F4-B872-3D98CC06F87A";
shapes = (
{
closed = 1;
nodes = (
(348,-10,o),
(434,36,o),
(434,123,cs),
(434,194,o),
(387,229,o),
(295,268,cs),
(235,293,ls),
(191,312,o),
(164,331,o),
(164,367,cs),
(164,406,o),
(189,435,o),
(249,435,cs),
(329,435,o),
(368,384,o),
(379,320,c),
(414,320,l),
(414,371,o),
(414,416,o),
(390,439,cs),
(363,464,o),
(312,480,o),
(229,480,cs),
(119,480,o),
(39,434,o),
(39,347,cs),
(39,282,o),
(87,241,o),
(167,206,cs),
(219,184,l),
(270,161,o),
(309,142,o),
(309,103,cs),
(309,64,o),
(284,35,o),
(209,35,cs),
(129,35,o),
(90,86,o),
(79,150,c),
(44,150,l),
(44,99,o),
(44,54,o),
(68,31,cs),
(95,6,o),
(146,-10,o),
(229,-10,cs)
);
}
);
width = 468;
}
);
unicode = 115;
},
{
glyphname = scedilla;
kernLeft = s;
kernRight = s;
layers = (
{
layerId = UUID0;
shapes = (
{
closed = 1;
nodes = (
(247,-176,ls),
(292,-176,o),
(327,-150,o),
(327,-103,cs),
(327,-55,o),
(292,-30,o),
(247,-30,cs),
(237,-30,l),
(237,-10,l),
(332,-7,o),
(405,36,o),
(405,120,cs),
(405,189,o),
(360,225,o),
(275,260,cs),
(215,285,ls),
(164,306,o),
(135,335,o),
(135,370,cs),
(135,410,o),
(170,440,o),
(235,440,cs),
(315,440,o),
(359,400,o),
(370,335,c),
(390,335,l),
(390,386,o),
(390,415,o),
(365,440,cs),
(340,465,o),
(291,480,o),
(215,480,cs),
(120,480,o),
(50,434,o),
(50,350,cs),
(50,285,o),
(94,246,o),
(170,215,cs),
(230,190,ls),
(290,165,o),
(320,140,o),
(320,100,cs),
(320,60,o),
(286,30,o),
(210,30,cs),
(125,30,o),
(81,70,o),
(70,135,c),
(50,135,l),
(50,84,o),
(50,55,o),
(75,30,cs),
(96,8,o),
(135,-5,o),
(192,-9,c),
(192,-70,l),
(237,-70,ls),
(264,-70,o),
(277,-81,o),
(277,-103,cs),
(277,-124,o),
(264,-135,o),
(237,-135,cs),
(187,-135,l),
(187,-176,l)
);
}
);
width = 448;
},
{
layerId = "C3EC177B-A859-46F4-B872-3D98CC06F87A";
shapes = (
{
closed = 1;
nodes = (
(256,-186,ls),
(312,-186,o),
(346,-155,o),
(346,-108,cs),
(346,-60,o),
(312,-30,o),
(256,-30,c),
(256,-9,l),
(360,-2,o),
(434,43,o),
(434,123,cs),
(434,194,o),
(387,229,o),
(295,268,cs),
(235,293,ls),
(191,312,o),
(164,331,o),
(164,367,cs),
(164,406,o),
(189,435,o),
(249,435,cs),
(329,435,o),
(368,384,o),
(379,320,c),
(414,320,l),
(414,371,o),
(414,416,o),
(390,439,cs),
(363,464,o),
(312,480,o),
(229,480,cs),
(119,480,o),
(39,434,o),
(39,347,cs),
(39,282,o),
(87,241,o),
(167,206,cs),
(219,184,l),
(270,161,o),
(309,142,o),
(309,103,cs),
(309,64,o),
(284,35,o),
(209,35,cs),
(129,35,o),
(90,86,o),
(79,150,c),
(44,150,l),
(44,99,o),
(44,54,o),
(68,31,cs),
(91,10,o),
(130,-4,o),
(191,-8,c),
(191,-75,l),
(236,-75,ls),
(261,-75,o),
(276,-89,o),
(276,-108,cs),
(276,-125,o),
(261,-140,o),
(236,-140,cs),
(186,-140,l),
(186,-186,l)
);
}
);
width = 468;
}
);
unicode = 351;
},
{
glyphname = germandbls;
layers = (
{
layerId = UUID0;
shapes = (
{
closed = 1;
nodes = (
(467,-10,o),
(527,29,o),
(527,120,cs),
(527,255,o),
(322,260,o),
(322,370,cs),
(322,461,o),
(437,460,o),
(437,570,cs),
(437,630,o),
(378,670,o),
(267,670,cs),
(162,670,o),
(72,640,o),
(72,500,cs),
(72,0,l),
(162,0,l),
(162,500,ls),
(162,600,o),
(197,630,o),
(262,630,cs),
(322,630,o),
(352,601,o),
(352,550,cs),
(352,459,o),
(237,460,o),
(237,350,cs),
(237,215,o),
(442,210,o),
(442,100,cs),
(442,60,o),
(413,30,o),
(362,30,cs),
(302,30,o),
(257,70,o),
(252,110,c),
(232,110,l),
(232,85,o),
(232,55,o),
(257,30,cs),
(282,5,o),
(331,-10,o),
(382,-10,cs)
);
}
);
width = 554;
},
{
layerId = "C3EC177B-A859-46F4-B872-3D98CC06F87A";
shapes = (
{
closed = 1;
nodes = (
(465,-10,o),
(555,29,o),
(555,120,cs),
(555,255,o),
(340,260,o),
(340,370,cs),
(340,439,o),
(465,461,o),
(465,570,cs),
(465,630,o),
(406,670,o),
(275,670,cs),
(150,670,o),
(60,640,o),
(60,500,cs),
(60,0,l),
(190,0,l),
(190,500,ls),
(190,595,o),
(225,625,o),
(270,625,cs),
(310,625,o),
(340,601,o),
(340,550,cs),
(340,459,o),
(235,460,o),
(235,350,cs),
(235,215,o),
(430,210,o),
(430,100,cs),
(430,65,o),
(405,35,o),
(360,35,cs),
(300,35,o),
(265,80,o),
(260,120,c),
(230,120,l),
(230,95,o),
(230,55,o),
(255,30,cs),
(280,5,o),
(329,-10,o),
(380,-10,cs)
);
}
);
width = 573;
}
);
unicode = 223;
},
{
glyphname = t;
layers = (
{
layerId = UUID0;
shapes = (
{
closed = 1;
nodes = (
(281,-10,o),
(315,14,o),
(336,30,c),
(326,50,l),
(306,39,o),
(286,30,o),
(251,30,cs),
(204,30,o),
(181,60,o),
(181,120,cs),
(181,430,l),
(301,430,l),
(301,470,l),
(181,470,l),
(181,620,l),
(141,620,l),
(91,560,l),
(91,470,l),
(21,470,l),
(21,430,l),
(91,430,l),
(91,120,ls),
(91,29,o),
(140,-10,o),
(211,-10,cs)
);
}
);
width = 338;
},
{
layerId = "C3EC177B-A859-46F4-B872-3D98CC06F87A";
shapes = (
{
closed = 1;
nodes = (
(271,-10,o),
(304,1,o),
(325,12,cs),
(337,19,o),
(347,26,o),
(356,34,c),
(342,62,l),
(335,57,o),
(327,52,o),
(319,48,cs),
(304,41,o),
(284,35,o),
(263,35,cs),
(230,35,o),
(211,55,o),
(211,130,cs),
(211,425,l),
(321,425,l),
(321,470,l),
(211,470,l),
(211,620,l),
(131,620,l),
(81,560,l),
(81,470,l),
(21,470,l),
(21,425,l),
(81,425,l),
(81,136,ls),
(81,40,o),
(135,-10,o),
(226,-10,cs)
);
}
);
width = 354;
}
);
unicode = 116;
},
{
glyphname = u;
kernLeft = u;
kernRight = q;
layers = (
{
anchors = (
{
name = bottom;
pos = (268,0);
},
{
name = ogonek;
pos = (482,10);
},
{
name = top;
pos = (268,470);
},
{
name = topright;
pos = (515,470);
}
);
layerId = UUID0;
shapes = (
{
closed = 1;
nodes = (
(303,-10,o),
(348,15,o),
(373,40,c),
(378,40,l),
(413,0,l),
(463,0,l),
(463,470,l),
(373,470,l),
(373,88,l),
(348,60,o),
(313,35,o),
(273,35,cs),
(218,35,o),
(163,70,o),
(163,170,cs),
(163,350,ls),
(163,450,o),
(143,470,o),
(73,470,cs),
(-7,470,l),
(-7,450,l),
(3,450,ls),
(63,450,o),
(73,410,o),
(73,350,cs),
(73,170,ls),
(73,25,o),
(158,-10,o),
(243,-10,cs)
);
}
);
width = 535;
},
{
anchors = (
{
name = bottom;
pos = (283,0);
},
{
name = ogonek;
pos = (509,10);
},
{
name = top;
pos = (283,470);
},
{
name = topright;
pos = (545,470);
}
);
layerId = "C3EC177B-A859-46F4-B872-3D98CC06F87A";
shapes = (
{
closed = 1;
nodes = (
(295,-10,o),
(326,2,o),
(347,17,cs),
(359,25,o),
(370,34,o),
(380,45,c),
(385,45,l),
(420,0,l),
(505,0,l),
(505,470,l),
(375,470,l),
(375,100,l),
(368,87,o),
(361,76,o),
(352,67,cs),
(337,51,o),
(316,35,o),
(285,35,cs),
(230,35,o),
(200,70,o),
(200,173,cs),
(200,340,ls),
(200,439,o),
(180,470,o),
(110,470,cs),
(-10,470,l),
(-10,440,l),
(0,440,ls),
(60,440,o),
(70,400,o),
(70,340,cs),
(70,174,ls),
(70,45,o),
(130,-10,o),
(255,-10,cs)
);
}
);
width = 565;
}
);
unicode = 117;
},
{
glyphname = v;
layers = (
{
layerId = UUID0;
shapes = (
{
closed = 1;
nodes = (
(274,-10,l),
(479,470,l),
(429,470,l),
(289,140,l),
(199,355,l),
(154,459,o),
(90,480,o),
(29,480,cs),
(20,480,o),
(0,478,o),
(-5,478,c),
(-5,458,l),
(43,455,o),
(67,429,o),
(99,355,cs),
(254,-10,l)
);
}
);
width = 497;
},
{
layerId = "C3EC177B-A859-46F4-B872-3D98CC06F87A";
shapes = (
{
closed = 1;
nodes = (
(282,-10,l),
(495,470,l),
(441,470,l),
(305,163,l),
(217,355,ls),
(169,459,o),
(105,480,o),
(25,480,cs),
(16,480,o),
(-7,478,o),
(-12,478,c),
(-12,458,l),
(21,455,o),
(42,428,o),
(77,355,c),
(246,-10,l)
);
}
);
width = 500;
}
);
unicode = 118;
},
{
glyphname = w;
layers = (
{
layerId = UUID0;
shapes = (
{
closed = 1;
nodes = (
(265,-10,l),
(390,300,l),
(515,-10,l),
(535,-10,l),
(730,470,l),
(680,470,l),
(550,145,l),
(465,355,ls),
(425,455,o),
(365,480,o),
(300,480,cs),
(291,480,o),
(270,478,o),
(265,478,c),
(265,458,l),
(310,455,o),
(334,429,o),
(365,360,c),
(280,145,l),
(195,355,ls),
(155,455,o),
(95,480,o),
(30,480,cs),
(21,480,o),
(0,478,o),
(-5,478,c),
(-5,458,l),
(44,455,o),
(69,430,o),
(100,355,c),
(245,-10,l)
);
}
);
width = 749;
},
{
layerId = "C3EC177B-A859-46F4-B872-3D98CC06F87A";
shapes = (
{
closed = 1;
nodes = (
(287,-10,l),
(403,271,l),
(533,-10,l),
(579,-10,l),
(763,470,l),
(710,470,l),
(588,154,l),
(496,355,ls),
(451,453,o),
(389,480,o),
(304,480,cs),
(295,480,o),
(271,478,o),
(266,478,c),
(266,459,l),
(295,456,o),
(321,428,o),
(354,355,cs),
(368,324,l),
(301,164,l),
(216,355,l),
(171,453,o),
(119,480,o),
(34,480,cs),
(25,480,o),
(-9,478,o),
(-14,478,c),
(-14,459,l),
(21,456,o),
(46,430,o),
(79,355,cs),
(242,-10,l)
);
}
);
width = 775;
}
);
unicode = 119;
},
{
glyphname = x;
layers = (
{
layerId = UUID0;
shapes = (
{
closed = 1;
nodes = (
(88,0,l),
(218,185,l),
(280,80,ls),
(309,31,o),
(348,0,o),
(393,0,cs),
(483,0,l),
(483,20,l),
(439,25,o),
(403,51,o),
(375,100,c),
(288,245,l),
(448,470,l),
(398,470,l),
(268,285,l),
(206,390,ls),
(177,439,o),
(138,470,o),
(93,470,cs),
(8,470,l),
(8,450,l),
(49,445,o),
(83,418,o),
(111,370,cs),
(198,225,l),
(38,0,l)
);
}
);
width = 488;
},
{
layerId = "C3EC177B-A859-46F4-B872-3D98CC06F87A";
shapes = (
{
closed = 1;
nodes = (
(90,0,l),
(221,161,l),
(270,80,ls),
(299,31,o),
(333,0,o),
(398,0,cs),
(493,0,l),
(493,20,l),
(462,25,o),
(428,52,o),
(400,100,cs),
(303,262,l),
(472,470,l),
(405,470,l),
(274,309,l),
(226,390,ls),
(197,439,o),
(163,470,o),
(98,470,cs),
(3,470,l),
(3,450,l),
(34,445,o),
(68,418,o),
(96,370,cs),
(192,209,l),
(23,0,l)
);
}
);
width = 496;
}
);
unicode = 120;
},
{
glyphname = y;
kernLeft = y;
kernRight = y;
layers = (
{
layerId = UUID0;
shapes = (
{
closed = 1;
nodes = (
(135,-200,ls),
(205,-200,o),
(250,-175,o),
(290,-65,cs),
(485,470,l),
(435,470,l),
(309,123,l),
(195,400,ls),
(174,451,o),
(135,480,o),
(75,480,cs),
(-10,480,l),
(-10,460,l),
(41,455,o),
(80,431,o),
(100,380,c),
(260,-10,l),
(240,-65,ls),
(208,-150,o),
(166,-170,o),
(105,-170,c),
(105,-200,l)
);
}
);
width = 514;
},
{
layerId = "C3EC177B-A859-46F4-B872-3D98CC06F87A";
shapes = (
{
closed = 1;
nodes = (
(132,-200,ls),
(201,-200,o),
(250,-174,o),
(290,-65,c),
(492,470,l),
(439,470,l),
(317,148,l),
(202,400,ls),
(179,449,o),
(132,480,o),
(72,480,cs),
(-16,480,l),
(-16,460,l),
(24,455,o),
(55,429,o),
(77,380,cs),
(257,-14,l),
(236,-68,ls),
(207,-144,o),
(161,-165,o),
(92,-165,c),
(92,-200,l)
);
}
);
width = 509;
}
);
unicode = 121;
},
{
glyphname = z;
kernLeft = z;
kernRight = z;
layers = (
{
layerId = UUID0;
shapes = (
{
closed = 1;
nodes = (
(434,0,l),
(434,40,l),
(164,40,l),
(434,470,l),
(129,470,ls),
(60,470,o),
(44,430,o),
(44,390,cs),
(44,340,l),
(64,340,l),
(64,396,o),
(104,430,o),
(189,430,cs),
(304,430,l),
(44,19,l),
(44,0,l)
);
}
);
width = 466;
},
{
layerId = "C3EC177B-A859-46F4-B872-3D98CC06F87A";
shapes = (
{
closed = 1;
nodes = (
(459,0,l),
(459,45,l),
(196,45,l),
(480,470,l),
(124,470,ls),
(55,470,o),
(39,430,o),
(39,390,cs),
(39,330,l),
(69,330,l),
(69,395,o),
(99,425,o),
(184,425,cs),
(302,425,l),
(39,31,l),
(39,0,l)
);
}
);
width = 493;
}
);
unicode = 122;
},
{
glyphname = ordfeminine;
layers = (
{
layerId = UUID0;
shapes = (
{
closed = 1;
nodes = (
(170,396,o),
(194,411,o),
(205,426,c),
(208,426,l),
(227,401,l),
(257,401,l),
(257,547,ls),
(257,644,o),
(208,660,o),
(159,660,cs),
(127,660,o),
(92,656,o),
(79,641,c),
(64,626,o),
(65,612,o),
(65,593,c),
(90,593,l),
(98,628,o),
(118,638,o),
(149,638,cs),
(180,638,o),
(205,623,o),
(205,547,c),
(189,547,ls),
(117,547,o),
(51,526,o),
(51,466,cs),
(51,406,o),
(100,396,o),
(130,396,cs)
);
},
{
closed = 1;
nodes = (
(122,418,o),
(103,431,o),
(103,466,cs),
(103,499,o),
(134,525,o),
(189,525,cs),
(205,525,l),
(205,453,l),
(194,437,o),
(176,418,o),
(149,418,cs)
);
}
);
width = 321;
},
{
layerId = "C3EC177B-A859-46F4-B872-3D98CC06F87A";
shapes = (
{
closed = 1;
nodes = (
(168,396,o),
(188,413,o),
(200,426,c),
(203,426,l),
(222,401,l),
(268,401,l),
(268,547,ls),
(268,644,o),
(219,660,o),
(160,660,cs),
(123,660,o),
(88,656,o),
(75,641,c),
(60,626,o),
(61,602,o),
(61,583,c),
(90,583,l),
(97,615,o),
(113,635,o),
(150,635,cs),
(172,635,o),
(196,623,o),
(196,547,c),
(180,547,ls),
(88,547,o),
(42,517,o),
(42,466,cs),
(42,415,o),
(83,396,o),
(131,396,cs)
);
},
{
closed = 1;
nodes = (
(133,421,o),
(114,431,o),
(114,466,cs),
(114,499,o),
(141,522,o),
(180,522,cs),
(196,522,l),
(196,455,l),
(188,440,o),
(173,421,o),
(150,421,cs)
);
}
);
width = 324;
}
);
unicode = 170;
},
{
glyphname = ordmasculine;
layers = (
{
layerId = UUID0;
shapes = (
{
closed = 1;
nodes = (
(247,367,o),
(283,432,o),
(283,528,cs),
(283,625,o),
(247,689,o),
(167,689,cs),
(87,689,o),
(52,625,o),
(52,528,cs),
(52,432,o),
(87,367,o),
(167,367,cs)
);
},
{
closed = 1;
nodes = (
(127,389,o),
(104,432,o),
(104,528,cs),
(104,625,o),
(127,667,o),
(167,667,cs),
(208,667,o),
(231,625,o),
(231,528,cs),
(231,432,o),
(210,389,o),
(167,389,cs)
);
}
);
width = 335;
},
{
layerId = "C3EC177B-A859-46F4-B872-3D98CC06F87A";
shapes = (
{
closed = 1;
nodes = (
(259,367,o),
(294,442,o),
(294,528,cs),
(294,615,o),
(259,689,o),
(168,689,cs),
(79,689,o),
(43,615,o),
(43,528,cs),
(43,442,o),
(79,367,o),
(168,367,cs)
);
},
{
closed = 1;
nodes = (
(138,392,o),
(115,422,o),
(115,528,cs),
(115,636,o),
(138,664,o),
(168,664,cs),
(199,664,o),
(222,636,o),
(222,528,cs),
(222,422,o),
(200,392,o),
(168,392,cs)
);
}
);
width = 337;
}
);
unicode = 186;
},
{
glyphname = "Be-cy";
kernLeft = H;
kernRight = "Be-cy";
layers = (
{
layerId = UUID0;
shapes = (
{
closed = 1;
nodes = (
(306,0,ls),
(422,0,o),
(571,30,o),
(571,190,cs),
(571,350,o),
(422,380,o),
(306,380,cs),
(196,380,l),
(196,620,l),
(377,620,ls),
(457,620,o),
(502,585,o),
(502,505,c),
(522,505,l),
(522,580,ls),
(522,620,o),
(506,660,o),
(437,660,cs),
(16,660,l),
(16,640,l),
(36,640,ls),
(96,640,o),
(106,600,o),
(106,540,cs),
(106,0,l)
);
},
{
closed = 1;
nodes = (
(260,35,o),
(227,40,o),
(196,49,c),
(196,331,l),
(227,340,o),
(260,345,o),
(291,345,cs),
(402,345,o),
(471,295,o),
(471,190,cs),
(471,85,o),
(402,35,o),
(291,35,cs)
);
}
);
width = 608;
},
{
layerId = "C3EC177B-A859-46F4-B872-3D98CC06F87A";
shapes = (
{
closed = 1;
nodes = (
(315,0,ls),
(459,0,o),
(610,30,o),
(610,190,cs),
(610,350,o),
(459,380,o),
(315,380,cs),
(225,380,l),
(225,615,l),
(384,615,ls),
(464,615,o),
(509,582,o),
(509,495,c),
(539,495,l),
(539,580,ls),
(539,620,o),
(523,660,o),
(454,660,cs),
(15,660,l),
(15,630,l),
(25,630,ls),
(85,630,o),
(95,590,o),
(95,530,cs),
(95,0,l)
);
},
{
closed = 1;
nodes = (
(275,40,o),
(258,42,o),
(245,45,cs),
(238,46,o),
(231,48,o),
(225,50,c),
(225,330,l),
(245,335,ls),
(257,338,o),
(275,340,o),
(295,340,cs),
(300,340,l),
(420,340,o),
(470,295,o),
(470,190,cs),
(470,85,o),
(420,40,o),
(300,40,cs),
(295,40,ls)
);
}
);
width = 635;
}
);
unicode = 1041;
},
{
glyphname = "Ge-cy";
kernLeft = H;
kernRight = "Ge-cy";
layers = (
{
anchors = (
{
name = bottomright;
pos = (106,0);
},
{
name = center;
pos = (179,330);
},
{
name = top;
pos = (309,660);
}
);
layerId = UUID0;
shapes = (
{
closed = 1;
nodes = (
(196,0,l),
(196,620,l),
(371,620,ls),
(451,620,o),
(496,585,o),
(496,505,c),
(516,505,l),
(516,580,ls),
(516,620,o),
(500,660,o),
(431,660,cs),
(16,660,l),
(16,640,l),
(36,640,ls),
(96,640,o),
(106,600,o),
(106,540,cs),
(106,0,l)
);
}
);
width = 537;
},
{
anchors = (
{
name = bottomright;
pos = (95,0);
},
{
name = center;
pos = (191,330);
},
{
name = top;
pos = (312,660);
}
);
layerId = "C3EC177B-A859-46F4-B872-3D98CC06F87A";
shapes = (
{
closed = 1;
nodes = (
(225,0,l),
(225,615,l),
(374,615,ls),
(454,615,o),
(499,582,o),
(499,495,c),
(529,495,l),
(529,580,ls),
(529,620,o),
(513,660,o),
(444,660,cs),
(15,660,l),
(15,630,l),
(25,630,ls),
(85,630,o),
(95,590,o),
(95,530,cs),
(95,0,l)
);
}
);
width = 544;
}
);
unicode = 1043;
},
{
glyphname = "Gje-cy";
kernLeft = H;
kernRight = "Ge-cy";
layers = (
{
layerId = UUID0;
shapes = (
{
closed = 1;
nodes = (
(196,0,l),
(196,620,l),
(371,620,ls),
(451,620,o),
(496,585,o),
(496,505,c),
(516,505,l),
(516,580,ls),
(516,620,o),
(500,660,o),
(431,660,cs),
(16,660,l),
(16,640,l),
(36,640,ls),
(96,640,o),
(106,600,o),
(106,540,cs),
(106,0,l)
);
},
{
closed = 1;
nodes = (
(286,700,l),
(391,815,l),
(306,815,l),
(236,700,l)
);
}
);
width = 537;
},
{
layerId = "C3EC177B-A859-46F4-B872-3D98CC06F87A";
shapes = (
{
alignment = -1;
ref = "Ge-cy";
},
{
alignment = -1;
pos = (209,3);
ref = acute;
}
);
width = 544;
}
);
unicode = 1027;
},
{
glyphname = "Gheupturn-cy";
kernLeft = H;
kernRight = "Ge-cy";
layers = (
{
layerId = UUID0;
shapes = (
{
closed = 1;
nodes = (
(196,0,l),
(196,620,l),
(471,620,ls),
(496,620,o),
(516,640,o),
(516,665,cs),
(516,775,l),
(496,775,l),
(496,695,o),
(451,660,o),
(371,660,cs),
(16,660,l),
(16,640,l),
(36,640,ls),
(96,640,o),
(106,600,o),
(106,540,cs),
(106,0,l)
);
}
);
width = 535;
},
{
layerId = "C3EC177B-A859-46F4-B872-3D98CC06F87A";
shapes = (
{
closed = 1;
nodes = (
(225,0,l),
(225,615,l),
(444,615,ls),
(513,615,o),
(529,655,o),
(529,695,cs),
(529,780,l),
(499,780,l),
(499,693,o),
(454,660,o),
(374,660,cs),
(15,660,l),
(15,630,l),
(25,630,ls),
(85,630,o),
(95,590,o),
(95,530,cs),
(95,0,l)
);
}
);
width = 538;
}
);
unicode = 1168;
},
{
glyphname = "Ghemiddlehook-cy";
kernLeft = H;
kernRight = "Tshe-cy";
layers = (
{
background = {
shapes = (
{
closed = 1;
nodes = (
(465,13,o),
(411,-72,o),
(321,-72,c),
(321,-97,l),
(493,-97,o),
(595,-16,o),
(595,200,cs),
(595,385,o),
(499,430,o),
(375,430,cs),
(314,430,o),
(256,410,o),
(225,390,c),
(225,345,l),
(256,365,o),
(304,380,o),
(355,380,cs),
(410,380,o),
(465,340,o),
(465,200,cs)
);
}
);
};
layerId = UUID0;
shapes = (
{
closed = 1;
nodes = (
(492,-99,o),
(565,23,o),
(565,200,cs),
(565,375,o),
(460,430,o),
(355,430,cs),
(284,430,o),
(226,410,o),
(195,393,c),
(195,353,l),
(239,373,o),
(283,384,o),
(322,384,cs),
(410,384,o),
(475,325,o),
(475,200,cs),
(475,45,o),
(423,-77,o),
(271,-107,c),
(271,-127,l)
);
},
{
ref = "Ge-cy";
}
);
width = 600;
},
{
background = {
shapes = (
{
closed = 1;
nodes = (
(475,45,o),
(423,-77,o),
(271,-107,c),
(271,-127,l),
(492,-99,o),
(565,23,o),
(565,200,cs),
(565,375,o),
(460,430,o),
(355,430,cs),
(284,430,o),
(226,410,o),
(195,393,c),
(195,353,l),
(239,373,o),
(283,384,o),
(322,384,cs),
(410,384,o),
(475,325,o),
(475,200,cs)
);
},
{
ref = "Ge-cy";
}
);
};
layerId = "C3EC177B-A859-46F4-B872-3D98CC06F87A";
shapes = (
{
closed = 1;
nodes = (
(446,-126,o),
(595,-8,o),
(595,200,cs),
(595,355,o),
(499,430,o),
(375,430,cs),
(314,430,o),
(265,413,o),
(225,400,c),
(225,355,l),
(261,373,o),
(295,382,o),
(326,382,cs),
(407,382,o),
(465,320,o),
(465,200,cs),
(465,23,o),
(363,-101,o),
(275,-101,c),
(275,-126,l)
);
},
{
ref = "Ge-cy";
}
);
width = 640;
}
);
unicode = 1172;
},
{
glyphname = "De-cy";
kernLeft = "De-cy";
kernRight = "Tse-cy";
layers = (
{
layerId = UUID0;
shapes = (
{
closed = 1;
nodes = (
(48,-180,l),
(64,-44,o),
(102,0,o),
(173,0,cs),
(498,0,ls),
(569,0,o),
(607,-44,o),
(623,-180,c),
(668,-180,l),
(668,5,ls),
(668,25,o),
(653,40,o),
(633,40,cs),
(578,40,l),
(578,660,l),
(78,660,l),
(78,640,l),
(93,640,ls),
(153,640,o),
(163,600,o),
(163,540,cs),
(163,349,o),
(143,181,o),
(78,40,c),
(38,40,ls),
(18,40,o),
(3,25,o),
(3,5,cs),
(3,-180,l)
);
},
{
closed = 1;
nodes = (
(207,177,o),
(228,349,o),
(228,620,c),
(488,620,l),
(488,40,l),
(148,40,l)
);
}
);
width = 687;
},
{
layerId = "C3EC177B-A859-46F4-B872-3D98CC06F87A";
shapes = (
{
closed = 1;
nodes = (
(49,-184,l),
(65,-40,o),
(102,0,o),
(174,0,cs),
(498,0,ls),
(570,0,o),
(607,-40,o),
(623,-184,c),
(673,-184,l),
(673,10,ls),
(673,30,o),
(658,45,o),
(638,45,cs),
(603,45,l),
(603,660,l),
(74,660,l),
(74,630,l),
(84,630,ls),
(144,630,o),
(154,590,o),
(154,530,cs),
(154,349,o),
(134,186,o),
(69,45,c),
(34,45,l),
(14,45,o),
(-1,30,o),
(-1,10,cs),
(-1,-184,l)
);
},
{
closed = 1;
nodes = (
(232,182,o),
(253,343,o),
(253,615,c),
(473,615,l),
(473,45,l),
(173,45,l)
);
}
);
width = 694;
}
);
unicode = 1044;
},
{
glyphname = "Zhe-cy";
kernLeft = X;
kernRight = K;
layers = (
{
anchors = (
{
name = bottomright;
pos = (929,0);
},
{
name = top;
pos = (475,660);
}
);
layerId = UUID0;
shapes = (
{
closed = 1;
nodes = (
(101,-10,o),
(181,7,o),
(261,110,cs),
(431,330,l),
(431,0,l),
(518,0,l),
(518,330,l),
(688,110,ls),
(768,7,o),
(848,-10,o),
(893,-10,cs),
(924,-10,o),
(943,-5,o),
(958,0,c),
(958,19,l),
(912,24,o),
(846,71,o),
(798,130,c),
(608,370,l),
(763,565,ls),
(808,622,o),
(853,635,o),
(898,635,c),
(898,660,l),
(848,660,ls),
(780,660,o),
(731,611,o),
(688,555,c),
(518,345,l),
(518,660,l),
(431,660,l),
(431,345,l),
(261,555,ls),
(216,611,o),
(171,660,o),
(101,660,cs),
(51,660,l),
(51,635,l),
(96,635,o),
(141,622,o),
(186,565,cs),
(341,370,l),
(151,130,l),
(103,71,o),
(37,24,o),
(-9,19,c),
(-9,0,l),
(6,-5,o),
(25,-10,o),
(56,-10,cs)
);
}
);
width = 949;
},
{
anchors = (
{
name = bottomright;
pos = (969,0);
},
{
name = top;
pos = (495,660);
}
);
layerId = "C3EC177B-A859-46F4-B872-3D98CC06F87A";
shapes = (
{
closed = 1;
nodes = (
(139,-10,o),
(212,10,o),
(298,120,cs),
(429,285,l),
(429,0,l),
(560,0,l),
(560,285,l),
(691,120,ls),
(777,10,o),
(850,-10,o),
(935,-10,cs),
(964,-10,o),
(984,-5,o),
(999,0,c),
(999,24,l),
(959,31,o),
(898,71,o),
(849,130,cs),
(648,370,l),
(787,554,l),
(832,609,o),
(874,625,o),
(960,625,c),
(960,660,l),
(900,660,ls),
(820,660,o),
(766,611,o),
(723,555,cs),
(560,340,l),
(560,660,l),
(429,660,l),
(429,340,l),
(266,555,ls),
(223,611,o),
(169,660,o),
(89,660,cs),
(29,660,l),
(29,625,l),
(115,625,o),
(157,609,o),
(202,554,c),
(341,370,l),
(140,130,ls),
(91,71,o),
(30,31,o),
(-10,24,c),
(-10,0,l),
(5,-5,o),
(25,-10,o),
(54,-10,cs)
);
}
);
width = 989;
}
);
unicode = 1046;
},
{
glyphname = "Ze-cy";
kernLeft = "Ze-cy";
kernRight = B;
layers = (
{
anchors = (
{
name = bottom;
pos = (265,0);
},
{
name = top;
pos = (265,660);
}
);
layerId = UUID0;
shapes = (
{
closed = 1;
nodes = (
(380,-20,o),
(530,15,o),
(530,170,cs),
(530,254,o),
(490,316,o),
(365,340,c),
(461,371,o),
(505,430,o),
(505,495,cs),
(505,655,o),
(365,680,o),
(265,680,cs),
(196,680,o),
(110,653,o),
(75,610,cs),
(50,579,o),
(50,540,o),
(50,480,c),
(70,480,l),
(95,580,o),
(164,640,o),
(260,640,cs),
(335,640,o),
(410,595,o),
(410,500,cs),
(410,405,o),
(330,355,o),
(240,355,cs),
(165,355,l),
(165,315,l),
(240,315,ls),
(365,315,o),
(430,261,o),
(430,165,cs),
(430,73,o),
(360,20,o),
(255,20,cs),
(159,20,o),
(95,60,o),
(50,120,c),
(30,105,l),
(90,10,o),
(170,-20,o),
(270,-20,cs)
);
}
);
width = 570;
},
{
anchors = (
{
name = bottom;
pos = (270,0);
},
{
name = top;
pos = (270,660);
}
);
layerId = "C3EC177B-A859-46F4-B872-3D98CC06F87A";
shapes = (
{
closed = 1;
nodes = (
(400,-20,o),
(549,26,o),
(549,170,cs),
(549,246,o),
(501,329,o),
(370,345,c),
(470,369,o),
(524,441,o),
(524,505,cs),
(524,654,o),
(385,680,o),
(265,680,cs),
(195,680,o),
(109,653,o),
(74,610,cs),
(49,579,o),
(49,530,o),
(49,470,c),
(80,470,l),
(105,570,o),
(169,635,o),
(260,635,cs),
(315,635,o),
(389,596,o),
(389,500,cs),
(389,405,o),
(310,360,o),
(239,360,cs),
(154,360,l),
(154,315,l),
(239,315,ls),
(344,315,o),
(409,261,o),
(409,165,cs),
(409,74,o),
(340,25,o),
(255,25,cs),
(154,25,o),
(94,80,o),
(49,140,c),
(19,115,l),
(79,24,o),
(159,-20,o),
(280,-20,cs)
);
}
);
width = 580;
}
);
unicode = 1047;
},
{
glyphname = "Ii-cy";
kernLeft = H;
kernRight = H;
layers = (
{
anchors = (
{
name = bottomright;
pos = (516,0);
},
{
name = top;
pos = (346,660);
}
);
layerId = UUID0;
shapes = (
{
closed = 1;
nodes = (
(196,0,l),
(516,570,l),
(516,0,l),
(606,0,l),
(606,660,l),
(516,660,l),
(196,90,l),
(196,540,ls),
(196,640,o),
(176,660,o),
(106,660,cs),
(16,660,l),
(16,640,l),
(36,640,ls),
(96,640,o),
(106,600,o),
(106,540,cs),
(106,0,l)
);
}
);
width = 692;
},
{
anchors = (
{
name = bottomright;
pos = (505,0);
},
{
name = top;
pos = (355,660);
}
);
layerId = "C3EC177B-A859-46F4-B872-3D98CC06F87A";
shapes = (
{
closed = 1;
nodes = (
(215,0,l),
(505,530,l),
(505,0,l),
(635,0,l),
(635,660,l),
(515,660,l),
(225,130,l),
(225,530,ls),
(225,629,o),
(205,660,o),
(135,660,cs),
(15,660,l),
(15,630,l),
(25,630,ls),
(85,630,o),
(95,590,o),
(95,530,cs),
(95,0,l)
);
}
);
width = 709;
}
);
unicode = 1048;
},
{
glyphname = "Kje-cy";
kernLeft = H;
kernRight = K;
layers = (
{
layerId = UUID0;
shapes = (
{
closed = 1;
nodes = (
(652,-10,o),
(671,-5,o),
(686,0,c),
(686,19,l),
(634,27,o),
(573,73,o),
(516,130,c),
(286,370,l),
(481,565,ls),
(536,620,o),
(571,635,o),
(626,635,c),
(626,660,l),
(576,660,ls),
(496,660,o),
(456,605,o),
(406,555,cs),
(196,345,l),
(196,540,ls),
(196,640,o),
(176,660,o),
(106,660,cs),
(16,660,l),
(16,640,l),
(36,640,ls),
(96,640,o),
(106,600,o),
(106,540,cs),
(106,0,l),
(196,0,l),
(196,330,l),
(406,110,ls),
(501,10,o),
(566,-10,o),
(621,-10,cs)
);
},
{
closed = 1;
nodes = (
(326,675,l),
(431,790,l),
(346,790,l),
(276,675,l)
);
}
);
width = 677;
},
{
layerId = "C3EC177B-A859-46F4-B872-3D98CC06F87A";
shapes = (
{
alignment = -1;
ref = K;
},
{
alignment = -1;
pos = (267,-24);
ref = acute;
}
);
width = 693;
}
);
unicode = 1036;
},
{
glyphname = "El-cy";
kernLeft = "El-cy";
kernRight = H;
layers = (
{
layerId = UUID0;
shapes = (
{
closed = 1;
nodes = (
(144,-10,o),
(234,85,o),
(234,540,cs),
(234,620,l),
(484,620,l),
(484,0,l),
(574,0,l),
(574,660,l),
(79,660,l),
(79,640,l),
(89,640,ls),
(149,640,o),
(159,600,o),
(159,540,cs),
(159,103,o),
(82,28,o),
(-6,24,c),
(-6,-1,l),
(9,-6,o),
(29,-10,o),
(44,-10,cs)
);
}
);
width = 660;
},
{
layerId = "C3EC177B-A859-46F4-B872-3D98CC06F87A";
shapes = (
{
closed = 1;
nodes = (
(172,-15,o),
(259,105,o),
(259,530,cs),
(259,615,l),
(475,615,l),
(475,0,l),
(605,0,l),
(605,660,l),
(70,660,l),
(70,630,l),
(80,630,ls),
(140,630,o),
(150,590,o),
(150,530,cs),
(150,121,o),
(77,43,o),
(-8,25,c),
(-8,-6,l),
(7,-11,o),
(27,-15,o),
(52,-15,cs)
);
}
);
width = 679;
}
);
unicode = 1051;
},
{
glyphname = "Pe-cy";
kernLeft = H;
kernRight = H;
layers = (
{
anchors = (
{
name = bottomright;
pos = (496,0);
}
);
layerId = UUID0;
shapes = (
{
closed = 1;
nodes = (
(196,0,l),
(196,620,l),
(496,620,l),
(496,0,l),
(586,0,l),
(586,660,l),
(16,660,l),
(16,640,l),
(36,640,ls),
(96,640,o),
(106,600,o),
(106,540,cs),
(106,0,l)
);
}
);
width = 672;
},
{
anchors = (
{
name = bottomright;
pos = (485,0);
}
);
layerId = "C3EC177B-A859-46F4-B872-3D98CC06F87A";
shapes = (
{
closed = 1;
nodes = (
(225,0,l),
(225,615,l),
(485,615,l),
(485,0,l),
(615,0,l),
(615,660,l),
(15,660,l),
(15,630,l),
(25,630,ls),
(85,630,o),
(95,590,o),
(95,530,cs),
(95,0,l)
);
}
);
width = 689;
}
);
unicode = 1055;
},
{
glyphname = "U-cy";
kernLeft = "U-cy";
kernRight = "U-cy";
layers = (
{
anchors = (
{
name = top;
pos = (316,660);
}
);
layerId = UUID0;
shapes = (
{
closed = 1;
nodes = (
(182,-10,ls),
(262,-10,o),
(313,30,o),
(341,95,cs),
(587,660,l),
(527,660,l),
(347,250,l),
(212,550,ls),
(188,605,o),
(156,660,o),
(92,660,cs),
(-28,660,l),
(-28,640,l),
(61,635,o),
(83,586,o),
(107,530,c),
(292,120,l),
(282,95,ls),
(258,35,o),
(191,20,o),
(132,20,c),
(132,-10,l)
);
}
);
width = 607;
},
{
anchors = (
{
name = top;
pos = (339,660);
}
);
layerId = "C3EC177B-A859-46F4-B872-3D98CC06F87A";
shapes = (
{
closed = 1;
nodes = (
(192,-10,ls),
(272,-10,o),
(328,30,o),
(356,95,c),
(612,660,l),
(547,660,l),
(370,268,l),
(232,550,l),
(203,614,o),
(145,660,o),
(69,660,cs),
(-31,660,l),
(-31,640,l),
(22,635,o),
(64,594,o),
(93,530,c),
(298,110,l),
(291,95,ls),
(264,36,o),
(201,26,o),
(142,26,c),
(142,-10,l)
);
}
);
width = 618;
}
);
unicode = 1059;
},
{
glyphname = "Ef-cy";
kernLeft = O;
kernRight = O;
layers = (
{
layerId = UUID0;
shapes = (
{
closed = 1;
nodes = (
(435,-30,l),
(435,35,l),
(645,35,o),
(745,145,o),
(745,315,cs),
(745,485,o),
(645,595,o),
(435,595,c),
(435,600,l),
(435,669,o),
(414,690,o),
(345,690,cs),
(255,690,l),
(255,670,l),
(275,670,ls),
(326,670,o),
(345,651,o),
(345,600,cs),
(345,595,l),
(135,595,o),
(35,485,o),
(35,315,cs),
(35,145,o),
(135,35,o),
(345,35,c),
(345,-30,l)
);
},
{
closed = 1;
nodes = (
(185,75,o),
(135,184,o),
(135,315,cs),
(135,446,o),
(185,555,o),
(345,555,c),
(345,75,l)
);
},
{
closed = 1;
nodes = (
(435,555,l),
(595,555,o),
(645,446,o),
(645,315,cs),
(645,184,o),
(595,75,o),
(435,75,c)
);
}
);
width = 780;
},
{
layerId = "C3EC177B-A859-46F4-B872-3D98CC06F87A";
shapes = (
{
closed = 1;
nodes = (
(476,-40,l),
(476,35,l),
(686,35,o),
(796,145,o),
(796,315,cs),
(796,485,o),
(686,595,o),
(476,595,c),
(476,671,o),
(455,700,o),
(386,700,cs),
(266,700,l),
(266,670,l),
(276,670,ls),
(336,670,o),
(346,630,o),
(346,595,c),
(136,595,o),
(26,485,o),
(26,315,cs),
(26,145,o),
(136,35,o),
(346,35,c),
(346,-40,l)
);
},
{
closed = 1;
nodes = (
(225,80,o),
(166,184,o),
(166,315,cs),
(166,446,o),
(225,550,o),
(346,550,c),
(346,80,l)
);
},
{
closed = 1;
nodes = (
(476,550,l),
(595,550,o),
(656,446,o),
(656,315,cs),
(656,184,o),
(595,80,o),
(476,80,c)
);
}
);
width = 821;
}
);
unicode = 1060;
},
{
glyphname = "Che-cy";
kernLeft = "Che-cy";
kernRight = H;
layers = (
{
anchors = (
{
name = bottomright;
pos = (464,0);
},
{
name = center;
pos = (340,270);
},
{
name = top;
pos = (320,660);
}
);
layerId = UUID0;
shapes = (
{
closed = 1;
nodes = (
(554,0,l),
(554,660,l),
(464,660,l),
(464,310,l),
(429,295,o),
(374,290,o),
(334,290,cs),
(234,290,o),
(184,319,o),
(184,450,cs),
(184,540,ls),
(184,640,o),
(164,660,o),
(94,660,cs),
(4,660,l),
(4,640,l),
(14,640,ls),
(74,640,o),
(84,600,o),
(84,540,cs),
(84,460,ls),
(84,280,o),
(194,250,o),
(329,250,cs),
(368,250,o),
(430,254,o),
(464,270,c),
(464,0,l)
);
}
);
width = 640;
},
{
anchors = (
{
name = bottomright;
pos = (459,0);
},
{
name = center;
pos = (349,260);
},
{
name = top;
pos = (332,660);
}
);
layerId = "C3EC177B-A859-46F4-B872-3D98CC06F87A";
shapes = (
{
closed = 1;
nodes = (
(589,0,l),
(589,660,l),
(459,660,l),
(459,305,l),
(428,293,o),
(390,285,o),
(349,285,cs),
(269,285,o),
(209,339,o),
(209,450,cs),
(209,530,ls),
(209,629,o),
(189,660,o),
(119,660,cs),
(-1,660,l),
(-1,630,l),
(9,630,ls),
(69,630,o),
(79,590,o),
(79,530,cs),
(79,460,ls),
(79,309,o),
(169,240,o),
(330,240,cs),
(379,240,o),
(428,247,o),
(459,260,c),
(459,0,l)
);
}
);
width = 663;
}
);
unicode = 1063;
},
{
glyphname = "Tse-cy";
kernLeft = H;
kernRight = "Tse-cy";
layers = (
{
layerId = UUID0;
shapes = (
{
closed = 1;
nodes = (
(676,-180,l),
(676,5,ls),
(676,25,o),
(661,40,o),
(641,40,cs),
(586,40,l),
(586,660,l),
(496,660,l),
(496,40,l),
(196,40,l),
(196,540,ls),
(196,640,o),
(176,660,o),
(106,660,cs),
(16,660,l),
(16,640,l),
(36,640,ls),
(96,640,o),
(106,600,o),
(106,540,cs),
(106,0,l),
(506,0,ls),
(577,0,o),
(615,-44,o),
(631,-180,c)
);
}
);
width = 695;
},
{
layerId = "C3EC177B-A859-46F4-B872-3D98CC06F87A";
shapes = (
{
closed = 1;
nodes = (
(685,-185,l),
(685,10,ls),
(685,30,o),
(670,45,o),
(650,45,cs),
(615,45,l),
(615,660,l),
(485,660,l),
(485,45,l),
(225,45,l),
(225,530,ls),
(225,629,o),
(205,660,o),
(135,660,cs),
(15,660,l),
(15,630,l),
(25,630,ls),
(85,630,o),
(95,590,o),
(95,530,cs),
(95,0,l),
(510,0,ls),
(582,0,o),
(619,-40,o),
(635,-185,c)
);
}
);
width = 706;
}
);
unicode = 1062;
},
{
glyphname = "Sha-cy";
kernLeft = H;
kernRight = H;
layers = (
{
layerId = UUID0;
shapes = (
{
closed = 1;
nodes = (
(846,0,l),
(846,660,l),
(756,660,l),
(756,40,l),
(521,40,l),
(521,660,l),
(431,660,l),
(431,40,l),
(196,40,l),
(196,540,ls),
(196,640,o),
(176,660,o),
(106,660,cs),
(16,660,l),
(16,640,l),
(36,640,ls),
(96,640,o),
(106,600,o),
(106,540,cs),
(106,0,l)
);
}
);
width = 932;
},
{
layerId = "C3EC177B-A859-46F4-B872-3D98CC06F87A";
shapes = (
{
closed = 1;
nodes = (
(875,0,l),
(875,660,l),
(745,660,l),
(745,45,l),
(550,45,l),
(550,660,l),
(420,660,l),
(420,45,l),
(225,45,l),
(225,530,ls),
(225,629,o),
(205,660,o),
(135,660,cs),
(15,660,l),
(15,630,l),
(25,630,ls),
(85,630,o),
(95,590,o),
(95,530,cs),
(95,0,l)
);
}
);
width = 949;
}
);
unicode = 1064;
},
{
glyphname = "Shcha-cy";
kernLeft = H;
kernRight = "Tse-cy";
layers = (
{
layerId = UUID0;
shapes = (
{
closed = 1;
nodes = (
(936,-180,l),
(936,5,ls),
(936,25,o),
(921,40,o),
(901,40,cs),
(846,40,l),
(846,660,l),
(756,660,l),
(756,40,l),
(521,40,l),
(521,660,l),
(431,660,l),
(431,40,l),
(196,40,l),
(196,540,ls),
(196,640,o),
(176,660,o),
(106,660,cs),
(16,660,l),
(16,640,l),
(36,640,ls),
(96,640,o),
(106,600,o),
(106,540,cs),
(106,0,l),
(766,0,ls),
(837,0,o),
(875,-44,o),
(891,-180,c)
);
}
);
width = 955;
},
{
layerId = "C3EC177B-A859-46F4-B872-3D98CC06F87A";
shapes = (
{
closed = 1;
nodes = (
(945,-185,l),
(945,10,ls),
(945,30,o),
(930,45,o),
(910,45,cs),
(875,45,l),
(875,660,l),
(745,660,l),
(745,45,l),
(550,45,l),
(550,660,l),
(420,660,l),
(420,45,l),
(225,45,l),
(225,530,ls),
(225,629,o),
(205,660,o),
(135,660,cs),
(15,660,l),
(15,630,l),
(25,630,ls),
(85,630,o),
(95,590,o),
(95,530,cs),
(95,0,l),
(770,0,ls),
(842,0,o),
(879,-40,o),
(895,-185,c)
);
}
);
width = 966;
}
);
unicode = 1065;
},
{
glyphname = "Dzhe-cy";
kernLeft = H;
kernRight = H;
layers = (
{
layerId = UUID0;
shapes = (
{
closed = 1;
nodes = (
(371,-175,l),
(386,0,l),
(586,0,l),
(586,660,l),
(496,660,l),
(496,40,l),
(196,40,l),
(196,540,ls),
(196,640,o),
(176,660,o),
(106,660,cs),
(16,660,l),
(16,640,l),
(36,640,ls),
(96,640,o),
(106,600,o),
(106,540,cs),
(106,0,l),
(306,0,l),
(321,-175,l)
);
}
);
width = 672;
},
{
layerId = "C3EC177B-A859-46F4-B872-3D98CC06F87A";
shapes = (
{
closed = 1;
nodes = (
(390,-175,l),
(405,0,l),
(615,0,l),
(615,660,l),
(485,660,l),
(485,45,l),
(225,45,l),
(225,530,ls),
(225,629,o),
(205,660,o),
(135,660,cs),
(15,660,l),
(15,630,l),
(25,630,ls),
(85,630,o),
(95,590,o),
(95,530,cs),
(95,0,l),
(305,0,l),
(320,-175,l)
);
}
);
width = 689;
}
);
unicode = 1039;
},
{
glyphname = "Softsign-cy";
kernLeft = H;
kernRight = "Softsign-cy";
layers = (
{
layerId = UUID0;
shapes = (
{
closed = 1;
nodes = (
(306,0,ls),
(422,0,o),
(571,30,o),
(571,190,cs),
(571,350,o),
(422,380,o),
(306,380,cs),
(196,380,l),
(196,540,l),
(196,640,o),
(176,660,o),
(106,660,cs),
(16,660,l),
(16,640,l),
(36,640,ls),
(96,640,o),
(106,600,o),
(106,540,cs),
(106,0,l)
);
},
{
closed = 1;
nodes = (
(260,35,o),
(227,40,o),
(196,49,c),
(196,331,l),
(227,340,o),
(260,345,o),
(291,345,cs),
(402,345,o),
(471,295,o),
(471,190,cs),
(471,85,o),
(402,35,o),
(291,35,cs)
);
}
);
width = 596;
},
{
layerId = "C3EC177B-A859-46F4-B872-3D98CC06F87A";
shapes = (
{
closed = 1;
nodes = (
(315,0,ls),
(459,0,o),
(610,39,o),
(610,195,cs),
(610,351,o),
(459,390,o),
(315,390,cs),
(225,390,l),
(225,530,l),
(225,629,o),
(205,660,o),
(135,660,cs),
(15,660,l),
(15,630,l),
(25,630,ls),
(85,630,o),
(95,590,o),
(95,530,cs),
(95,0,l)
);
},
{
closed = 1;
nodes = (
(275,40,o),
(258,42,o),
(245,45,cs),
(238,46,o),
(231,48,o),
(225,50,c),
(225,340,l),
(245,345,ls),
(257,348,o),
(275,350,o),
(295,350,cs),
(300,350,l),
(420,350,o),
(470,295,o),
(470,195,cs),
(470,95,o),
(420,40,o),
(300,40,cs),
(295,40,ls)
);
}
);
width = 627;
}
);
unicode = 1068;
},
{
glyphname = "Yeru-cy";
kernLeft = H;
kernRight = H;
layers = (
{
anchors = (
{
name = top;
pos = (416,660);
}
);
layerId = UUID0;
shapes = (
{
closed = 1;
nodes = (
(306,0,ls),
(406,0,o),
(556,30,o),
(556,190,cs),
(556,350,o),
(406,380,o),
(306,380,cs),
(196,380,l),
(196,540,l),
(196,640,o),
(176,660,o),
(106,660,cs),
(16,660,l),
(16,640,l),
(36,640,ls),
(96,640,o),
(106,600,o),
(106,540,cs),
(106,0,l)
);
},
{
closed = 1;
nodes = (
(260,35,o),
(227,40,o),
(196,49,c),
(196,331,l),
(227,340,o),
(260,345,o),
(291,345,cs),
(386,345,o),
(456,295,o),
(456,190,cs),
(456,85,o),
(386,35,o),
(291,35,cs)
);
},
{
closed = 1;
nodes = (
(816,0,l),
(816,20,l),
(796,20,ls),
(736,20,o),
(726,60,o),
(726,120,cs),
(726,660,l),
(636,660,l),
(636,120,l),
(636,20,o),
(656,0,o),
(726,0,cs)
);
}
);
width = 832;
},
{
anchors = (
{
name = top;
pos = (447,660);
}
);
layerId = "C3EC177B-A859-46F4-B872-3D98CC06F87A";
shapes = (
{
closed = 1;
nodes = (
(305,0,ls),
(449,0,o),
(600,39,o),
(600,195,cs),
(600,351,o),
(449,390,o),
(305,390,cs),
(225,390,l),
(225,530,l),
(225,629,o),
(205,660,o),
(135,660,cs),
(15,660,l),
(15,630,l),
(25,630,ls),
(85,630,o),
(95,590,o),
(95,530,cs),
(95,0,l)
);
},
{
closed = 1;
nodes = (
(273,40,o),
(257,42,o),
(244,45,cs),
(237,46,o),
(230,48,o),
(225,50,c),
(225,340,l),
(244,345,ls),
(256,348,o),
(271,350,o),
(290,350,cs),
(410,350,o),
(460,295,o),
(460,195,cs),
(460,95,o),
(410,40,o),
(290,40,cs)
);
},
{
closed = 1;
nodes = (
(879,0,l),
(879,30,l),
(869,30,ls),
(809,30,o),
(799,70,o),
(799,130,cs),
(799,660,l),
(669,660,l),
(669,130,ls),
(669,29,o),
(689,0,o),
(759,0,cs)
);
}
);
width = 894;
}
);
unicode = 1067;
},
{
glyphname = "Hardsign-cy";
kernLeft = T;
kernRight = "Softsign-cy";
layers = (
{
layerId = UUID0;
shapes = (
{
closed = 1;
nodes = (
(414,0,ls),
(530,0,o),
(679,30,o),
(679,190,cs),
(679,350,o),
(530,380,o),
(414,380,cs),
(304,380,l),
(304,660,l),
(64,660,ls),
(44,660,o),
(29,645,o),
(29,625,cs),
(29,470,l),
(59,470,l),
(64,585,o),
(98,620,o),
(184,620,cs),
(214,620,l),
(214,0,l)
);
},
{
closed = 1;
nodes = (
(368,35,o),
(335,40,o),
(304,49,c),
(304,331,l),
(335,340,o),
(368,345,o),
(399,345,cs),
(510,345,o),
(579,295,o),
(579,190,cs),
(579,85,o),
(510,35,o),
(399,35,cs)
);
}
);
width = 704;
},
{
layerId = "C3EC177B-A859-46F4-B872-3D98CC06F87A";
shapes = (
{
closed = 1;
nodes = (
(410,0,ls),
(554,0,o),
(705,39,o),
(705,195,cs),
(705,351,o),
(554,390,o),
(410,390,cs),
(320,390,l),
(320,660,l),
(59,660,ls),
(39,660,o),
(24,645,o),
(24,625,cs),
(24,460,l),
(64,460,l),
(69,571,o),
(103,615,o),
(179,615,cs),
(190,615,l),
(190,0,l)
);
},
{
closed = 1;
nodes = (
(370,40,o),
(353,42,o),
(340,45,cs),
(333,46,o),
(326,48,o),
(320,50,c),
(320,340,l),
(340,345,ls),
(352,348,o),
(370,350,o),
(390,350,cs),
(395,350,l),
(515,350,o),
(565,295,o),
(565,195,cs),
(565,95,o),
(515,40,o),
(395,40,cs),
(390,40,ls)
);
}
);
width = 722;
}
);
unicode = 1066;
},
{
glyphname = "Lje-cy";
kernLeft = "El-cy";
kernRight = "Softsign-cy";
layers = (
{
layerId = UUID0;
shapes = (
{
closed = 1;
nodes = (
(144,-10,o),
(234,85,o),
(234,540,cs),
(234,620,l),
(474,620,l),
(474,0,l),
(674,0,ls),
(790,0,o),
(939,30,o),
(939,190,cs),
(939,350,o),
(790,380,o),
(674,380,cs),
(564,380,l),
(564,660,l),
(79,660,l),
(79,640,l),
(89,640,ls),
(149,640,o),
(159,600,o),
(159,540,cs),
(159,103,o),
(82,28,o),
(-6,24,c),
(-6,-1,l),
(9,-6,o),
(29,-10,o),
(44,-10,cs)
);
},
{
closed = 1;
nodes = (
(628,35,o),
(595,39,o),
(564,50,c),
(564,330,l),
(595,341,o),
(628,345,o),
(659,345,cs),
(771,345,o),
(839,295,o),
(839,190,cs),
(839,85,o),
(771,35,o),
(659,35,cs)
);
}
);
width = 964;
},
{
layerId = "C3EC177B-A859-46F4-B872-3D98CC06F87A";
shapes = (
{
closed = 1;
nodes = (
(172,-15,o),
(260,105,o),
(260,530,cs),
(260,615,l),
(466,615,l),
(466,0,l),
(686,0,ls),
(820,0,o),
(971,39,o),
(971,195,cs),
(971,351,o),
(820,390,o),
(686,390,cs),
(596,390,l),
(596,660,l),
(71,660,l),
(71,630,l),
(81,630,ls),
(141,630,o),
(150,590,o),
(150,530,cs),
(150,121,o),
(77,43,o),
(-8,25,c),
(-8,-6,l),
(7,-11,o),
(27,-15,o),
(52,-15,cs)
);
},
{
closed = 1;
nodes = (
(646,40,o),
(629,42,o),
(616,45,cs),
(609,46,o),
(602,48,o),
(596,50,c),
(596,340,l),
(616,345,ls),
(628,348,o),
(646,350,o),
(666,350,cs),
(671,350,l),
(780,350,o),
(831,295,o),
(831,195,cs),
(831,95,o),
(780,40,o),
(671,40,cs),
(666,40,ls)
);
}
);
width = 988;
}
);
unicode = 1033;
},
{
glyphname = "Nje-cy";
kernLeft = H;
kernRight = "Softsign-cy";
layers = (
{
layerId = UUID0;
shapes = (
{
closed = 1;
nodes = (
(196,0,l),
(196,320,l),
(486,320,l),
(486,0,l),
(686,0,ls),
(802,0,o),
(951,30,o),
(951,180,cs),
(951,330,o),
(802,360,o),
(686,360,cs),
(576,360,l),
(576,660,l),
(486,660,l),
(486,360,l),
(196,360,l),
(196,540,ls),
(196,640,o),
(176,660,o),
(106,660,cs),
(16,660,l),
(16,640,l),
(36,640,ls),
(96,640,o),
(106,600,o),
(106,540,cs),
(106,0,l)
);
},
{
closed = 1;
nodes = (
(640,35,o),
(607,39,o),
(576,50,c),
(576,310,l),
(607,321,o),
(640,325,o),
(671,325,cs),
(782,325,o),
(851,276,o),
(851,180,cs),
(851,84,o),
(782,35,o),
(671,35,cs)
);
}
);
width = 974;
},
{
layerId = "C3EC177B-A859-46F4-B872-3D98CC06F87A";
shapes = (
{
closed = 1;
nodes = (
(225,0,l),
(225,320,l),
(476,320,l),
(476,0,l),
(695,0,ls),
(839,0,o),
(990,40,o),
(990,185,cs),
(990,330,o),
(839,370,o),
(695,370,cs),
(606,370,l),
(606,660,l),
(476,660,l),
(476,365,l),
(225,365,l),
(225,530,l),
(225,629,o),
(205,660,o),
(135,660,cs),
(15,660,l),
(15,630,l),
(25,630,ls),
(85,630,o),
(95,590,o),
(95,530,cs),
(95,0,l)
);
},
{
closed = 1;
nodes = (
(655,40,o),
(638,42,o),
(625,45,cs),
(618,46,o),
(611,48,o),
(605,50,c),
(605,320,l),
(610,323,o),
(639,330,o),
(675,330,cs),
(680,330,l),
(800,330,o),
(850,276,o),
(850,185,cs),
(850,94,o),
(800,40,o),
(680,40,cs),
(675,40,ls)
);
}
);
width = 1004;
}
);
unicode = 1034;
},
{
glyphname = "E-cy";
kernLeft = O;
kernRight = C;
layers = (
{
layerId = UUID0;
shapes = (
{
closed = 1;
nodes = (
(473,-20,o),
(565,20,o),
(629,145,c),
(609,160,l),
(553,69,o),
(484,20,o),
(384,20,cs),
(219,20,o),
(149,165,o),
(144,310,c),
(475,310,l),
(475,350,l),
(144,350,l),
(155,565,o),
(260,640,o),
(384,640,cs),
(495,640,o),
(564,581,o),
(589,450,c),
(609,450,l),
(609,510,o),
(609,569,o),
(584,600,cs),
(548,644,o),
(465,680,o),
(354,680,cs),
(183,680,o),
(44,520,o),
(44,320,cs),
(44,131,o),
(164,-20,o),
(354,-20,cs)
);
}
);
width = 665;
},
{
layerId = "C3EC177B-A859-46F4-B872-3D98CC06F87A";
shapes = (
{
closed = 1;
nodes = (
(507,-20,o),
(592,30,o),
(655,141,c),
(620,168,l),
(572,75,o),
(489,25,o),
(397,25,cs),
(242,25,o),
(180,161,o),
(177,310,c),
(487,310,l),
(487,355,l),
(178,355,l),
(186,570,o),
(282,635,o),
(397,635,cs),
(508,635,o),
(575,568,o),
(600,447,c),
(630,447,l),
(630,506,o),
(631,564,o),
(604,599,c),
(567,642,o),
(492,680,o),
(367,680,cs),
(178,680,o),
(37,522,o),
(37,320,cs),
(37,128,o),
(156,-20,o),
(367,-20,cs)
);
}
);
width = 679;
}
);
unicode = 1028;
},
{
glyphname = "Ereversed-cy";
kernLeft = "Ereversed-cy";
kernRight = O;
layers = (
{
layerId = UUID0;
shapes = (
{
closed = 1;
nodes = (
(500,-20,o),
(620,131,o),
(620,320,cs),
(620,520,o),
(481,680,o),
(310,680,cs),
(199,680,o),
(116,644,o),
(80,600,cs),
(55,569,o),
(55,510,o),
(55,450,c),
(75,450,l),
(100,581,o),
(169,640,o),
(280,640,cs),
(404,640,o),
(509,565,o),
(520,350,c),
(189,350,l),
(189,310,l),
(520,310,l),
(515,165,o),
(445,20,o),
(280,20,cs),
(180,20,o),
(111,69,o),
(55,160,c),
(35,145,l),
(99,20,o),
(191,-20,o),
(310,-20,cs)
);
}
);
width = 665;
},
{
layerId = "C3EC177B-A859-46F4-B872-3D98CC06F87A";
shapes = (
{
closed = 1;
nodes = (
(524,-20,o),
(643,128,o),
(643,320,cs),
(643,522,o),
(502,680,o),
(313,680,cs),
(188,680,o),
(113,642,o),
(76,599,c),
(49,564,o),
(50,506,o),
(50,447,c),
(80,447,l),
(105,568,o),
(172,635,o),
(283,635,cs),
(398,635,o),
(494,570,o),
(502,355,c),
(193,355,l),
(193,310,l),
(503,310,l),
(500,161,o),
(438,25,o),
(283,25,cs),
(191,25,o),
(108,75,o),
(60,168,c),
(25,141,l),
(88,30,o),
(173,-20,o),
(313,-20,cs)
);
}
);
width = 680;
}
);
unicode = 1069;
},
{
glyphname = "Tshe-cy";
kernLeft = T;
kernRight = "Tshe-cy";
layers = (
{
background = {
shapes = (
{
closed = 1;
nodes = (
(117,660,ls),
(48,660,o),
(32,620,o),
(32,580,cs),
(32,505,l),
(52,505,l),
(52,585,o),
(97,620,o),
(177,620,c),
(562,620,l),
(562,660,l)
);
}
);
};
layerId = UUID0;
shapes = (
{
closed = 1;
nodes = (
(270,0,l),
(270,345,l),
(301,365,o),
(359,385,o),
(410,385,cs),
(485,385,o),
(550,350,o),
(550,250,cs),
(550,0,l),
(640,0,l),
(640,250,ls),
(640,395,o),
(545,430,o),
(440,430,cs),
(369,430,o),
(301,410,o),
(270,390,c),
(270,660,l),
(180,660,l),
(180,0,l)
);
},
{
closed = 1;
nodes = (
(41,505,l),
(41,585,o),
(86,620,o),
(166,620,c),
(551,620,l),
(551,660,l),
(106,660,ls),
(37,660,o),
(21,620,o),
(21,580,cs),
(21,505,l)
);
}
);
width = 690;
},
{
background = {
shapes = (
{
closed = 1;
nodes = (
(101,660,ls),
(32,660,o),
(16,620,o),
(16,580,cs),
(16,495,l),
(46,495,l),
(46,584,o),
(90,615,o),
(161,615,c),
(571,615,l),
(571,660,l)
);
}
);
};
layerId = "C3EC177B-A859-46F4-B872-3D98CC06F87A";
shapes = (
{
closed = 1;
nodes = (
(324,0,l),
(324,345,l),
(355,365,o),
(403,380,o),
(454,380,cs),
(519,380,o),
(564,349,o),
(564,250,cs),
(564,0,l),
(694,0,l),
(694,250,ls),
(694,395,o),
(579,430,o),
(474,430,cs),
(413,430,o),
(355,410,o),
(324,390,c),
(324,615,l),
(194,615,l),
(194,0,l)
);
},
{
closed = 1;
nodes = (
(46,495,l),
(46,584,o),
(90,615,o),
(161,615,c),
(571,615,l),
(571,660,l),
(101,660,ls),
(32,660,o),
(16,620,o),
(16,580,cs),
(16,495,l)
);
}
);
width = 744;
}
);
metricLeft = T;
unicode = 1035;
},
{
glyphname = "Iu-cy";
kernLeft = H;
kernRight = O;
layers = (
{
layerId = UUID0;
shapes = (
{
closed = 1;
nodes = (
(705,-20,o),
(826,119,o),
(826,330,cs),
(826,541,o),
(705,680,o),
(546,680,cs),
(394,680,o),
(280,555,o),
(267,360,c),
(196,360,l),
(196,540,ls),
(196,640,o),
(176,660,o),
(106,660,cs),
(16,660,l),
(16,640,l),
(36,640,ls),
(96,640,o),
(106,600,o),
(106,540,cs),
(106,0,l),
(196,0,l),
(196,320,l),
(266,320,l),
(271,116,o),
(388,-20,o),
(546,-20,cs)
);
},
{
closed = 1;
nodes = (
(446,20,o),
(366,130,o),
(366,330,cs),
(366,530,o),
(446,640,o),
(546,640,cs),
(646,640,o),
(726,530,o),
(726,330,cs),
(726,130,o),
(646,20,o),
(546,20,cs)
);
}
);
width = 873;
},
{
layerId = "C3EC177B-A859-46F4-B872-3D98CC06F87A";
shapes = (
{
closed = 1;
nodes = (
(749,-20,o),
(879,122,o),
(879,330,cs),
(879,538,o),
(749,680,o),
(580,680,cs),
(420,680,o),
(297,554,o),
(281,365,c),
(225,365,l),
(225,530,ls),
(225,629,o),
(205,660,o),
(135,660,cs),
(15,660,l),
(15,630,l),
(25,630,ls),
(85,630,o),
(95,590,o),
(95,530,cs),
(95,0,l),
(225,0,l),
(225,320,l),
(280,320,l),
(283,117,o),
(416,-20,o),
(580,-20,cs)
);
},
{
closed = 1;
nodes = (
(488,25,o),
(420,127,o),
(420,330,cs),
(420,533,o),
(488,635,o),
(580,635,cs),
(671,635,o),
(741,533,o),
(741,330,cs),
(741,127,o),
(671,25,o),
(580,25,cs)
);
}
);
width = 917;
}
);
unicode = 1070;
},
{
glyphname = "Ia-cy";
kernLeft = "Ia-cy";
kernRight = H;
layers = (
{
layerId = UUID0;
shapes = (
{
closed = 1;
nodes = (
(133,-10,o),
(173,9,o),
(212,80,cs),
(317,270,l),
(414,270,l),
(414,0,l),
(504,0,l),
(504,540,ls),
(504,600,o),
(514,640,o),
(574,640,cs),
(584,640,l),
(584,660,l),
(334,660,ls),
(249,660,o),
(84,640,o),
(84,460,cs),
(84,340,o),
(164,296,o),
(229,280,c),
(124,100,ls),
(97,55,o),
(65,25,o),
(14,20,c),
(14,1,l),
(29,-4,o),
(54,-10,o),
(74,-10,cs)
);
},
{
closed = 1;
nodes = (
(284,305,o),
(184,345,o),
(184,465,cs),
(184,585,o),
(284,625,o),
(339,625,cs),
(364,625,o),
(394,620,o),
(414,615,c),
(414,315,l),
(394,310,o),
(364,305,o),
(339,305,cs)
);
}
);
width = 608;
},
{
layerId = "C3EC177B-A859-46F4-B872-3D98CC06F87A";
shapes = (
{
closed = 1;
nodes = (
(142,-16,o),
(199,21,o),
(267,129,cs),
(357,272,l),
(401,272,l),
(401,0,l),
(532,0,l),
(532,530,ls),
(532,590,o),
(542,630,o),
(602,630,cs),
(612,630,l),
(612,660,l),
(336,660,ls),
(228,660,o),
(66,625,o),
(66,461,cs),
(66,355,o),
(154,296,o),
(228,280,c),
(133,129,l),
(79,46,o),
(40,25,o),
(9,19,c),
(9,-6,l),
(20,-11,o),
(52,-16,o),
(77,-16,cs)
);
},
{
closed = 1;
nodes = (
(277,312,o),
(206,359,o),
(206,466,cs),
(206,570,o),
(277,620,o),
(336,620,cs),
(352,620,o),
(369,619,o),
(381,616,c),
(401,613,l),
(401,312,l),
(341,312,ls)
);
}
);
width = 627;
}
);
unicode = 1071;
},
{
glyphname = "Dje-cy";
kernLeft = T;
kernRight = "Tshe-cy";
layers = (
{
background = {
shapes = (
{
closed = 1;
nodes = (
(106,660,ls),
(37,660,o),
(21,620,o),
(21,580,cs),
(21,505,l),
(41,505,l),
(41,585,o),
(86,620,o),
(166,620,c),
(551,620,l),
(551,660,l)
);
}
);
};
layerId = UUID0;
shapes = (
{
closed = 1;
nodes = (
(599,-40,o),
(639,25,o),
(639,200,cs),
(639,395,o),
(544,430,o),
(439,430,cs),
(368,430,o),
(300,410,o),
(269,390,c),
(269,620,l),
(179,620,l),
(179,0,l),
(269,0,l),
(269,345,l),
(300,365,o),
(358,385,o),
(409,385,cs),
(484,385,o),
(549,349,o),
(549,200,cs),
(549,53,o),
(517,-20,o),
(454,-20,c),
(454,-40,l)
);
},
{
closed = 1;
nodes = (
(41,505,l),
(41,585,o),
(86,620,o),
(166,620,c),
(551,620,l),
(551,660,l),
(106,660,ls),
(37,660,o),
(21,620,o),
(21,580,cs),
(21,505,l)
);
}
);
width = 674;
},
{
background = {
shapes = (
{
closed = 1;
nodes = (
(101,660,ls),
(32,660,o),
(16,620,o),
(16,580,cs),
(16,495,l),
(46,495,l),
(46,584,o),
(90,615,o),
(161,615,c),
(571,615,l),
(571,660,l)
);
}
);
};
layerId = "C3EC177B-A859-46F4-B872-3D98CC06F87A";
shapes = (
{
closed = 1;
nodes = (
(614,-40,o),
(694,25,o),
(694,200,cs),
(694,385,o),
(598,430,o),
(474,430,cs),
(413,430,o),
(355,410,o),
(324,390,c),
(324,615,l),
(194,615,l),
(194,0,l),
(324,0,l),
(324,345,l),
(355,365,o),
(403,380,o),
(454,380,cs),
(509,380,o),
(564,340,o),
(564,200,cs),
(564,52,o),
(532,-15,o),
(479,-15,c),
(479,-40,l)
);
},
{
closed = 1;
nodes = (
(46,495,l),
(46,584,o),
(90,615,o),
(161,615,c),
(571,615,l),
(571,660,l),
(101,660,ls),
(32,660,o),
(16,620,o),
(16,580,cs),
(16,495,l)
);
}
);
width = 718;
}
);
metricLeft = T;
unicode = 1026;
},
{
glyphname = "Yat-cy";
kernLeft = H;
kernRight = "Softsign-cy";
layers = (
{
background = {
shapes = (
{
closed = 1;
nodes = (
(101,560,ls),
(32,560,o),
(16,520,o),
(16,480,cs),
(16,395,l),
(46,395,l),
(46,484,o),
(90,515,o),
(161,515,c),
(511,515,l),
(511,560,l)
);
}
);
};
layerId = UUID0;
shapes = (
{
closed = 1;
nodes = (
(41,405,l),
(41,485,o),
(86,520,o),
(166,520,c),
(491,520,l),
(491,560,l),
(106,560,ls),
(37,560,o),
(21,520,o),
(21,480,cs),
(21,405,l)
);
},
{
pos = (70,0);
ref = "Softsign-cy";
}
);
width = 666;
},
{
background = {
shapes = (
{
closed = 1;
nodes = (
(106,560,ls),
(37,560,o),
(21,520,o),
(21,480,cs),
(21,405,l),
(41,405,l),
(41,485,o),
(86,520,o),
(166,520,c),
(501,520,l),
(501,560,l)
);
},
{
pos = (90,0);
ref = "Softsign-cy";
}
);
};
layerId = "C3EC177B-A859-46F4-B872-3D98CC06F87A";
shapes = (
{
closed = 1;
nodes = (
(46,395,l),
(46,484,o),
(90,515,o),
(161,515,c),
(511,515,l),
(511,560,l),
(101,560,ls),
(32,560,o),
(16,520,o),
(16,480,cs),
(16,395,l)
);
},
{
pos = (90,0);
ref = "Softsign-cy";
}
);
width = 717;
}
);
metricLeft = "Te-cy";
metricRight = "Softsign-cy";
unicode = 1122;
},
{
glyphname = "Yusbig-cy";
kernLeft = X;
kernRight = V;
layers = (
{
background = {
shapes = (
{
closed = 1;
nodes = (
(46,660,l),
(96,620,l),
(746,620,l),
(786,660,l)
);
}
);
};
guides = (
{
pos = (493,380);
}
);
layerId = UUID0;
shapes = (
{
closed = 1;
nodes = (
(101,-10,o),
(181,7,o),
(261,110,cs),
(431,330,l),
(431,0,l),
(518,0,l),
(518,330,l),
(688,110,ls),
(768,7,o),
(848,-10,o),
(893,-10,cs),
(924,-10,o),
(943,-5,o),
(958,0,c),
(958,19,l),
(912,24,o),
(847,71,o),
(798,130,cs),
(652,316,ls),
(627,346,o),
(587,360,o),
(531,360,c),
(694,565,ls),
(749,614,o),
(783,635,o),
(828,635,c),
(828,660,l),
(91,660,l),
(91,635,l),
(136,635,o),
(175,616,o),
(226,564,cs),
(400,358,l),
(343,354,o),
(316,338,o),
(285,300,cs),
(151,130,ls),
(105,70,o),
(37,24,o),
(-9,19,c),
(-9,0,l),
(6,-5,o),
(25,-10,o),
(56,-10,cs)
);
},
{
closed = 1;
nodes = (
(240,620,l),
(683,620,l),
(469,350,l)
);
}
);
width = 949;
},
{
background = {
shapes = (
{
closed = 1;
nodes = (
(81,615,l),
(788,615,l),
(860,660,l),
(31,660,l)
);
}
);
};
guides = (
{
angle = 90;
pos = (442,397);
},
{
angle = 90;
pos = (573,397);
},
{
pos = (485,390);
}
);
layerId = "C3EC177B-A859-46F4-B872-3D98CC06F87A";
shapes = (
{
closed = 1;
nodes = (
(139,-10,o),
(213,10,o),
(298,120,cs),
(429,285,l),
(429,0,l),
(560,0,l),
(560,285,l),
(691,120,ls),
(778,10,o),
(850,-10,o),
(935,-10,cs),
(964,-10,o),
(984,-5,o),
(999,0,c),
(999,24,l),
(959,31,o),
(899,71,o),
(849,130,cs),
(724,279,ls),
(682,330,o),
(639,362,o),
(584,365,c),
(718,554,l),
(762,612,o),
(804,625,o),
(890,625,c),
(890,660,l),
(79,660,l),
(79,625,l),
(165,625,o),
(213,603,o),
(253,554,cs),
(406,365,l),
(351,362,o),
(306,328,o),
(270,285,cs),
(140,130,ls),
(92,71,o),
(30,31,o),
(-10,24,c),
(-10,0,l),
(5,-5,o),
(25,-10,o),
(54,-10,cs)
);
},
{
closed = 1;
nodes = (
(266,615,l),
(695,615,l),
(496,326,l)
);
}
);
width = 989;
}
);
metricLeft = "Zhe-cy";
metricRight = "Zhe-cy";
unicode = 1130;
},
{
glyphname = "Izhitsa-cy";
kernLeft = V;
kernRight = V;
layers = (
{
background = {
shapes = (
{
closed = 1;
nodes = (
(568,543,l),
(600,618,o),
(622,643,o),
(678,648,c),
(678,668,l),
(668,669,o),
(657,670,o),
(644,670,cs),
(610,670,o),
(569,658,o),
(522,543,c)
);
}
);
};
layerId = UUID0;
shapes = (
{
closed = 1;
nodes = (
(331,-10,l),
(539,535,ls),
(568,612,o),
(593,635,o),
(649,640,c),
(649,660,l),
(639,661,o),
(628,662,o),
(615,662,cs),
(581,662,o),
(534,645,o),
(493,535,cs),
(339,116,l),
(361,116,l),
(179,543,ls),
(131,657,o),
(54,670,o),
(5,670,cs),
(-4,670,o),
(-24,668,o),
(-29,668,c),
(-29,648,l),
(27,643,o),
(49,618,o),
(81,543,cs),
(313,-10,l)
);
}
);
width = 671;
},
{
background = {
shapes = (
{
closed = 1;
nodes = (
(581,620,o),
(606,643,o),
(662,648,c),
(662,668,l),
(652,669,o),
(641,670,o),
(628,670,cs),
(591,670,o),
(551,658,o),
(498,538,c),
(550,538,l)
);
}
);
};
layerId = "C3EC177B-A859-46F4-B872-3D98CC06F87A";
shapes = (
{
closed = 1;
nodes = (
(339,-10,l),
(546,530,ls),
(580,618,o),
(602,635,o),
(658,640,c),
(658,660,l),
(648,661,o),
(637,662,o),
(624,662,cs),
(587,662,o),
(537,641,o),
(494,530,cs),
(359,184,l),
(207,543,ls),
(159,657,o),
(78,670,o),
(9,670,cs),
(0,670,o),
(-28,668,o),
(-33,668,c),
(-33,648,l),
(7,643,o),
(34,618,o),
(66,543,cs),
(299,-10,l)
);
}
);
width = 678;
}
);
metricLeft = V;
unicode = 1140;
},
{
glyphname = "Zhedescender-cy";
kernLeft = X;
kernRight = K;
layers = (
{
layerId = UUID0;
shapes = (
{
closed = 1;
nodes = (
(982,-180,l),
(982,5,ls),
(982,25,o),
(967,40,o),
(947,40,cs),
(914,40,o),
(892,43,o),
(865,64,c),
(846,41,l),
(846,-4,l),
(895,-18,o),
(924,-67,o),
(937,-180,c)
);
},
{
ref = "Zhe-cy";
}
);
width = 962;
},
{
layerId = "C3EC177B-A859-46F4-B872-3D98CC06F87A";
shapes = (
{
closed = 1;
nodes = (
(1008,-185,l),
(1008,10,ls),
(1008,30,o),
(993,45,o),
(973,45,cs),
(952,45,o),
(926,53,o),
(864,110,c),
(865,-3,l),
(916,-16,o),
(945,-64,o),
(958,-185,c)
);
},
{
ref = "Zhe-cy";
}
);
width = 998;
}
);
metricLeft = "Zhe-cy";
metricRight = "Kadescender-cy";
unicode = 1174;
},
{
glyphname = "Zedescender-cy";
kernLeft = "Ze-cy";
kernRight = B;
layers = (
{
layerId = UUID0;
shapes = (
{
closed = 1;
nodes = (
(320,-180,l),
(320,0,l),
(223,0,l),
(255,-11,o),
(268,-44,o),
(275,-180,c)
);
},
{
ref = "Ze-cy";
}
);
width = 570;
},
{
background = {
shapes = (
{
closed = 1;
nodes = (
(215,0,l),
(252,0,o),
(272,-40,o),
(280,-185,c),
(330,-185,l),
(330,10,l)
);
}
);
};
layerId = "C3EC177B-A859-46F4-B872-3D98CC06F87A";
shapes = (
{
closed = 1;
nodes = (
(330,-185,l),
(330,10,l),
(215,0,l),
(252,0,o),
(272,-40,o),
(280,-185,c)
);
},
{
ref = "Ze-cy";
}
);
width = 580;
}
);
metricRight = "Ze-cy";
unicode = 1176;
},
{
glyphname = "Kadescender-cy";
kernLeft = B;
kernRight = K;
layers = (
{
layerId = UUID0;
shapes = (
{
closed = 1;
nodes = (
(708,-180,l),
(708,5,ls),
(708,25,o),
(693,40,o),
(673,40,cs),
(640,40,o),
(618,43,o),
(591,64,c),
(572,41,l),
(572,-4,l),
(621,-18,o),
(650,-67,o),
(663,-180,c)
);
},
{
ref = "Ka-cy";
}
);
width = 688;
},
{
layerId = "C3EC177B-A859-46F4-B872-3D98CC06F87A";
shapes = (
{
closed = 1;
nodes = (
(708,-185,l),
(708,10,ls),
(708,30,o),
(693,45,o),
(673,45,cs),
(652,45,o),
(626,53,o),
(564,110,c),
(565,-3,l),
(616,-16,o),
(645,-64,o),
(658,-185,c)
);
},
{
ref = "Ka-cy";
}
);
width = 698;
}
);
unicode = 1178;
},
{
glyphname = "Kaverticalstroke-cy";
kernLeft = B;
kernRight = K;
layers = (
{
background = {
shapes = (
{
closed = 1;
nodes = (
(269,306,l),
(457,110,ls),
(552,10,o),
(627,-10,o),
(701,-10,cs),
(732,-10,o),
(759,-5,o),
(774,0,c),
(774,24,l),
(735,29,o),
(665,75,o),
(615,130,c),
(384,370,l),
(533,554,ls),
(578,610,o),
(640,625,o),
(716,625,c),
(716,660,l),
(646,660,ls),
(567,660,o),
(512,611,o),
(469,555,c)
);
},
{
closed = 1;
nodes = (
(216,530,ls),
(216,629,o),
(194,660,o),
(125,660,cs),
(5,660,l),
(5,630,l),
(15,630,ls),
(75,630,o),
(85,590,o),
(85,530,cs),
(86,0,l),
(216,0,l)
);
},
{
closed = 1;
nodes = (
(247,463,l),
(247,184,l),
(302,184,l),
(302,463,l)
);
},
{
closed = 1;
nodes = (
(315,336,l),
(175,336,l),
(175,291,l),
(315,291,l)
);
}
);
};
layerId = UUID0;
shapes = (
{
closed = 1;
nodes = (
(702,-10,o),
(721,-5,o),
(736,0,c),
(736,19,l),
(685,26,o),
(621,73,o),
(566,130,cs),
(336,370,l),
(531,565,ls),
(586,620,o),
(621,635,o),
(676,635,c),
(676,660,l),
(626,660,ls),
(546,660,o),
(506,605,o),
(456,555,cs),
(239,338,l),
(456,110,ls),
(551,10,o),
(616,-10,o),
(671,-10,cs)
);
},
{
closed = 1;
nodes = (
(196,0,l),
(196,540,ls),
(196,640,o),
(176,660,o),
(106,660,cs),
(16,660,l),
(16,640,l),
(36,640,ls),
(96,640,o),
(106,600,o),
(106,540,cs),
(106,0,l)
);
},
{
closed = 1;
nodes = (
(258,317,l),
(258,357,l),
(158,357,l),
(158,317,l)
);
},
{
closed = 1;
nodes = (
(270,206,l),
(270,461,l),
(227,461,l),
(227,206,l)
);
}
);
width = 727;
},
{
background = {
shapes = (
{
closed = 1;
nodes = (
(325,325,l),
(185,325,l),
(185,280,l),
(325,280,l)
);
}
);
};
layerId = "C3EC177B-A859-46F4-B872-3D98CC06F87A";
shapes = (
{
closed = 1;
nodes = (
(742,-10,o),
(769,-5,o),
(784,0,c),
(784,24,l),
(745,29,o),
(675,75,o),
(625,130,c),
(394,370,l),
(543,554,ls),
(588,610,o),
(650,625,o),
(726,625,c),
(726,660,l),
(656,660,ls),
(577,660,o),
(522,611,o),
(479,555,c),
(279,306,l),
(467,110,ls),
(562,10,o),
(637,-10,o),
(711,-10,cs)
);
},
{
closed = 1;
nodes = (
(226,0,l),
(226,530,ls),
(226,629,o),
(204,660,o),
(135,660,cs),
(15,660,l),
(15,630,l),
(25,630,ls),
(85,630,o),
(95,590,o),
(95,530,cs),
(96,0,l)
);
},
{
closed = 1;
nodes = (
(325,291,l),
(325,336,l),
(185,336,l),
(185,291,l)
);
},
{
closed = 1;
nodes = (
(312,184,l),
(312,463,l),
(257,463,l),
(257,184,l)
);
}
);
width = 773;
}
);
metricLeft = "En-cy";
metricRight = "Ka-cy";
unicode = 1180;
},
{
glyphname = "Kabashkir-cy";
kernLeft = B;
kernRight = T;
layers = (
{
background = {
shapes = (
{
closed = 1;
nodes = (
(61,660,ls),
(-8,660,o),
(-24,620,o),
(-24,580,cs),
(-24,505,l),
(-4,505,l),
(-4,585,o),
(41,620,o),
(121,620,c),
(216,620,l),
(216,660,l)
);
}
);
};
layerId = UUID0;
shapes = (
{
closed = 1;
nodes = (
(757,-10,o),
(776,-5,o),
(791,0,c),
(791,19,l),
(740,26,o),
(676,73,o),
(621,130,cs),
(391,370,l),
(586,565,ls),
(641,620,o),
(676,635,o),
(731,635,c),
(731,660,l),
(681,660,ls),
(601,660,o),
(561,605,o),
(511,555,cs),
(301,345,l),
(301,660,l),
(211,660,l),
(211,0,l),
(301,0,l),
(301,330,l),
(511,110,ls),
(606,10,o),
(671,-10,o),
(726,-10,cs)
);
},
{
closed = 1;
nodes = (
(41,505,l),
(41,585,o),
(86,620,o),
(166,620,c),
(301,620,l),
(301,660,l),
(106,660,ls),
(37,660,o),
(21,620,o),
(21,580,cs),
(21,505,l)
);
}
);
width = 782;
},
{
layerId = "C3EC177B-A859-46F4-B872-3D98CC06F87A";
shapes = (
{
closed = 1;
nodes = (
(789,-10,o),
(816,-5,o),
(831,0,c),
(831,24,l),
(792,29,o),
(722,75,o),
(672,130,cs),
(441,370,l),
(590,554,ls),
(635,610,o),
(697,625,o),
(773,625,c),
(773,660,l),
(703,660,ls),
(624,660,o),
(569,611,o),
(526,555,cs),
(353,340,l),
(353,660,l),
(101,660,ls),
(32,660,o),
(16,620,o),
(16,580,cs),
(16,495,l),
(46,495,l),
(46,584,o),
(90,615,o),
(161,615,cs),
(222,615,l),
(223,0,l),
(353,0,l),
(353,278,l),
(514,110,ls),
(609,10,o),
(684,-10,o),
(758,-10,cs)
);
}
);
width = 820;
}
);
metricLeft = T;
metricRight = "Ka-cy";
unicode = 1184;
},
{
glyphname = "Endescender-cy";
kernLeft = B;
layers = (
{
layerId = UUID0;
shapes = (
{
closed = 1;
nodes = (
(676,-180,l),
(676,5,ls),
(676,25,o),
(661,40,o),
(641,40,cs),
(586,40,l),
(586,660,l),
(496,660,l),
(496,360,l),
(196,360,l),
(196,540,ls),
(196,640,o),
(176,660,o),
(106,660,cs),
(16,660,l),
(16,640,l),
(36,640,ls),
(96,640,o),
(106,600,o),
(106,540,cs),
(106,0,l),
(196,0,l),
(196,320,l),
(496,320,l),
(496,0,l),
(506,0,ls),
(577,0,o),
(615,-44,o),
(631,-180,c)
);
}
);
width = 695;
},
{
layerId = "C3EC177B-A859-46F4-B872-3D98CC06F87A";
shapes = (
{
closed = 1;
nodes = (
(695,-185,l),
(695,10,ls),
(695,30,o),
(680,45,o),
(660,45,cs),
(625,45,l),
(625,660,l),
(495,660,l),
(495,365,l),
(225,365,l),
(225,530,ls),
(225,629,o),
(205,660,o),
(135,660,cs),
(15,660,l),
(15,630,l),
(25,630,ls),
(85,630,o),
(95,590,o),
(95,530,cs),
(95,0,l),
(225,0,l),
(225,320,l),
(495,320,l),
(495,0,l),
(520,0,ls),
(592,0,o),
(629,-40,o),
(645,-185,c)
);
}
);
width = 716;
}
);
metricLeft = "En-cy";
metricRight = "Tse-cy";
unicode = 1186;
},
{
glyphname = "Enghe-cy";
kernLeft = B;
kernRight = "Ge-cy";
layers = (
{
layerId = UUID0;
shapes = (
{
closed = 1;
nodes = (
(906,505,l),
(906,580,ls),
(906,620,o),
(890,660,o),
(821,660,cs),
(406,660,l),
(406,640,l),
(426,640,ls),
(486,640,o),
(496,600,o),
(496,540,c),
(586,620,l),
(761,620,ls),
(841,620,o),
(886,585,o),
(886,505,c)
);
},
{
ref = "En-cy";
}
);
width = 927;
},
{
layerId = "C3EC177B-A859-46F4-B872-3D98CC06F87A";
shapes = (
{
closed = 1;
nodes = (
(929,495,l),
(929,580,ls),
(929,620,o),
(913,660,o),
(844,660,cs),
(415,660,l),
(415,630,l),
(425,630,ls),
(485,630,o),
(495,590,o),
(495,530,c),
(625,615,l),
(774,615,ls),
(854,615,o),
(899,582,o),
(899,495,c)
);
},
{
ref = "En-cy";
}
);
width = 944;
}
);
metricRight = "Ge-cy";
unicode = 1188;
},
{
glyphname = "Esdescender-cy";
kernLeft = C;
kernRight = C;
layers = (
{
layerId = UUID0;
shapes = (
{
closed = 1;
nodes = (
(410,-180,l),
(410,0,l),
(313,0,l),
(345,-11,o),
(358,-44,o),
(365,-180,c)
);
},
{
ref = "Es-cy";
}
);
width = 665;
},
{
layerId = "C3EC177B-A859-46F4-B872-3D98CC06F87A";
shapes = (
{
closed = 1;
nodes = (
(430,-185,l),
(430,10,l),
(315,0,l),
(352,0,o),
(372,-40,o),
(380,-185,c)
);
},
{
ref = "Es-cy";
}
);
width = 679;
}
);
unicode = 1194;
},
{
glyphname = "Chekhakassian-cy";
kernLeft = "Che-cy";
kernRight = H;
layers = (
{
layerId = UUID0;
shapes = (
{
closed = 1;
nodes = (
(419,-180,l),
(435,-44,o),
(473,0,o),
(544,0,c),
(554,0,l),
(554,41,l),
(464,40,l),
(409,40,ls),
(389,40,o),
(374,25,o),
(374,5,cs),
(374,-180,l)
);
},
{
ref = "Che-cy";
}
);
width = 614;
},
{
layerId = "C3EC177B-A859-46F4-B872-3D98CC06F87A";
shapes = (
{
closed = 1;
nodes = (
(439,-185,l),
(455,-40,o),
(492,0,o),
(564,0,c),
(589,0,l),
(589,45,l),
(459,45,l),
(424,45,ls),
(404,45,o),
(389,30,o),
(389,10,cs),
(389,-185,l)
);
},
{
ref = "Che-cy";
}
);
width = 659;
}
);
metricLeft = "Che-cy";
unicode = 1227;
},
{
glyphname = "Schwa-cy";
kernLeft = "Ereversed-cy";
kernRight = O;
layers = (
{
background = {
shapes = (
{
closed = 1;
nodes = (
(46,291,l),
(46,92,o),
(137,-20,o),
(329,-20,cs),
(514,-20,o),
(625,135,o),
(625,327,cs),
(625,521,o),
(522,680,o),
(315,680,cs),
(208,680,o),
(124,637,o),
(61,525,c),
(88,503,l),
(135,589,o),
(189,637,o),
(287,637,cs),
(433,637,o),
(526,515,o),
(526,347,c),
(49,347,l)
);
},
{
closed = 1;
nodes = (
(526,291,l),
(526,135,o),
(442,20,o),
(329,20,cs),
(201,20,o),
(143,117,o),
(143,291,c)
);
}
);
};
layerId = UUID0;
shapes = (
{
closed = 1;
nodes = (
(514,-20,o),
(625,135,o),
(625,327,cs),
(625,521,o),
(522,680,o),
(315,680,cs),
(208,680,o),
(124,637,o),
(61,525,c),
(88,503,l),
(140,589,o),
(199,637,o),
(307,637,cs),
(441,637,o),
(526,515,o),
(526,347,c),
(49,347,l),
(46,291,l),
(46,92,o),
(137,-20,o),
(329,-20,cs)
);
},
{
closed = 1;
nodes = (
(201,20,o),
(137,117,o),
(137,291,c),
(526,291,l),
(526,135,o),
(442,20,o),
(329,20,cs)
);
}
);
width = 671;
},
{
background = {
shapes = (
{
closed = 1;
nodes = (
(528,135,o),
(458,25,o),
(337,25,cs),
(216,25,o),
(147,135,o),
(147,330,cs),
(147,525,o),
(216,635,o),
(337,635,cs),
(458,635,o),
(528,525,o),
(528,330,cs)
);
},
{
closed = 1;
nodes = (
(7,133,o),
(138,-20,o),
(337,-20,cs),
(536,-20,o),
(666,133,o),
(666,330,cs),
(666,527,o),
(536,680,o),
(337,680,cs),
(138,680,o),
(7,527,o),
(7,330,cs)
);
}
);
};
layerId = "C3EC177B-A859-46F4-B872-3D98CC06F87A";
shapes = (
{
closed = 1;
nodes = (
(533,-20,o),
(676,99,o),
(676,324,cs),
(676,526,o),
(544,679,o),
(344,680,cs),
(207,681,o),
(117,612,o),
(61,527,c),
(105,494,l),
(171,593,o),
(233,636,o),
(328,635,cs),
(453,634,o),
(536,556,o),
(536,351,c),
(40,351,l),
(38,330,o),
(37,309,o),
(37,289,cs),
(37,97,o),
(143,-20,o),
(348,-20,cs)
);
},
{
closed = 1;
nodes = (
(245,24,o),
(168,87,o),
(168,285,c),
(536,285,l),
(536,87,o),
(446,26,o),
(348,25,cs)
);
}
);
width = 713;
}
);
metricLeft = O;
metricRight = O;
unicode = 1240;
},
{
glyphname = "Obarred-cy";
kernLeft = C;
kernRight = O;
layers = (
{
background = {
shapes = (
{
ref = "En-cy";
}
);
};
layerId = UUID0;
shapes = (
{
closed = 1;
nodes = (
(596,320,l),
(596,360,l),
(116,360,l),
(116,320,l)
);
},
{
ref = O;
}
);
width = 712;
},
{
background = {
shapes = (
{
ref = H;
}
);
};
layerId = "C3EC177B-A859-46F4-B872-3D98CC06F87A";
shapes = (
{
closed = 1;
nodes = (
(589,320,l),
(589,365,l),
(150,365,l),
(150,320,l)
);
},
{
ref = O;
}
);
width = 733;
}
);
metricLeft = O;
metricRight = O;
unicode = 1256;
},
{
glyphname = "be-cy";
kernLeft = "be-cy";
kernRight = o;
layers = (
{
layerId = UUID0;
shapes = (
{
closed = 1;
nodes = (
(390,-10,o),
(480,60,o),
(480,215,cs),
(480,370,o),
(390,440,o),
(290,440,cs),
(190,440,o),
(135,400,o),
(110,300,c),
(105,300,l),
(116,466,o),
(159,508,o),
(245,530,c),
(420,570,l),
(440,575,o),
(450,590,o),
(450,615,cs),
(450,680,l),
(430,680,l),
(425,655,o),
(400,646,o),
(355,635,cs),
(205,600,ls),
(100,576,o),
(60,515,o),
(60,270,cs),
(60,230,ls),
(60,59,o),
(150,-10,o),
(270,-10,cs)
);
},
{
closed = 1;
nodes = (
(210,30,o),
(155,70,o),
(155,215,cs),
(155,355,o),
(210,400,o),
(270,400,cs),
(330,400,o),
(385,355,o),
(385,215,cs),
(385,70,o),
(330,30,o),
(270,30,cs)
);
}
);
width = 528;
},
{
layerId = "C3EC177B-A859-46F4-B872-3D98CC06F87A";
shapes = (
{
closed = 1;
nodes = (
(415,-10,o),
(505,60,o),
(505,215,cs),
(505,370,o),
(415,440,o),
(295,440,cs),
(199,440,o),
(146,390,o),
(115,310,c),
(110,310,l),
(115,435,o),
(181,494,o),
(261,513,c),
(425,550,l),
(474,561,o),
(485,590,o),
(485,615,cs),
(485,695,l),
(455,695,l),
(450,670,o),
(416,658,o),
(360,645,cs),
(221,613,ls),
(116,589,o),
(45,525,o),
(45,270,cs),
(45,240,ls),
(45,80,o),
(135,-10,o),
(275,-10,cs)
);
},
{
closed = 1;
nodes = (
(235,35,o),
(180,70,o),
(180,215,cs),
(180,355,o),
(235,395,o),
(275,395,cs),
(315,395,o),
(370,355,o),
(370,215,cs),
(370,70,o),
(315,35,o),
(275,35,cs)
);
}
);
width = 545;
}
);
unicode = 1073;
},
{
glyphname = "ve-cy";
kernLeft = n;
kernRight = "ve-cy";
layers = (
{
layerId = UUID0;
shapes = (
{
closed = 1;
nodes = (
(247,0,ls),
(367,0,o),
(457,29,o),
(457,130,cs),
(457,190,o),
(413,230,o),
(337,245,c),
(408,260,o),
(437,294,o),
(437,350,cs),
(437,441,o),
(347,470,o),
(247,470,cs),
(2,470,l),
(2,450,l),
(12,450,ls),
(72,450,o),
(82,410,o),
(82,350,cs),
(82,0,l)
);
},
{
closed = 1;
nodes = (
(217,35,o),
(187,40,o),
(172,45,c),
(172,225,l),
(227,225,l),
(317,225,o),
(362,193,o),
(362,130,cs),
(362,65,o),
(317,35,o),
(237,35,cs)
);
},
{
closed = 1;
nodes = (
(172,425,l),
(187,430,o),
(217,435,o),
(237,435,cs),
(297,435,o),
(342,406,o),
(342,350,cs),
(342,294,o),
(298,265,o),
(227,265,cs),
(172,265,l)
);
}
);
width = 501;
},
{
layerId = "C3EC177B-A859-46F4-B872-3D98CC06F87A";
shapes = (
{
closed = 1;
nodes = (
(267,0,ls),
(408,0,o),
(489,39,o),
(489,130,cs),
(489,195,o),
(427,234,o),
(342,245,c),
(422,256,o),
(469,290,o),
(469,350,cs),
(469,430,o),
(387,470,o),
(267,470,cs),
(-1,470,l),
(-1,440,l),
(4,440,ls),
(64,440,o),
(74,400,o),
(74,340,cs),
(74,0,l)
);
},
{
closed = 1;
nodes = (
(238,40,o),
(219,42,o),
(204,47,c),
(204,225,l),
(239,225,ls),
(310,225,o),
(354,194,o),
(354,130,cs),
(354,70,o),
(309,40,o),
(249,40,cs)
);
},
{
closed = 1;
nodes = (
(204,423,l),
(219,428,o),
(238,430,o),
(249,430,cs),
(289,430,o),
(334,406,o),
(334,350,cs),
(334,299,o),
(290,270,o),
(239,270,cs),
(204,270,l)
);
}
);
width = 524;
}
);
unicode = 1074;
},
{
glyphname = "ge-cy";
kernLeft = n;
kernRight = "ge-cy";
layers = (
{
anchors = (
{
name = bottomright;
pos = (82,0);
},
{
name = center;
pos = (157,235);
},
{
name = top;
pos = (248,470);
}
);
layerId = UUID0;
shapes = (
{
closed = 1;
nodes = (
(172,0,l),
(172,430,l),
(282,430,ls),
(342,430,o),
(387,395,o),
(387,330,c),
(407,330,l),
(407,390,ls),
(407,430,o),
(392,470,o),
(332,470,cs),
(2,470,l),
(2,450,l),
(12,450,ls),
(72,450,o),
(82,410,o),
(82,350,cs),
(82,0,l)
);
}
);
width = 435;
},
{
anchors = (
{
name = bottomright;
pos = (74,0);
},
{
name = center;
pos = (167,235);
},
{
name = top;
pos = (240,470);
}
);
layerId = "C3EC177B-A859-46F4-B872-3D98CC06F87A";
shapes = (
{
closed = 1;
nodes = (
(204,0,l),
(204,425,l),
(294,425,ls),
(354,425,o),
(389,396,o),
(389,320,c),
(419,320,l),
(419,390,ls),
(419,430,o),
(404,470,o),
(344,470,cs),
(-1,470,l),
(-1,440,l),
(4,440,ls),
(64,440,o),
(74,400,o),
(74,340,cs),
(74,0,l)
);
}
);
width = 440;
}
);
unicode = 1075;
},
{
glyphname = "gheupturn-cy";
kernLeft = n;
kernRight = "ge-cy";
layers = (
{
layerId = UUID0;
shapes = (
{
closed = 1;
nodes = (
(172,0,l),
(172,430,l),
(367,430,ls),
(394,430,o),
(407,443,o),
(407,470,cs),
(407,570,l),
(387,570,l),
(387,505,o),
(342,470,o),
(282,470,cs),
(2,470,l),
(2,450,l),
(12,450,ls),
(72,450,o),
(82,410,o),
(82,350,cs),
(82,0,l)
);
}
);
width = 432;
},
{
layerId = "C3EC177B-A859-46F4-B872-3D98CC06F87A";
shapes = (
{
closed = 1;
nodes = (
(204,0,l),
(204,425,l),
(344,425,ls),
(404,425,o),
(419,465,o),
(419,505,cs),
(419,575,l),
(389,575,l),
(389,499,o),
(354,470,o),
(294,470,cs),
(-1,470,l),
(-1,440,l),
(4,440,ls),
(64,440,o),
(74,400,o),
(74,340,cs),
(74,0,l)
);
}
);
width = 433;
}
);
unicode = 1169;
},
{
glyphname = "ghemiddlehook-cy";
kernLeft = n;
kernRight = h;
layers = (
{
background = {
shapes = (
{
closed = 1;
nodes = (
(474,90,ls),
(474,225,o),
(389,271,o),
(262,271,cs),
(234,271,o),
(205,269,o),
(174,265,c),
(174,217,l),
(196,219,o),
(215,220,o),
(232,220,cs),
(311,220,o),
(344,193,o),
(344,90,cs),
(344,55,ls),
(344,-56,o),
(304,-104,o),
(221,-115,c),
(221,-140,l),
(394,-140,o),
(474,-76,o),
(474,55,cs)
);
}
);
};
layerId = UUID0;
shapes = (
{
closed = 1;
nodes = (
(370,-140,o),
(452,-45,o),
(452,75,cs),
(452,219,o),
(384,291,o),
(257,291,cs),
(224,291,o),
(189,287,o),
(152,279,c),
(152,235,l),
(179,241,o),
(205,244,o),
(229,244,cs),
(326,244,o),
(362,191,o),
(362,75,cs),
(362,-16,o),
(314,-120,o),
(212,-120,c),
(212,-140,l)
);
},
{
ref = "ge-cy";
}
);
width = 477;
},
{
background = {
shapes = (
{
closed = 1;
nodes = (
(504,90,ls),
(504,235,o),
(419,270,o),
(324,270,cs),
(279,270,o),
(235,262,o),
(204,250,c),
(204,202,l),
(229,213,o),
(263,220,o),
(294,220,cs),
(339,220,o),
(374,189,o),
(374,90,cs),
(374,55,ls),
(374,-56,o),
(347,-104,o),
(291,-115,c),
(291,-140,l),
(436,-140,o),
(504,-76,o),
(504,55,cs)
);
}
);
};
layerId = "C3EC177B-A859-46F4-B872-3D98CC06F87A";
shapes = (
{
closed = 1;
nodes = (
(404,-140,o),
(484,-76,o),
(485,65,cs),
(486,190,o),
(413,271,o),
(272,271,cs),
(244,271,o),
(215,269,o),
(184,265,c),
(184,217,l),
(206,219,o),
(225,220,o),
(242,220,cs),
(317,220,o),
(355,166,o),
(355,65,cs),
(355,-56,o),
(314,-104,o),
(231,-115,c),
(231,-140,l)
);
},
{
ref = "ge-cy";
}
);
width = 510;
}
);
unicode = 1173;
},
{
glyphname = "de-cy";
kernLeft = "de-cy";
kernRight = "tse-cy";
layers = (
{
layerId = UUID0;
shapes = (
{
closed = 1;
nodes = (
(56,-155,l),
(67,-44,o),
(96,0,o),
(161,0,cs),
(401,0,ls),
(466,0,o),
(495,-44,o),
(506,-155,c),
(546,-155,l),
(546,5,ls),
(546,25,o),
(531,40,o),
(511,40,cs),
(471,40,l),
(471,470,l),
(71,470,l),
(71,450,l),
(131,450,o),
(141,410,o),
(141,350,cs),
(141,260,o),
(126,139,o),
(81,40,c),
(51,40,ls),
(31,40,o),
(16,25,o),
(16,5,cs),
(16,-155,l)
);
},
{
closed = 1;
nodes = (
(191,140,o),
(206,259,o),
(206,430,c),
(381,430,l),
(381,40,l),
(151,40,l)
);
}
);
width = 570;
},
{
layerId = "C3EC177B-A859-46F4-B872-3D98CC06F87A";
shapes = (
{
closed = 1;
nodes = (
(59,-160,l),
(70,-29,o),
(107,0,o),
(171,0,cs),
(413,0,l),
(477,0,o),
(514,-29,o),
(525,-160,c),
(575,-160,l),
(575,10,ls),
(575,30,o),
(560,45,o),
(540,45,cs),
(510,45,l),
(510,470,l),
(65,470,l),
(65,440,l),
(130,440,o),
(140,401,o),
(140,350,cs),
(140,259,o),
(125,145,o),
(80,45,c),
(44,45,ls),
(24,45,o),
(9,30,o),
(9,10,cs),
(9,-160,l)
);
},
{
closed = 1;
nodes = (
(224,145,o),
(239,254,o),
(239,425,c),
(380,425,l),
(380,45,l),
(184,45,l)
);
}
);
width = 583;
}
);
unicode = 1076;
},
{
glyphname = "zhe-cy";
kernLeft = x;
kernRight = x;
layers = (
{
anchors = (
{
name = bottomright;
pos = (666,0);
},
{
name = top;
pos = (343,470);
}
);
layerId = UUID0;
shapes = (
{
closed = 1;
nodes = (
(109,-10,o),
(153,14,o),
(193,70,cs),
(298,215,l),
(298,0,l),
(388,0,l),
(388,215,l),
(493,70,ls),
(533,14,o),
(577,-10,o),
(628,-10,cs),
(648,-10,o),
(667,-5,o),
(678,0,c),
(678,19,l),
(633,26,o),
(598,51,o),
(563,100,cs),
(458,245,l),
(553,400,ls),
(572,431,o),
(608,445,o),
(648,445,c),
(648,470,l),
(623,470,ls),
(558,470,o),
(518,446,o),
(493,405,cs),
(388,230,l),
(388,470,l),
(298,470,l),
(298,230,l),
(193,405,ls),
(168,446,o),
(128,470,o),
(63,470,cs),
(38,470,l),
(38,445,l),
(78,445,o),
(114,431,o),
(133,400,cs),
(228,245,l),
(123,100,ls),
(88,51,o),
(53,26,o),
(8,19,c),
(8,0,l),
(19,-5,o),
(38,-10,o),
(58,-10,cs)
);
}
);
width = 686;
},
{
anchors = (
{
name = bottomright;
pos = (720,0);
},
{
name = top;
pos = (370,470);
}
);
layerId = "C3EC177B-A859-46F4-B872-3D98CC06F87A";
shapes = (
{
closed = 1;
nodes = (
(126,-10,o),
(172,12,o),
(219,80,cs),
(305,203,l),
(305,0,l),
(435,0,l),
(435,203,l),
(521,80,ls),
(568,12,o),
(614,-10,o),
(670,-10,cs),
(695,-10,o),
(728,-5,o),
(739,0,c),
(739,24,l),
(711,31,o),
(679,53,o),
(646,100,cs),
(522,276,l),
(610,394,ls),
(637,430,o),
(670,444,o),
(710,444,c),
(710,470,l),
(690,470,ls),
(619,470,o),
(585,444,o),
(546,393,cs),
(435,245,l),
(435,470,l),
(305,470,l),
(305,245,l),
(194,393,ls),
(155,444,o),
(121,470,o),
(50,470,cs),
(30,470,l),
(30,444,l),
(70,444,o),
(103,430,o),
(130,394,cs),
(218,276,l),
(94,100,ls),
(61,53,o),
(29,31,o),
(1,24,c),
(1,0,l),
(12,-5,o),
(45,-10,o),
(70,-10,cs)
);
}
);
width = 740;
}
);
unicode = 1078;
},
{
glyphname = "ze-cy";
kernLeft = "ze-cy";
kernRight = "ve-cy";
layers = (
{
anchors = (
{
name = bottom;
pos = (228,0);
},
{
name = top;
pos = (208,470);
}
);
layerId = UUID0;
shapes = (
{
closed = 1;
nodes = (
(320,-10,o),
(411,21,o),
(411,125,cs),
(411,185,o),
(368,225,o),
(296,240,c),
(356,255,o),
(396,290,o),
(396,350,cs),
(396,449,o),
(306,480,o),
(216,480,cs),
(151,480,o),
(101,470,o),
(76,445,cs),
(51,420,o),
(51,391,o),
(51,335,c),
(71,335,l),
(75,400,o),
(129,440,o),
(201,440,cs),
(257,440,o),
(301,410,o),
(301,350,cs),
(301,290,o),
(256,260,o),
(176,260,cs),
(131,260,l),
(131,220,l),
(176,220,ls),
(269,220,o),
(316,188,o),
(316,125,cs),
(316,60,o),
(271,30,o),
(191,30,cs),
(117,30,o),
(81,60,o),
(56,85,c),
(36,70,l),
(71,25,o),
(121,-10,o),
(211,-10,cs)
);
}
);
width = 455;
},
{
anchors = (
{
name = bottom;
pos = (210,0);
},
{
name = top;
pos = (210,470);
}
);
layerId = "C3EC177B-A859-46F4-B872-3D98CC06F87A";
shapes = (
{
closed = 1;
nodes = (
(342,-10,o),
(425,29,o),
(425,125,cs),
(425,185,o),
(373,229,o),
(290,240,c),
(362,251,o),
(410,290,o),
(410,350,cs),
(410,439,o),
(330,480,o),
(210,480,cs),
(150,480,o),
(95,470,o),
(70,445,cs),
(45,420,o),
(45,381,o),
(45,325,c),
(75,325,l),
(79,390,o),
(125,435,o),
(185,435,cs),
(231,435,o),
(275,410,o),
(275,350,cs),
(275,290,o),
(250,265,o),
(170,265,cs),
(120,265,l),
(120,220,l),
(170,220,ls),
(263,220,o),
(290,188,o),
(290,125,cs),
(290,60,o),
(245,35,o),
(185,35,cs),
(116,35,o),
(79,71,o),
(60,95,c),
(30,70,l),
(65,25,o),
(120,-10,o),
(215,-10,cs)
);
}
);
width = 460;
}
);
unicode = 1079;
},
{
glyphname = "ii-cy";
kernLeft = n;
kernRight = u;
layers = (
{
anchors = (
{
name = bottomright;
pos = (386,0);
},
{
name = top;
pos = (274,470);
}
);
layerId = UUID0;
shapes = (
{
closed = 1;
nodes = (
(176,0,l),
(386,380,l),
(386,0,l),
(476,0,l),
(476,470,l),
(386,470,l),
(176,90,l),
(176,350,ls),
(176,450,o),
(156,470,o),
(86,470,cs),
(1,470,l),
(1,450,l),
(16,450,ls),
(76,450,o),
(86,410,o),
(86,350,cs),
(86,0,l)
);
}
);
width = 548;
},
{
anchors = (
{
name = bottomright;
pos = (379,0);
},
{
name = top;
pos = (285,470);
}
);
layerId = "C3EC177B-A859-46F4-B872-3D98CC06F87A";
shapes = (
{
closed = 1;
nodes = (
(199,0,l),
(379,345,l),
(379,0,l),
(509,0,l),
(509,470,l),
(389,470,l),
(209,125,l),
(209,340,ls),
(209,439,o),
(189,470,o),
(119,470,cs),
(-1,470,l),
(-1,440,l),
(9,440,ls),
(69,440,o),
(79,400,o),
(79,340,cs),
(79,0,l)
);
}
);
width = 569;
}
);
unicode = 1080;
},
{
glyphname = "ka-cy";
kernLeft = n;
kernRight = k;
layers = (
{
anchors = (
{
name = bottomright;
pos = (477,0);
},
{
name = center;
pos = (219,235);
},
{
name = top;
pos = (249,470);
}
);
layerId = UUID0;
shapes = (
{
closed = 1;
nodes = (
(459,-10,o),
(478,-5,o),
(489,0,c),
(489,19,l),
(444,26,o),
(409,55,o),
(374,100,cs),
(259,245,l),
(369,400,ls),
(394,435,o),
(428,445,o),
(459,445,c),
(459,470,l),
(434,470,ls),
(369,470,o),
(333,445,o),
(304,405,cs),
(179,230,l),
(179,350,ls),
(179,450,o),
(159,470,o),
(89,470,cs),
(-1,470,l),
(-1,450,l),
(19,450,ls),
(79,450,o),
(89,410,o),
(89,350,cs),
(89,0,l),
(179,0,l),
(179,215,l),
(294,70,ls),
(339,14,o),
(388,-10,o),
(439,-10,cs)
);
}
);
width = 497;
},
{
anchors = (
{
name = bottomright;
pos = (504,0);
},
{
name = center;
pos = (262,235);
},
{
name = top;
pos = (262,470);
}
);
layerId = "C3EC177B-A859-46F4-B872-3D98CC06F87A";
shapes = (
{
closed = 1;
nodes = (
(479,-10,o),
(512,-5,o),
(523,0,c),
(523,24,l),
(495,31,o),
(465,53,o),
(430,100,cs),
(297,276,l),
(394,394,ls),
(423,429,o),
(454,444,o),
(494,444,c),
(494,470,l),
(474,470,ls),
(403,470,o),
(371,442,o),
(330,393,cs),
(209,245,l),
(209,340,ls),
(209,439,o),
(189,470,o),
(119,470,cs),
(-1,470,l),
(-1,440,l),
(9,440,ls),
(69,440,o),
(79,400,o),
(79,340,cs),
(79,0,l),
(209,0,l),
(209,196,l),
(305,70,l),
(349,10,o),
(398,-10,o),
(454,-10,cs)
);
}
);
width = 524;
}
);
unicode = 1082;
},
{
glyphname = "el-cy";
kernLeft = "el-cy";
kernRight = u;
layers = (
{
layerId = UUID0;
shapes = (
{
closed = 1;
nodes = (
(133,-10,o),
(208,50,o),
(208,350,cs),
(208,430,l),
(384,430,l),
(384,0,l),
(474,0,l),
(474,470,l),
(68,470,l),
(68,450,l),
(129,450,o),
(139,410,o),
(139,350,cs),
(139,75,o),
(74,24,o),
(9,24,c),
(9,-1,l),
(20,-5,o),
(47,-10,o),
(58,-10,cs)
);
}
);
width = 546;
},
{
layerId = "C3EC177B-A859-46F4-B872-3D98CC06F87A";
shapes = (
{
closed = 1;
nodes = (
(166,-15,o),
(236,80,o),
(236,350,cs),
(236,425,l),
(377,425,l),
(377,0,l),
(507,0,l),
(507,470,l),
(57,470,l),
(57,440,l),
(121,440,o),
(132,401,o),
(132,350,cs),
(132,90,o),
(75,34,o),
(6,23,c),
(6,-6,l),
(17,-10,o),
(45,-15,o),
(66,-15,cs)
);
}
);
width = 567;
}
);
unicode = 1083;
},
{
glyphname = "em-cy";
kernLeft = n;
kernRight = u;
layers = (
{
layerId = UUID0;
shapes = (
{
closed = 1;
nodes = (
(632,0,l),
(587,0,o),
(557,75,o),
(557,150,cs),
(557,470,l),
(467,470,l),
(317,140,l),
(167,470,l),
(72,470,l),
(72,0,l),
(112,0,l),
(112,375,l),
(282,0,l),
(302,0,l),
(467,365,l),
(467,150,ls),
(467,46,o),
(507,-20,o),
(632,-20,c)
);
}
);
width = 649;
},
{
layerId = "C3EC177B-A859-46F4-B872-3D98CC06F87A";
shapes = (
{
closed = 1;
nodes = (
(664,0,l),
(609,9,o),
(591,59,o),
(591,170,cs),
(591,480,l),
(460,480,l),
(330,169,l),
(182,470,l),
(60,470,l),
(60,1,l),
(110,1,l),
(110,354,l),
(284,0,l),
(317,0,l),
(461,344,l),
(461,170,ls),
(461,39,o),
(519,-25,o),
(664,-25,c)
);
}
);
width = 666;
}
);
unicode = 1084;
},
{
glyphname = "en-cy";
kernLeft = n;
kernRight = n;
layers = (
{
anchors = (
{
name = bottomright;
pos = (466,0);
}
);
layerId = UUID0;
shapes = (
{
closed = 1;
nodes = (
(176,0,l),
(176,215,l),
(376,215,l),
(376,120,ls),
(376,20,o),
(396,0,o),
(466,0,cs),
(551,0,l),
(551,20,l),
(536,20,ls),
(476,20,o),
(466,60,o),
(466,120,cs),
(466,470,l),
(376,470,l),
(376,255,l),
(176,255,l),
(176,350,ls),
(176,450,o),
(156,470,o),
(86,470,cs),
(1,470,l),
(1,450,l),
(16,450,ls),
(76,450,o),
(86,410,o),
(86,350,cs),
(86,0,l)
);
}
);
width = 553;
},
{
anchors = (
{
name = bottomright;
pos = (459,0);
}
);
guides = (
{
angle = 90;
pos = (369,126);
}
);
layerId = "C3EC177B-A859-46F4-B872-3D98CC06F87A";
shapes = (
{
closed = 1;
nodes = (
(209,0,l),
(209,215,l),
(369,215,l),
(369,130,ls),
(369,29,o),
(389,0,o),
(459,0,cs),
(579,0,l),
(579,30,l),
(569,30,ls),
(509,30,o),
(499,70,o),
(499,130,cs),
(499,470,l),
(369,470,l),
(369,260,l),
(209,260,l),
(209,340,ls),
(209,439,o),
(189,470,o),
(119,470,cs),
(-1,470,l),
(-1,440,l),
(9,440,ls),
(69,440,o),
(79,400,o),
(79,340,cs),
(79,0,l)
);
}
);
width = 578;
}
);
unicode = 1085;
},
{
glyphname = "pe-cy";
kernLeft = n;
kernRight = u;
layers = (
{
anchors = (
{
name = bottomright;
pos = (372,0);
}
);
layerId = UUID0;
shapes = (
{
closed = 1;
nodes = (
(172,0,l),
(172,430,l),
(372,430,l),
(372,0,l),
(462,0,l),
(462,470,l),
(2,470,l),
(2,450,l),
(12,450,ls),
(72,450,o),
(82,410,o),
(82,350,cs),
(82,0,l)
);
}
);
width = 534;
},
{
anchors = (
{
name = bottomright;
pos = (364,0);
}
);
layerId = "C3EC177B-A859-46F4-B872-3D98CC06F87A";
shapes = (
{
closed = 1;
nodes = (
(204,0,l),
(204,425,l),
(364,425,l),
(364,0,l),
(494,0,l),
(494,470,l),
(-1,470,l),
(-1,440,l),
(4,440,ls),
(64,440,o),
(74,400,o),
(74,340,cs),
(74,0,l)
);
}
);
width = 554;
}
);
unicode = 1087;
},
{
glyphname = "te-cy";
kernLeft = "te-cy";
kernRight = "te-cy";
layers = (
{
layerId = UUID0;
shapes = (
{
closed = 1;
nodes = (
(294,0,l),
(294,430,l),
(459,430,l),
(459,470,l),
(104,470,ls),
(44,470,o),
(29,430,o),
(29,390,cs),
(29,330,l),
(49,330,l),
(49,395,o),
(94,430,o),
(154,430,cs),
(204,430,l),
(204,0,l)
);
}
);
width = 474;
},
{
layerId = "C3EC177B-A859-46F4-B872-3D98CC06F87A";
shapes = (
{
closed = 1;
nodes = (
(307,0,l),
(307,425,l),
(458,425,l),
(458,470,l),
(97,470,ls),
(37,470,o),
(22,430,o),
(22,390,cs),
(22,320,l),
(52,320,l),
(52,396,o),
(87,425,o),
(147,425,cs),
(177,425,l),
(177,0,l)
);
}
);
width = 467;
}
);
unicode = 1090;
},
{
glyphname = "ef-cy";
kernLeft = o;
kernRight = o;
layers = (
{
layerId = UUID0;
shapes = (
{
closed = 1;
nodes = (
(376,-190,l),
(376,-10,l),
(536,-5,o),
(616,100,o),
(616,235,cs),
(616,370,o),
(536,475,o),
(376,480,c),
(376,540,ls),
(376,640,o),
(356,660,o),
(286,660,cs),
(201,660,l),
(201,640,l),
(216,640,ls),
(276,640,o),
(286,600,o),
(286,540,cs),
(286,480,l),
(126,475,o),
(46,370,o),
(46,235,cs),
(46,100,o),
(126,-5,o),
(286,-10,c),
(286,-190,l)
);
},
{
closed = 1;
nodes = (
(186,36,o),
(141,114,o),
(141,235,cs),
(141,356,o),
(186,434,o),
(287,445,c),
(287,25,l)
);
},
{
closed = 1;
nodes = (
(375,445,l),
(476,434,o),
(521,356,o),
(521,235,cs),
(521,114,o),
(476,36,o),
(375,25,c)
);
}
);
width = 662;
},
{
layerId = "C3EC177B-A859-46F4-B872-3D98CC06F87A";
shapes = (
{
closed = 1;
nodes = (
(417,-190,l),
(417,-10,l),
(577,1,o),
(667,99,o),
(667,235,cs),
(667,371,o),
(577,469,o),
(417,480,c),
(417,530,ls),
(417,629,o),
(397,660,o),
(327,660,cs),
(207,660,l),
(207,630,l),
(217,630,ls),
(277,630,o),
(287,590,o),
(287,530,cs),
(287,480,l),
(127,469,o),
(37,371,o),
(37,235,cs),
(37,99,o),
(127,1,o),
(287,-10,c),
(287,-190,l)
);
},
{
closed = 1;
nodes = (
(231,36,o),
(172,104,o),
(172,235,cs),
(172,366,o),
(231,434,o),
(292,445,c),
(292,25,l)
);
},
{
closed = 1;
nodes = (
(412,445,l),
(473,434,o),
(532,366,o),
(532,235,cs),
(532,104,o),
(473,36,o),
(412,25,c)
);
}
);
width = 704;
}
);
unicode = 1092;
},
{
glyphname = "che-cy";
kernLeft = "che-cy";
kernRight = u;
layers = (
{
anchors = (
{
name = bottomright;
pos = (370,0);
},
{
name = center;
pos = (285,197);
},
{
name = top;
pos = (267,470);
}
);
layerId = UUID0;
shapes = (
{
closed = 1;
nodes = (
(461,0,l),
(461,470,l),
(371,470,l),
(371,233,l),
(351,225,o),
(316,215,o),
(276,215,cs),
(231,215,o),
(186,240,o),
(186,310,cs),
(186,350,ls),
(186,450,o),
(166,470,o),
(96,470,cs),
(11,470,l),
(11,450,l),
(21,450,ls),
(81,450,o),
(91,410,o),
(91,350,cs),
(91,320,ls),
(91,200,o),
(186,175,o),
(271,175,cs),
(316,175,o),
(351,185,o),
(371,193,c),
(371,0,l)
);
}
);
width = 533;
},
{
anchors = (
{
name = bottomright;
pos = (364,0);
},
{
name = center;
pos = (287,185);
},
{
name = top;
pos = (277,470);
}
);
layerId = "C3EC177B-A859-46F4-B872-3D98CC06F87A";
shapes = (
{
closed = 1;
nodes = (
(494,0,l),
(494,470,l),
(364,470,l),
(364,221,l),
(344,210,o),
(328,205,o),
(297,205,cs),
(246,205,o),
(214,234,o),
(214,310,cs),
(214,340,ls),
(214,439,o),
(194,470,o),
(124,470,cs),
(4,470,l),
(4,440,l),
(14,440,ls),
(74,440,o),
(84,400,o),
(84,340,cs),
(84,310,ls),
(84,201,o),
(169,160,o),
(274,160,cs),
(309,160,o),
(344,169,o),
(364,178,c),
(364,0,l)
);
}
);
width = 554;
}
);
unicode = 1095;
},
{
glyphname = "tse-cy";
kernLeft = n;
kernRight = "tse-cy";
layers = (
{
layerId = UUID0;
shapes = (
{
closed = 1;
nodes = (
(541,-155,l),
(541,5,ls),
(541,25,o),
(526,40,o),
(506,40,cs),
(466,40,l),
(466,470,l),
(376,470,l),
(376,40,l),
(176,40,l),
(176,350,ls),
(176,450,o),
(156,470,o),
(86,470,cs),
(1,470,l),
(1,450,l),
(16,450,ls),
(76,450,o),
(86,410,o),
(86,350,cs),
(86,0,l),
(396,0,ls),
(461,0,o),
(490,-44,o),
(501,-155,c)
);
}
);
width = 565;
},
{
layerId = "C3EC177B-A859-46F4-B872-3D98CC06F87A";
shapes = (
{
closed = 1;
nodes = (
(564,-160,l),
(564,10,ls),
(564,30,o),
(549,45,o),
(529,45,cs),
(499,45,l),
(499,470,l),
(369,470,l),
(369,45,l),
(209,45,l),
(209,340,ls),
(209,439,o),
(189,470,o),
(119,470,cs),
(-1,470,l),
(-1,440,l),
(9,440,ls),
(69,440,o),
(79,400,o),
(79,340,cs),
(79,0,l),
(407,0,ls),
(471,0,o),
(508,-29,o),
(519,-160,c)
);
}
);
width = 572;
}
);
unicode = 1094;
},
{
glyphname = "sha-cy";
kernLeft = n;
kernRight = u;
layers = (
{
layerId = UUID0;
shapes = (
{
closed = 1;
nodes = (
(666,0,l),
(666,470,l),
(576,470,l),
(576,40,l),
(421,40,l),
(421,470,l),
(331,470,l),
(331,40,l),
(176,40,l),
(176,350,ls),
(176,450,o),
(156,470,o),
(86,470,cs),
(1,470,l),
(1,450,l),
(16,450,ls),
(76,450,o),
(86,410,o),
(86,350,cs),
(86,0,l)
);
}
);
width = 738;
},
{
layerId = "C3EC177B-A859-46F4-B872-3D98CC06F87A";
shapes = (
{
closed = 1;
nodes = (
(699,0,l),
(699,470,l),
(569,470,l),
(569,45,l),
(454,45,l),
(454,470,l),
(324,470,l),
(324,45,l),
(209,45,l),
(209,340,ls),
(209,439,o),
(189,470,o),
(119,470,cs),
(-1,470,l),
(-1,440,l),
(9,440,ls),
(69,440,o),
(79,400,o),
(79,340,cs),
(79,0,l)
);
}
);
width = 759;
}
);
unicode = 1096;
},
{
glyphname = "shcha-cy";
kernLeft = n;
kernRight = "tse-cy";
layers = (
{
layerId = UUID0;
shapes = (
{
closed = 1;
nodes = (
(741,-155,l),
(741,5,ls),
(741,25,o),
(726,40,o),
(706,40,cs),
(666,40,l),
(666,470,l),
(576,470,l),
(576,40,l),
(421,40,l),
(421,470,l),
(331,470,l),
(331,40,l),
(176,40,l),
(176,350,ls),
(176,450,o),
(156,470,o),
(86,470,cs),
(1,470,l),
(1,450,l),
(16,450,ls),
(76,450,o),
(86,410,o),
(86,350,cs),
(86,0,l),
(596,0,ls),
(661,0,o),
(690,-44,o),
(701,-155,c)
);
}
);
width = 765;
},
{
layerId = "C3EC177B-A859-46F4-B872-3D98CC06F87A";
shapes = (
{
closed = 1;
nodes = (
(764,-160,l),
(764,10,ls),
(764,30,o),
(749,45,o),
(729,45,cs),
(699,45,l),
(699,470,l),
(569,470,l),
(569,45,l),
(454,45,l),
(454,470,l),
(324,470,l),
(324,45,l),
(209,45,l),
(209,340,ls),
(209,439,o),
(189,470,o),
(119,470,cs),
(-1,470,l),
(-1,440,l),
(9,440,ls),
(69,440,o),
(79,400,o),
(79,340,cs),
(79,0,l),
(607,0,ls),
(671,0,o),
(708,-29,o),
(719,-160,c)
);
}
);
width = 772;
}
);
unicode = 1097;
},
{
glyphname = "dzhe-cy";
kernLeft = n;
kernRight = u;
layers = (
{
layerId = UUID0;
shapes = (
{
closed = 1;
nodes = (
(296,-150,l),
(311,0,l),
(466,0,l),
(466,470,l),
(376,470,l),
(376,40,l),
(176,40,l),
(176,350,ls),
(176,450,o),
(156,470,o),
(86,470,cs),
(1,470,l),
(1,450,l),
(16,450,ls),
(76,450,o),
(86,410,o),
(86,350,cs),
(86,0,l),
(241,0,l),
(256,-150,l)
);
}
);
width = 538;
},
{
layerId = "C3EC177B-A859-46F4-B872-3D98CC06F87A";
shapes = (
{
closed = 1;
nodes = (
(319,-150,l),
(334,0,l),
(499,0,l),
(499,470,l),
(369,470,l),
(369,45,l),
(209,45,l),
(209,340,ls),
(209,439,o),
(189,470,o),
(119,470,cs),
(-1,470,l),
(-1,440,l),
(9,440,ls),
(69,440,o),
(79,400,o),
(79,340,cs),
(79,0,l),
(244,0,l),
(259,-150,l)
);
}
);
width = 559;
}
);
unicode = 1119;
},
{
glyphname = "softsign-cy";
kernLeft = n;
kernRight = "softsign-cy";
layers = (
{
layerId = UUID0;
shapes = (
{
closed = 1;
nodes = (
(251,0,ls),
(366,0,o),
(456,31,o),
(456,140,cs),
(456,249,o),
(366,280,o),
(251,280,cs),
(176,280,l),
(176,350,l),
(176,450,o),
(156,470,o),
(86,470,cs),
(1,470,l),
(1,450,l),
(16,450,ls),
(76,450,o),
(86,410,o),
(86,350,cs),
(86,0,l)
);
},
{
closed = 1;
nodes = (
(221,35,o),
(191,40,o),
(176,45,c),
(176,235,l),
(191,240,o),
(221,245,o),
(241,245,cs),
(317,245,o),
(361,216,o),
(361,140,cs),
(361,64,o),
(317,35,o),
(241,35,cs)
);
}
);
width = 481;
},
{
layerId = "C3EC177B-A859-46F4-B872-3D98CC06F87A";
shapes = (
{
closed = 1;
nodes = (
(284,0,ls),
(409,0,o),
(489,49,o),
(489,140,cs),
(489,231,o),
(409,280,o),
(284,280,cs),
(209,280,l),
(209,340,ls),
(209,439,o),
(189,470,o),
(119,470,cs),
(-1,470,l),
(-1,440,l),
(9,440,ls),
(69,440,o),
(79,400,o),
(79,340,cs),
(79,0,l)
);
},
{
closed = 1;
nodes = (
(243,40,o),
(224,42,o),
(209,47,c),
(209,233,l),
(224,238,o),
(243,240,o),
(254,240,cs),
(309,240,o),
(354,216,o),
(354,140,cs),
(354,64,o),
(309,40,o),
(254,40,cs)
);
}
);
width = 509;
}
);
unicode = 1100;
},
{
glyphname = "yeru-cy";
kernLeft = n;
kernRight = u;
layers = (
{
anchors = (
{
name = top;
pos = (344,470);
}
);
layerId = UUID0;
shapes = (
{
closed = 1;
nodes = (
(251,0,ls),
(356,0,o),
(446,31,o),
(446,140,cs),
(446,249,o),
(356,280,o),
(251,280,cs),
(176,280,l),
(176,350,l),
(176,450,o),
(156,470,o),
(86,470,cs),
(1,470,l),
(1,450,l),
(16,450,ls),
(76,450,o),
(86,410,o),
(86,350,cs),
(86,0,l)
);
},
{
closed = 1;
nodes = (
(221,35,o),
(191,40,o),
(176,45,c),
(176,235,l),
(191,240,o),
(221,245,o),
(241,245,cs),
(306,245,o),
(351,216,o),
(351,140,cs),
(351,64,o),
(306,35,o),
(241,35,cs)
);
},
{
closed = 1;
nodes = (
(686,0,l),
(686,20,l),
(671,20,ls),
(611,20,o),
(601,60,o),
(601,120,cs),
(601,470,l),
(511,470,l),
(511,120,l),
(511,20,o),
(531,0,o),
(601,0,cs)
);
}
);
width = 688;
},
{
anchors = (
{
name = top;
pos = (369,470);
}
);
layerId = "C3EC177B-A859-46F4-B872-3D98CC06F87A";
shapes = (
{
closed = 1;
nodes = (
(274,0,ls),
(399,0,o),
(479,49,o),
(479,140,cs),
(479,231,o),
(399,280,o),
(274,280,cs),
(209,280,l),
(209,340,ls),
(209,439,o),
(189,470,o),
(119,470,cs),
(-1,470,l),
(-1,440,l),
(9,440,ls),
(69,440,o),
(79,400,o),
(79,340,cs),
(79,0,l)
);
},
{
closed = 1;
nodes = (
(243,40,o),
(224,42,o),
(209,47,c),
(209,233,l),
(224,238,o),
(243,240,o),
(254,240,cs),
(299,240,o),
(344,216,o),
(344,140,cs),
(344,64,o),
(299,40,o),
(254,40,cs)
);
},
{
closed = 1;
nodes = (
(739,0,l),
(739,30,l),
(729,30,ls),
(669,30,o),
(659,70,o),
(659,130,cs),
(659,470,l),
(529,470,l),
(529,130,ls),
(529,29,o),
(549,0,o),
(619,0,cs)
);
}
);
width = 738;
}
);
unicode = 1099;
},
{
glyphname = "hardsign-cy";
kernLeft = "te-cy";
kernRight = "softsign-cy";
layers = (
{
layerId = UUID0;
shapes = (
{
closed = 1;
nodes = (
(350,0,ls),
(465,0,o),
(555,31,o),
(555,140,cs),
(555,249,o),
(465,280,o),
(350,280,cs),
(275,280,l),
(275,470,l),
(70,470,ls),
(50,470,o),
(35,455,o),
(35,435,cs),
(35,300,l),
(60,300,l),
(65,391,o),
(104,430,o),
(175,430,cs),
(185,430,l),
(185,0,l)
);
},
{
closed = 1;
nodes = (
(320,35,o),
(290,40,o),
(275,45,c),
(275,235,l),
(290,240,o),
(320,245,o),
(340,245,cs),
(416,245,o),
(460,216,o),
(460,140,cs),
(460,64,o),
(416,35,o),
(340,35,cs)
);
}
);
width = 584;
},
{
layerId = "C3EC177B-A859-46F4-B872-3D98CC06F87A";
shapes = (
{
closed = 1;
nodes = (
(373,0,ls),
(498,0,o),
(578,49,o),
(578,140,cs),
(578,231,o),
(498,280,o),
(373,280,cs),
(298,280,l),
(298,470,l),
(63,470,ls),
(43,470,o),
(28,455,o),
(28,435,cs),
(28,290,l),
(68,290,l),
(73,377,o),
(97,420,o),
(168,425,c),
(168,0,l)
);
},
{
closed = 1;
nodes = (
(332,40,o),
(313,42,o),
(298,47,c),
(298,233,l),
(313,238,o),
(332,240,o),
(343,240,cs),
(398,240,o),
(443,216,o),
(443,140,cs),
(443,64,o),
(398,40,o),
(343,40,cs)
);
}
);
width = 598;
}
);
unicode = 1098;
},
{
glyphname = "lje-cy";
kernLeft = "el-cy";
kernRight = "softsign-cy";
layers = (
{
layerId = UUID0;
shapes = (
{
closed = 1;
nodes = (
(133,-10,o),
(208,50,o),
(208,350,cs),
(208,430,l),
(373,430,l),
(373,0,l),
(538,0,ls),
(653,0,o),
(743,31,o),
(743,140,cs),
(743,249,o),
(653,280,o),
(538,280,cs),
(463,280,l),
(463,470,l),
(68,470,l),
(68,450,l),
(129,450,o),
(139,410,o),
(139,350,cs),
(139,75,o),
(74,24,o),
(9,24,c),
(9,-1,l),
(20,-5,o),
(47,-10,o),
(58,-10,cs)
);
},
{
closed = 1;
nodes = (
(508,35,o),
(478,40,o),
(463,45,c),
(463,235,l),
(478,240,o),
(508,245,o),
(528,245,cs),
(604,245,o),
(648,216,o),
(648,140,cs),
(648,64,o),
(604,35,o),
(528,35,cs)
);
}
);
width = 772;
},
{
layerId = "C3EC177B-A859-46F4-B872-3D98CC06F87A";
shapes = (
{
closed = 1;
nodes = (
(166,-15,o),
(236,80,o),
(236,350,cs),
(236,425,l),
(365,425,l),
(365,0,l),
(570,0,ls),
(695,0,o),
(775,49,o),
(775,140,cs),
(775,231,o),
(695,280,o),
(570,280,cs),
(495,280,l),
(495,470,l),
(57,470,l),
(57,440,l),
(121,440,o),
(132,401,o),
(132,350,cs),
(132,90,o),
(75,34,o),
(6,23,c),
(6,-6,l),
(17,-10,o),
(45,-15,o),
(66,-15,cs)
);
},
{
closed = 1;
nodes = (
(529,40,o),
(510,42,o),
(495,47,c),
(495,233,l),
(510,238,o),
(529,240,o),
(540,240,cs),
(595,240,o),
(640,216,o),
(640,140,cs),
(640,64,o),
(595,40,o),
(540,40,cs)
);
}
);
width = 795;
}
);
unicode = 1113;
},
{
glyphname = "nje-cy";
kernLeft = n;
kernRight = "softsign-cy";
layers = (
{
layerId = UUID0;
shapes = (
{
closed = 1;
nodes = (
(176,0,l),
(176,220,l),
(366,220,l),
(366,0,l),
(531,0,ls),
(646,0,o),
(736,29,o),
(736,130,cs),
(736,229,o),
(646,260,o),
(531,260,cs),
(456,260,l),
(456,470,l),
(366,470,l),
(366,260,l),
(176,260,l),
(176,350,ls),
(176,450,o),
(156,470,o),
(86,470,cs),
(1,470,l),
(1,450,l),
(16,450,ls),
(76,450,o),
(86,410,o),
(86,350,cs),
(86,0,l)
);
},
{
closed = 1;
nodes = (
(501,35,o),
(471,40,o),
(456,45,c),
(456,215,l),
(471,220,o),
(501,225,o),
(521,225,cs),
(597,225,o),
(641,195,o),
(641,130,cs),
(641,65,o),
(597,35,o),
(521,35,cs)
);
}
);
width = 763;
},
{
layerId = "C3EC177B-A859-46F4-B872-3D98CC06F87A";
shapes = (
{
closed = 1;
nodes = (
(209,0,l),
(209,225,l),
(359,225,l),
(359,0,l),
(564,0,ls),
(689,0,o),
(769,50,o),
(769,135,cs),
(769,220,o),
(689,270,o),
(564,270,cs),
(489,270,l),
(489,470,l),
(359,470,l),
(359,270,l),
(209,270,l),
(209,340,ls),
(209,439,o),
(189,470,o),
(119,470,cs),
(-1,470,l),
(-1,440,l),
(9,440,ls),
(69,440,o),
(79,400,o),
(79,340,cs),
(79,0,l)
);
},
{
closed = 1;
nodes = (
(523,40,o),
(504,42,o),
(489,47,c),
(489,223,l),
(504,228,o),
(523,230,o),
(534,230,cs),
(589,230,o),
(634,206,o),
(634,135,cs),
(634,64,o),
(589,40,o),
(534,40,cs)
);
}
);
width = 788;
}
);
unicode = 1114;
},
{
glyphname = "e-cy";
kernLeft = o;
kernRight = c;
layers = (
{
layerId = UUID0;
shapes = (
{
closed = 1;
nodes = (
(345,-10,o),
(405,19,o),
(450,95,c),
(430,110,l),
(395,59,o),
(356,30,o),
(285,30,cs),
(193,30,o),
(145,106,o),
(140,210,c),
(350,210,l),
(350,250,l),
(140,250,l),
(145,355,o),
(190,440,o),
(285,440,cs),
(356,440,o),
(410,400,o),
(415,315,c),
(435,315,l),
(435,390,o),
(435,420,o),
(410,445,cs),
(385,470,o),
(336,480,o),
(265,480,cs),
(116,480,o),
(45,370,o),
(45,235,cs),
(45,100,o),
(116,-10,o),
(265,-10,cs)
);
}
);
width = 489;
},
{
layerId = "C3EC177B-A859-46F4-B872-3D98CC06F87A";
shapes = (
{
closed = 1;
nodes = (
(391,-10,o),
(441,50,o),
(470,95,c),
(439,118,l),
(404,71,o),
(365,35,o),
(296,35,cs),
(220,35,o),
(177,91,o),
(172,210,c),
(361,210,l),
(361,255,l),
(172,255,l),
(177,376,o),
(224,435,o),
(291,435,cs),
(371,435,o),
(421,390,o),
(426,305,c),
(456,305,l),
(456,381,o),
(456,420,o),
(431,445,cs),
(406,470,o),
(352,480,o),
(276,480,cs),
(116,480,o),
(36,368,o),
(36,235,cs),
(36,102,o),
(116,-10,o),
(276,-10,cs)
);
}
);
width = 501;
}
);
unicode = 1108;
},
{
glyphname = "ereversed-cy";
kernLeft = "ereversed-cy";
kernRight = o;
layers = (
{
layerId = UUID0;
shapes = (
{
closed = 1;
nodes = (
(373,-10,o),
(444,100,o),
(444,235,cs),
(444,370,o),
(373,480,o),
(224,480,cs),
(153,480,o),
(104,470,o),
(79,445,cs),
(54,420,o),
(54,390,o),
(54,315,c),
(74,315,l),
(79,400,o),
(133,440,o),
(204,440,cs),
(299,440,o),
(344,355,o),
(349,250,c),
(139,250,l),
(139,210,l),
(349,210,l),
(344,106,o),
(296,30,o),
(204,30,cs),
(133,30,o),
(94,59,o),
(59,110,c),
(39,95,l),
(84,19,o),
(144,-10,o),
(224,-10,cs)
);
}
);
width = 489;
},
{
layerId = "C3EC177B-A859-46F4-B872-3D98CC06F87A";
shapes = (
{
closed = 1;
nodes = (
(385,-10,o),
(465,102,o),
(465,235,cs),
(465,368,o),
(385,480,o),
(225,480,cs),
(149,480,o),
(95,470,o),
(70,445,cs),
(45,420,o),
(45,381,o),
(45,305,c),
(75,305,l),
(80,390,o),
(130,435,o),
(210,435,cs),
(277,435,o),
(324,376,o),
(329,255,c),
(140,255,l),
(140,210,l),
(329,210,l),
(324,91,o),
(281,35,o),
(205,35,cs),
(134,35,o),
(97,72,o),
(62,118,c),
(31,95,l),
(60,50,o),
(110,-10,o),
(225,-10,cs)
);
}
);
width = 501;
}
);
unicode = 1101;
},
{
glyphname = "tshe-cy";
kernLeft = h;
kernRight = h;
layers = (
{
layerId = UUID0;
shapes = (
{
closed = 1;
nodes = (
(162,0,l),
(162,332,l),
(187,360,o),
(222,385,o),
(262,385,cs),
(317,385,o),
(372,350,o),
(372,250,cs),
(372,0,l),
(462,0,l),
(462,250,ls),
(462,395,o),
(377,430,o),
(292,430,cs),
(232,430,o),
(187,405,o),
(162,380,c),
(162,500,l),
(282,500,l),
(282,540,l),
(162,540,l),
(162,660,l),
(122,660,l),
(72,600,l),
(72,540,l),
(2,540,l),
(2,500,l),
(72,500,l),
(72,0,l)
);
}
);
width = 530;
},
{
layerId = "C3EC177B-A859-46F4-B872-3D98CC06F87A";
shapes = (
{
closed = 1;
nodes = (
(190,0,l),
(190,332,l),
(215,360,o),
(249,380,o),
(280,380,cs),
(325,380,o),
(360,349,o),
(360,250,cs),
(360,0,l),
(490,0,l),
(490,250,ls),
(490,395,o),
(405,430,o),
(310,430,cs),
(265,430,o),
(221,411,o),
(190,380,c),
(190,495,l),
(290,495,l),
(290,540,l),
(190,540,l),
(190,660,l),
(110,660,l),
(60,600,l),
(60,540,l),
(-10,540,l),
(-10,495,l),
(60,495,l),
(60,0,l)
);
}
);
width = 546;
}
);
unicode = 1115;
},
{
glyphname = "iu-cy";
kernLeft = n;
kernRight = o;
layers = (
{
layerId = UUID0;
shapes = (
{
closed = 1;
nodes = (
(566,-10,o),
(646,90,o),
(646,235,cs),
(646,380,o),
(566,480,o),
(441,480,cs),
(322,480,o),
(241,391,o),
(236,255,c),
(176,255,l),
(176,350,ls),
(176,450,o),
(156,470,o),
(86,470,cs),
(1,470,l),
(1,450,l),
(16,450,ls),
(76,450,o),
(86,410,o),
(86,350,cs),
(86,0,l),
(176,0,l),
(176,215,l),
(236,215,l),
(241,79,o),
(322,-10,o),
(441,-10,cs)
);
},
{
closed = 1;
nodes = (
(376,30,o),
(331,99,o),
(331,235,cs),
(331,371,o),
(376,440,o),
(441,440,cs),
(506,440,o),
(551,371,o),
(551,235,cs),
(551,99,o),
(506,30,o),
(441,30,cs)
);
}
);
width = 691;
},
{
layerId = "C3EC177B-A859-46F4-B872-3D98CC06F87A";
shapes = (
{
closed = 1;
nodes = (
(610,-10,o),
(699,98,o),
(699,235,cs),
(699,372,o),
(610,480,o),
(474,480,cs),
(346,480,o),
(261,384,o),
(250,260,c),
(209,260,l),
(209,340,ls),
(209,439,o),
(189,470,o),
(119,470,cs),
(-1,470,l),
(-1,440,l),
(9,440,ls),
(69,440,o),
(79,400,o),
(79,340,cs),
(79,0,l),
(209,0,l),
(209,215,l),
(249,215,l),
(257,87,o),
(346,-10,o),
(474,-10,cs)
);
},
{
closed = 1;
nodes = (
(414,35,o),
(384,120,o),
(384,235,cs),
(384,350,o),
(414,435,o),
(474,435,cs),
(534,435,o),
(564,350,o),
(564,235,cs),
(564,120,o),
(534,35,o),
(474,35,cs)
);
}
);
width = 735;
}
);
unicode = 1102;
},
{
glyphname = "ia-cy";
kernLeft = "ia-cy";
kernRight = u;
layers = (
{
layerId = UUID0;
shapes = (
{
closed = 1;
nodes = (
(129,-10,o),
(163,20,o),
(194,80,cs),
(254,200,l),
(332,200,l),
(332,0,l),
(422,0,l),
(422,350,l),
(422,410,o),
(432,450,o),
(492,450,c),
(492,470,l),
(257,470,ls),
(148,470,o),
(57,439,o),
(57,335,cs),
(57,260,o),
(112,215,o),
(172,205,c),
(112,100,l),
(90,65,o),
(63,25,o),
(17,20,c),
(17,0,l),
(32,-5,o),
(52,-10,o),
(72,-10,cs)
);
},
{
closed = 1;
nodes = (
(196,235,o),
(152,264,o),
(152,335,cs),
(152,406,o),
(196,435,o),
(267,435,cs),
(287,435,o),
(317,430,o),
(332,425,c),
(332,245,l),
(317,240,o),
(287,235,o),
(267,235,cs)
);
}
);
width = 510;
},
{
layerId = "C3EC177B-A859-46F4-B872-3D98CC06F87A";
shapes = (
{
closed = 1;
nodes = (
(152,-15,o),
(187,15,o),
(216,75,c),
(276,194,l),
(320,194,l),
(320,0,l),
(450,0,l),
(450,340,l),
(450,400,o),
(460,440,o),
(520,440,cs),
(525,440,l),
(525,470,l),
(265,470,ls),
(136,470,o),
(45,430,o),
(45,325,cs),
(45,260,o),
(89,210,o),
(160,199,c),
(100,95,ls),
(79,59,o),
(51,26,o),
(15,21,c),
(15,-5,l),
(30,-10,o),
(55,-15,o),
(80,-15,cs)
);
},
{
closed = 1;
nodes = (
(224,235,o),
(180,264,o),
(180,335,cs),
(180,406,o),
(225,430,o),
(275,430,cs),
(300,430,o),
(320,422,o),
(320,423,c),
(320,242,l),
(320,243,o),
(300,235,o),
(275,235,cs)
);
}
);
width = 528;
}
);
unicode = 1103;
},
{
glyphname = "dje-cy";
kernLeft = h;
kernRight = h;
layers = (
{
layerId = UUID0;
shapes = (
{
closed = 1;
nodes = (
(422,-140,o),
(462,-75,o),
(462,75,cs),
(462,250,ls),
(462,395,o),
(377,430,o),
(292,430,cs),
(232,430,o),
(187,405,o),
(162,380,c),
(162,500,l),
(332,500,l),
(332,540,l),
(162,540,l),
(162,660,l),
(122,660,l),
(72,600,l),
(72,540,l),
(2,540,l),
(2,500,l),
(72,500,l),
(72,0,l),
(162,0,l),
(162,332,l),
(187,360,o),
(222,385,o),
(262,385,cs),
(317,385,o),
(372,350,o),
(372,250,cs),
(372,75,ls),
(372,-46,o),
(342,-120,o),
(277,-120,c),
(277,-140,l)
);
}
);
width = 530;
},
{
layerId = "C3EC177B-A859-46F4-B872-3D98CC06F87A";
shapes = (
{
closed = 1;
nodes = (
(422,-140,o),
(490,-76,o),
(490,55,cs),
(490,250,ls),
(490,395,o),
(405,430,o),
(310,430,cs),
(265,430,o),
(221,411,o),
(190,380,c),
(190,495,l),
(340,495,l),
(340,540,l),
(190,540,l),
(190,660,l),
(110,660,l),
(60,600,l),
(60,540,l),
(-10,540,l),
(-10,495,l),
(60,495,l),
(60,0,l),
(190,0,l),
(190,332,l),
(215,360,o),
(249,380,o),
(280,380,cs),
(325,380,o),
(360,349,o),
(360,250,cs),
(360,55,ls),
(360,-56,o),
(333,-104,o),
(277,-115,c),
(277,-140,l)
);
}
);
width = 546;
}
);
unicode = 1106;
},
{
glyphname = "yat-cy";
kernLeft = n;
kernRight = "softsign-cy";
layers = (
{
background = {
shapes = (
{
closed = 1;
nodes = (
(174,430,l),
(264,430,l),
(429,430,l),
(429,470,l),
(74,470,ls),
(14,470,o),
(-1,430,o),
(-1,390,cs),
(-1,330,l),
(19,330,l),
(19,395,o),
(64,430,o),
(124,430,cs)
);
}
);
};
layerId = UUID0;
shapes = (
{
closed = 1;
nodes = (
(339,0,ls),
(454,0,o),
(544,31,o),
(544,140,cs),
(544,249,o),
(454,280,o),
(339,280,cs),
(264,280,l),
(264,540,l),
(264,640,o),
(244,660,o),
(174,660,cs),
(89,660,l),
(89,640,l),
(104,640,ls),
(164,640,o),
(174,600,o),
(174,540,cs),
(174,0,l)
);
},
{
closed = 1;
nodes = (
(309,35,o),
(279,40,o),
(264,45,c),
(264,235,l),
(279,240,o),
(309,245,o),
(329,245,cs),
(405,245,o),
(449,216,o),
(449,140,cs),
(449,64,o),
(405,35,o),
(329,35,cs)
);
},
{
closed = 1;
nodes = (
(49,330,l),
(49,395,o),
(94,430,o),
(154,430,c),
(439,430,l),
(439,470,l),
(104,470,ls),
(44,470,o),
(29,430,o),
(29,390,cs),
(29,330,l)
);
}
);
width = 569;
},
{
background = {
shapes = (
{
closed = 1;
nodes = (
(157,425,l),
(287,425,l),
(438,425,l),
(438,470,l),
(77,470,ls),
(17,470,o),
(2,430,o),
(2,390,cs),
(2,320,l),
(32,320,l),
(32,396,o),
(67,425,o),
(127,425,cs)
);
}
);
};
layerId = "C3EC177B-A859-46F4-B872-3D98CC06F87A";
shapes = (
{
closed = 1;
nodes = (
(361,0,ls),
(486,0,o),
(566,49,o),
(566,140,cs),
(566,231,o),
(486,280,o),
(361,280,cs),
(286,280,l),
(286,530,ls),
(286,629,o),
(266,660,o),
(196,660,cs),
(76,660,l),
(76,630,l),
(86,630,ls),
(146,630,o),
(156,590,o),
(156,530,cs),
(156,0,l)
);
},
{
closed = 1;
nodes = (
(320,40,o),
(301,42,o),
(286,47,c),
(286,233,l),
(301,238,o),
(320,240,o),
(331,240,cs),
(386,240,o),
(431,216,o),
(431,140,cs),
(431,64,o),
(386,40,o),
(331,40,cs)
);
},
{
closed = 1;
nodes = (
(52,320,l),
(52,396,o),
(87,425,o),
(147,425,c),
(438,425,l),
(438,470,l),
(97,470,ls),
(37,470,o),
(22,430,o),
(22,390,cs),
(22,320,l)
);
}
);
width = 586;
}
);
metricLeft = "te-cy";
metricRight = "softsign-cy";
unicode = 1123;
},
{
glyphname = "yusbig-cy";
kernLeft = x;
kernRight = v;
layers = (
{
background = {
shapes = (
{
closed = 1;
nodes = (
(26,470,l),
(96,430,l),
(505,430,l),
(595,470,l)
);
}
);
};
layerId = UUID0;
shapes = (
{
closed = 1;
nodes = (
(109,-10,o),
(153,14,o),
(193,70,cs),
(299,215,l),
(299,0,l),
(389,0,l),
(389,215,l),
(493,70,ls),
(533,14,o),
(577,-10,o),
(628,-10,cs),
(648,-10,o),
(667,-5,o),
(679,0,c),
(678,19,l),
(634,26,o),
(586,60,o),
(552,110,cs),
(502,185,ls),
(467,238,o),
(441,255,o),
(417,255,cs),
(410,255,l),
(534,400,ls),
(557,428,o),
(588,445,o),
(628,445,c),
(629,470,l),
(59,470,l),
(58,445,l),
(98,445,o),
(130,428,o),
(154,400,cs),
(279,255,l),
(237,253,o),
(221,236,o),
(195,200,cs),
(124,100,ls),
(89,51,o),
(54,26,o),
(8,19,c),
(9,0,l),
(19,-5,o),
(38,-10,o),
(58,-10,cs)
);
},
{
closed = 1;
nodes = (
(195,430,l),
(498,430,l),
(345,251,l)
);
}
);
width = 687;
},
{
anchors = (
{
name = bottomright;
pos = (680,0);
}
);
background = {
shapes = (
{
closed = 1;
nodes = (
(99,425,l),
(568,425,l),
(648,470,l),
(9,470,l)
);
}
);
};
layerId = "C3EC177B-A859-46F4-B872-3D98CC06F87A";
shapes = (
{
closed = 1;
nodes = (
(126,-10,o),
(172,12,o),
(219,80,cs),
(306,203,l),
(306,0,l),
(436,0,l),
(436,203,l),
(521,80,ls),
(568,12,o),
(614,-10,o),
(670,-10,cs),
(695,-10,o),
(728,-5,o),
(740,0,c),
(739,24,l),
(711,31,o),
(680,53,o),
(647,100,cs),
(582,193,l),
(548,235,o),
(500,260,o),
(463,260,cs),
(450,260,l),
(580,394,ls),
(614,422,o),
(640,444,o),
(680,444,c),
(681,470,l),
(51,470,l),
(50,444,l),
(90,444,o),
(118,424,o),
(150,394,cs),
(275,260,l),
(227,259,o),
(188,233,o),
(157,187,cs),
(95,100,ls),
(61,53,o),
(29,31,o),
(1,24,c),
(2,0,l),
(12,-5,o),
(45,-10,o),
(70,-10,cs)
);
},
{
closed = 1;
nodes = (
(191,425,l),
(542,425,l),
(362,236,l)
);
}
);
width = 741;
}
);
metricLeft = "zhe-cy";
metricRight = "zhe-cy";
unicode = 1131;
},
{
glyphname = "izhitsa-cy";
kernLeft = v;
kernRight = v;
layers = (
{
background = {
shapes = (
{
closed = 1;
nodes = (
(430,355,l),
(463,429,o),
(485,455,o),
(533,458,c),
(533,478,l),
(524,479,o),
(509,480,o),
(499,480,cs),
(457,480,o),
(424,459,o),
(380,355,c)
);
}
);
};
layerId = UUID0;
shapes = (
{
closed = 1;
nodes = (
(274,-9,l),
(413,342,ls),
(443,418,o),
(464,445,o),
(511,450,c),
(510,470,l),
(501,471,o),
(486,471,o),
(476,471,cs),
(434,471,o),
(405,445,o),
(363,340,cs),
(266,99,l),
(306,98,l),
(199,355,ls),
(154,459,o),
(90,480,o),
(29,480,cs),
(20,480,o),
(0,478,o),
(-5,478,c),
(-5,458,l),
(43,455,o),
(67,429,o),
(99,355,cs),
(254,-10,l)
);
}
);
width = 541;
},
{
background = {
shapes = (
{
closed = 1;
nodes = (
(472,480,o),
(434,459,o),
(390,355,cs),
(305,163,l),
(217,355,ls),
(169,459,o),
(105,480,o),
(25,480,cs),
(16,480,o),
(-7,478,o),
(-12,478,c),
(-12,458,l),
(21,455,o),
(42,428,o),
(77,355,cs),
(246,-10,l),
(282,-10,l),
(444,355,ls),
(476,430,o),
(499,455,o),
(547,458,c),
(547,478,l),
(536,479,o),
(527,480,o),
(514,480,cs)
);
}
);
};
layerId = "C3EC177B-A859-46F4-B872-3D98CC06F87A";
shapes = (
{
closed = 1;
nodes = (
(282,-9,l),
(424,342,ls),
(454,417,o),
(475,444,o),
(523,450,c),
(522,470,l),
(511,470,o),
(502,471,o),
(489,470,cs),
(447,467,o),
(413,445,o),
(370,339,cs),
(282,123,l),
(324,122,l),
(217,355,ls),
(169,459,o),
(105,480,o),
(25,480,cs),
(16,480,o),
(-7,478,o),
(-12,478,c),
(-12,458,l),
(21,455,o),
(42,428,o),
(77,355,cs),
(246,-10,l)
);
}
);
width = 553;
}
);
unicode = 1141;
},
{
glyphname = "zhedescender-cy";
kernLeft = x;
kernRight = x;
layers = (
{
layerId = UUID0;
shapes = (
{
closed = 1;
nodes = (
(699,-155,l),
(699,5,ls),
(699,25,o),
(684,40,o),
(664,40,cs),
(631,40,o),
(610,45,o),
(584,73,c),
(584,-3,l),
(628,-16,o),
(650,-63,o),
(659,-155,c)
);
},
{
ref = "zhe-cy";
}
);
width = 699;
},
{
layerId = "C3EC177B-A859-46F4-B872-3D98CC06F87A";
shapes = (
{
closed = 1;
nodes = (
(753,-160,l),
(753,10,ls),
(753,30,o),
(738,45,o),
(718,45,cs),
(701,45,o),
(685,51,o),
(660,81,c),
(618,45,l),
(621,-3,l),
(671,-19,o),
(698,-54,o),
(708,-160,c)
);
},
{
ref = "zhe-cy";
}
);
width = 753;
}
);
metricLeft = "zhe-cy";
metricRight = "kadescender-cy";
unicode = 1175;
},
{
glyphname = "zedescender-cy";
kernLeft = "ze-cy";
kernRight = "ve-cy";
layers = (
{
layerId = UUID0;
shapes = (
{
closed = 1;
nodes = (
(270,-155,l),
(270,0,l),
(181,0,l),
(216,0,o),
(220,-44,o),
(230,-155,c)
);
},
{
ref = "ze-cy";
}
);
width = 455;
},
{
background = {
shapes = (
{
closed = 1;
nodes = (
(159,0,l),
(194,0,o),
(215,-29,o),
(221,-160,c),
(266,-160,l),
(266,10,l)
);
}
);
};
layerId = "C3EC177B-A859-46F4-B872-3D98CC06F87A";
shapes = (
{
closed = 1;
nodes = (
(266,-160,l),
(266,10,l),
(159,0,l),
(194,0,o),
(215,-29,o),
(221,-160,c)
);
},
{
ref = "ze-cy";
}
);
width = 460;
}
);
metricRight = "ze-cy";
unicode = 1177;
},
{
glyphname = "kadescender-cy";
kernLeft = n;
kernRight = k;
layers = (
{
layerId = UUID0;
shapes = (
{
closed = 1;
nodes = (
(512,-155,l),
(512,5,ls),
(512,25,o),
(497,40,o),
(477,40,cs),
(444,40,o),
(423,45,o),
(397,73,c),
(397,-4,l),
(441,-17,o),
(463,-63,o),
(472,-155,c)
);
},
{
ref = "ka-cy";
}
);
width = 512;
},
{
layerId = "C3EC177B-A859-46F4-B872-3D98CC06F87A";
shapes = (
{
closed = 1;
nodes = (
(538,-160,l),
(538,10,ls),
(538,30,o),
(523,45,o),
(503,45,cs),
(486,45,o),
(470,51,o),
(445,81,c),
(403,45,l),
(404,-4,l),
(454,-14,o),
(483,-54,o),
(493,-160,c)
);
},
{
ref = "ka-cy";
}
);
width = 538;
}
);
unicode = 1179;
},
{
glyphname = "kaverticalstroke-cy";
kernLeft = n;
kernRight = k;
layers = (
{
background = {
shapes = (
{
closed = 1;
nodes = (
(140,243,l),
(140,203,l),
(290,203,l),
(290,243,l)
);
}
);
};
layerId = UUID0;
shapes = (
{
closed = 1;
nodes = (
(519,-10,o),
(538,-5,o),
(549,0,c),
(549,19,l),
(504,26,o),
(469,55,o),
(434,100,cs),
(319,245,l),
(429,400,ls),
(454,435,o),
(488,445,o),
(519,445,c),
(519,470,l),
(494,470,ls),
(429,470,o),
(393,445,o),
(364,405,cs),
(233,222,l),
(354,70,ls),
(399,14,o),
(448,-10,o),
(499,-10,cs)
);
},
{
closed = 1;
nodes = (
(179,0,l),
(179,350,ls),
(179,450,o),
(159,470,o),
(89,470,cs),
(-1,470,l),
(-1,450,l),
(19,450,ls),
(79,450,o),
(89,410,o),
(89,350,cs),
(89,0,l)
);
},
{
closed = 1;
nodes = (
(290,203,l),
(290,243,l),
(140,243,l),
(140,203,l)
);
},
{
closed = 1;
nodes = (
(253,104,l),
(253,339,l),
(213,339,l),
(213,104,l)
);
}
);
width = 557;
},
{
background = {
shapes = (
{
closed = 1;
nodes = (
(233,222,l),
(354,70,ls),
(399,14,o),
(448,-10,o),
(499,-10,cs),
(519,-10,o),
(538,-5,o),
(549,0,c),
(549,19,l),
(504,26,o),
(469,55,o),
(434,100,cs),
(319,245,l),
(429,400,ls),
(454,435,o),
(488,445,o),
(519,445,c),
(519,470,l),
(494,470,ls),
(429,470,o),
(393,445,o),
(364,405,cs)
);
},
{
closed = 1;
nodes = (
(179,350,ls),
(179,450,o),
(159,470,o),
(89,470,cs),
(-1,470,l),
(-1,450,l),
(19,450,ls),
(79,450,o),
(89,410,o),
(89,350,cs),
(89,0,l),
(179,0,l)
);
},
{
closed = 1;
nodes = (
(140,243,l),
(140,203,l),
(290,203,l),
(290,243,l)
);
},
{
closed = 1;
nodes = (
(213,339,l),
(213,104,l),
(253,104,l),
(253,339,l)
);
}
);
};
layerId = "C3EC177B-A859-46F4-B872-3D98CC06F87A";
shapes = (
{
closed = 1;
nodes = (
(559,-10,o),
(592,-5,o),
(603,0,c),
(603,24,l),
(575,31,o),
(545,53,o),
(510,100,cs),
(377,276,l),
(474,394,ls),
(503,429,o),
(534,444,o),
(574,444,c),
(574,470,l),
(554,470,ls),
(483,470,o),
(450,443,o),
(410,393,cs),
(270,221,l),
(385,70,l),
(429,10,o),
(478,-10,o),
(534,-10,cs)
);
},
{
closed = 1;
nodes = (
(209,0,l),
(209,340,ls),
(209,439,o),
(189,470,o),
(119,470,cs),
(-1,470,l),
(-1,440,l),
(9,440,ls),
(69,440,o),
(79,400,o),
(79,340,cs),
(79,0,l)
);
},
{
closed = 1;
nodes = (
(329,200,l),
(329,245,l),
(160,245,l),
(160,200,l)
);
},
{
closed = 1;
nodes = (
(292,96,l),
(292,355,l),
(237,355,l),
(237,96,l)
);
}
);
width = 604;
}
);
metricRight = "ka-cy";
unicode = 1181;
},
{
glyphname = "kabashkir-cy";
kernLeft = n;
kernRight = "te-cy";
layers = (
{
layerId = UUID0;
shapes = (
{
closed = 1;
nodes = (
(552,-10,o),
(571,-5,o),
(582,0,c),
(582,19,l),
(537,26,o),
(502,55,o),
(467,100,cs),
(352,245,l),
(462,400,ls),
(487,435,o),
(521,445,o),
(552,445,c),
(552,470,l),
(527,470,ls),
(462,470,o),
(426,445,o),
(397,405,cs),
(272,230,l),
(272,470,l),
(104,470,ls),
(44,470,o),
(29,430,o),
(29,390,cs),
(29,330,l),
(49,330,l),
(49,395,o),
(94,430,o),
(154,430,cs),
(182,430,l),
(182,0,l),
(272,0,l),
(272,215,l),
(387,70,ls),
(432,14,o),
(481,-10,o),
(532,-10,cs)
);
}
);
width = 590;
},
{
layerId = "C3EC177B-A859-46F4-B872-3D98CC06F87A";
shapes = (
{
closed = 1;
nodes = (
(569,-10,o),
(602,-5,o),
(613,0,c),
(613,24,l),
(585,31,o),
(555,53,o),
(520,100,cs),
(387,276,l),
(484,394,ls),
(513,429,o),
(544,444,o),
(584,444,c),
(584,470,l),
(564,470,ls),
(493,470,o),
(461,442,o),
(420,393,cs),
(299,245,l),
(299,470,l),
(97,470,ls),
(37,470,o),
(22,430,o),
(22,390,cs),
(22,320,l),
(52,320,l),
(52,396,o),
(87,425,o),
(147,425,cs),
(169,425,l),
(169,0,l),
(299,0,l),
(299,196,l),
(395,70,ls),
(439,10,o),
(488,-10,o),
(544,-10,cs)
);
}
);
width = 614;
}
);
metricLeft = "te-cy";
metricRight = "ka-cy";
unicode = 1185;
},
{
glyphname = "endescender-cy";
kernLeft = n;
kernRight = "tse-cy";
layers = (
{
layerId = UUID0;
shapes = (
{
closed = 1;
nodes = (
(541,-155,l),
(541,5,ls),
(541,25,o),
(526,40,o),
(506,40,cs),
(466,40,l),
(466,470,l),
(376,470,l),
(376,255,l),
(176,255,l),
(176,350,ls),
(176,450,o),
(156,470,o),
(86,470,cs),
(1,470,l),
(1,450,l),
(16,450,ls),
(76,450,o),
(86,410,o),
(86,350,cs),
(86,0,l),
(176,0,l),
(176,215,l),
(376,215,l),
(376,0,l),
(396,0,ls),
(461,0,o),
(490,-44,o),
(501,-155,c)
);
}
);
width = 565;
},
{
layerId = "C3EC177B-A859-46F4-B872-3D98CC06F87A";
shapes = (
{
closed = 1;
nodes = (
(564,-160,l),
(564,10,ls),
(564,30,o),
(549,45,o),
(529,45,cs),
(499,45,l),
(499,470,l),
(369,470,l),
(369,260,l),
(209,260,l),
(209,340,ls),
(209,439,o),
(189,470,o),
(119,470,cs),
(-1,470,l),
(-1,440,l),
(9,440,ls),
(69,440,o),
(79,400,o),
(79,340,cs),
(79,0,l),
(209,0,l),
(209,215,l),
(369,215,l),
(369,0,l),
(407,0,ls),
(471,0,o),
(508,-29,o),
(519,-160,c)
);
}
);
width = 572;
}
);
metricLeft = "en-cy";
metricRight = "tse-cy";
unicode = 1187;
},
{
glyphname = "enghe-cy";
kernLeft = n;
kernRight = "ge-cy";
layers = (
{
layerId = UUID0;
shapes = (
{
closed = 1;
nodes = (
(701,330,l),
(701,390,ls),
(701,430,o),
(686,470,o),
(626,470,cs),
(296,470,l),
(296,450,l),
(306,450,ls),
(366,450,o),
(376,410,o),
(376,350,c),
(466,430,l),
(576,430,ls),
(636,430,o),
(681,395,o),
(681,330,c)
);
},
{
ref = "en-cy";
}
);
width = 729;
},
{
layerId = "C3EC177B-A859-46F4-B872-3D98CC06F87A";
shapes = (
{
closed = 1;
nodes = (
(714,320,l),
(714,390,ls),
(714,430,o),
(699,470,o),
(639,470,cs),
(294,470,l),
(294,440,l),
(299,440,ls),
(359,440,o),
(369,400,o),
(369,340,c),
(499,425,l),
(589,425,ls),
(649,425,o),
(684,396,o),
(684,320,c)
);
},
{
ref = "en-cy";
}
);
width = 735;
}
);
metricRight = "ge-cy";
unicode = 1189;
},
{
glyphname = "esdescender-cy";
kernLeft = c;
kernRight = c;
layers = (
{
layerId = UUID0;
shapes = (
{
closed = 1;
nodes = (
(310,-155,l),
(310,0,l),
(221,0,l),
(256,0,o),
(260,-44,o),
(270,-155,c)
);
},
{
ref = "es-cy";
}
);
width = 483;
},
{
layerId = "C3EC177B-A859-46F4-B872-3D98CC06F87A";
shapes = (
{
closed = 1;
nodes = (
(313,-160,l),
(313,10,l),
(206,0,l),
(241,0,o),
(262,-29,o),
(268,-160,c)
);
},
{
ref = "es-cy";
}
);
width = 496;
}
);
unicode = 1195;
},
{
glyphname = "ustrait-cy";
kernLeft = v;
kernRight = b;
layers = (
{
layerId = UUID0;
shapes = (
{
closed = 1;
nodes = (
(313,-190,l),
(313,18,l),
(479,470,l),
(429,470,l),
(289,77,l),
(199,355,ls),
(154,459,o),
(90,480,o),
(29,480,cs),
(20,480,o),
(0,478,o),
(-5,478,c),
(-5,458,l),
(43,455,o),
(67,429,o),
(99,355,cs),
(223,0,l),
(223,-190,l)
);
}
);
width = 497;
},
{
anchors = (
{
name = center;
pos = (268,0);
}
);
background = {
shapes = (
{
closed = 1;
nodes = (
(312,148,l),
(217,355,ls),
(169,459,o),
(105,480,o),
(25,480,cs),
(16,480,o),
(-7,478,o),
(-12,478,c),
(-12,458,l),
(21,455,o),
(43,429,o),
(77,355,cs),
(200,89,l),
(200,-190,l),
(330,-190,l),
(330,114,l)
);
},
{
closed = 1;
nodes = (
(324,83,l),
(495,470,l),
(441,470,l),
(299,148,l)
);
}
);
};
layerId = "C3EC177B-A859-46F4-B872-3D98CC06F87A";
shapes = (
{
closed = 1;
nodes = (
(330,-190,l),
(330,26,l),
(312,60,l),
(217,355,ls),
(169,459,o),
(105,480,o),
(25,480,cs),
(16,480,o),
(-7,478,o),
(-12,478,c),
(-12,458,l),
(21,455,o),
(43,429,o),
(77,355,cs),
(200,1,l),
(200,-190,l)
);
},
{
closed = 1;
nodes = (
(495,470,l),
(441,470,l),
(299,47,l),
(324,-18,l)
);
}
);
width = 500;
}
);
metricRight = v;
unicode = 1199;
},
{
glyphname = "chekhakassian-cy";
kernLeft = "che-cy";
kernRight = u;
layers = (
{
layerId = UUID0;
shapes = (
{
closed = 1;
nodes = (
(336,-155,l),
(347,-44,o),
(376,0,o),
(441,0,c),
(461,0,l),
(461,40,l),
(331,40,ls),
(311,40,o),
(296,25,o),
(296,5,cs),
(296,-155,l)
);
},
{
ref = "che-cy";
}
);
width = 511;
},
{
layerId = "C3EC177B-A859-46F4-B872-3D98CC06F87A";
shapes = (
{
closed = 1;
nodes = (
(344,-160,l),
(355,-29,o),
(392,0,o),
(456,0,c),
(494,0,l),
(494,45,l),
(334,45,ls),
(314,45,o),
(299,30,o),
(299,10,cs),
(299,-160,l)
);
},
{
ref = "che-cy";
}
);
width = 554;
}
);
unicode = 1228;
},
{
glyphname = "schwa-cy";
kernLeft = o;
kernRight = o;
layers = (
{
background = {
shapes = (
{
closed = 1;
nodes = (
(43,210,l),
(43,69,o),
(107,-10,o),
(243,-10,cs),
(368,-10,o),
(443,100,o),
(443,235,cs),
(443,370,o),
(373,480,o),
(233,480,cs),
(157,480,o),
(98,451,o),
(53,375,c),
(73,360,l),
(108,411,o),
(148,440,o),
(213,440,cs),
(298,440,o),
(348,360,o),
(348,250,c),
(45,250,l)
);
},
{
closed = 1;
nodes = (
(348,210,l),
(348,106,o),
(303,30,o),
(243,30,cs),
(172,30,o),
(138,94,o),
(138,210,c)
);
}
);
};
layerId = UUID0;
shapes = (
{
angle = 180;
pos = (488,470);
ref = e;
}
);
width = 488;
},
{
background = {
shapes = (
{
closed = 1;
nodes = (
(292,435,o),
(337,385,o),
(337,253,c),
(36,253,l),
(34,233,ls),
(33,221,o),
(32,205,o),
(32,190,cs),
(32,70,o),
(128,-10,o),
(252,-10,cs),
(376,-10,o),
(472,75,o),
(472,235,cs),
(472,375,o),
(383,480,o),
(242,480,cs),
(133,480,o),
(82,420,o),
(53,375,c),
(84,352,l),
(119,399,o),
(158,435,o),
(227,435,cs)
);
},
{
closed = 1;
nodes = (
(337,208,l),
(337,76,o),
(297,35,o),
(252,35,cs),
(202,35,o),
(167,76,o),
(167,208,c)
);
}
);
};
layerId = "C3EC177B-A859-46F4-B872-3D98CC06F87A";
shapes = (
{
angle = 180;
pos = (509,470);
ref = e;
}
);
width = 509;
}
);
unicode = 1241;
},
{
glyphname = zero;
layers = (
{
layerId = UUID0;
shapes = (
{
closed = 1;
nodes = (
(467,-20,o),
(532,119,o),
(532,330,cs),
(532,541,o),
(467,680,o),
(292,680,cs),
(117,680,o),
(52,541,o),
(52,330,cs),
(52,119,o),
(117,-20,o),
(292,-20,cs)
);
},
{
closed = 1;
nodes = (
(183,20,o),
(152,120,o),
(152,330,cs),
(152,540,o),
(183,640,o),
(292,640,cs),
(401,640,o),
(432,540,o),
(432,330,cs),
(432,120,o),
(401,20,o),
(292,20,cs)
);
}
);
width = 584;
},
{
layerId = "C3EC177B-A859-46F4-B872-3D98CC06F87A";
shapes = (
{
closed = 1;
nodes = (
(494,-20,o),
(563,122,o),
(563,330,cs),
(563,538,o),
(494,680,o),
(303,680,cs),
(112,680,o),
(43,538,o),
(43,330,cs),
(43,122,o),
(112,-20,o),
(303,-20,cs)
);
},
{
closed = 1;
nodes = (
(219,25,o),
(183,119,o),
(183,330,cs),
(183,541,o),
(219,635,o),
(303,635,cs),
(387,635,o),
(423,541,o),
(423,330,cs),
(423,119,o),
(387,25,o),
(303,25,cs)
);
}
);
width = 606;
}
);
unicode = 48;
},
{
glyphname = one;
layers = (
{
layerId = UUID0;
shapes = (
{
closed = 1;
nodes = (
(219,0,l),
(219,660,l),
(169,660,l),
(14,520,l),
(32,497,l),
(129,560,l),
(129,0,l)
);
}
);
width = 305;
},
{
layerId = "C3EC177B-A859-46F4-B872-3D98CC06F87A";
shapes = (
{
closed = 1;
nodes = (
(249,0,l),
(249,660,l),
(162,660,l),
(8,517,l),
(32,486,l),
(119,542,l),
(119,0,l)
);
}
);
width = 323;
}
);
unicode = 49;
},
{
glyphname = two;
layers = (
{
layerId = UUID0;
shapes = (
{
closed = 1;
nodes = (
(396,0,ls),
(465,0,o),
(481,40,o),
(481,80,cs),
(481,145,l),
(461,145,l),
(461,74,o),
(416,40,o),
(336,40,cs),
(111,40,l),
(296,217,o),
(466,319,o),
(466,490,cs),
(466,650,o),
(346,680,o),
(266,680,cs),
(186,680,o),
(111,644,o),
(75,600,cs),
(51,569,o),
(51,521,o),
(51,470,c),
(71,470,l),
(91,581,o),
(156,640,o),
(236,640,cs),
(305,640,o),
(366,590,o),
(366,490,cs),
(366,340,o),
(251,254,o),
(41,50,c),
(41,0,l)
);
}
);
width = 530;
},
{
layerId = "C3EC177B-A859-46F4-B872-3D98CC06F87A";
shapes = (
{
closed = 1;
nodes = (
(405,0,ls),
(474,0,o),
(490,40,o),
(490,80,cs),
(490,155,l),
(460,155,l),
(460,84,o),
(415,45,o),
(335,45,cs),
(128,45,l),
(192,109,o),
(490,300,o),
(490,487,cs),
(490,651,o),
(352,680,o),
(260,680,cs),
(176,680,o),
(101,644,o),
(65,600,cs),
(41,569,o),
(41,511,o),
(41,460,c),
(76,460,l),
(96,581,o),
(156,635,o),
(240,635,cs),
(296,635,o),
(350,591,o),
(350,487,cs),
(350,335,o),
(126,150,o),
(41,65,c),
(41,0,l)
);
}
);
width = 539;
}
);
unicode = 50;
},
{
glyphname = three;
layers = (
{
layerId = UUID0;
shapes = (
{
closed = 1;
nodes = (
(341,-20,o),
(491,10,o),
(491,185,cs),
(491,349,o),
(340,380,o),
(281,380,cs),
(269,380,o),
(226,379,o),
(191,370,c),
(459,620,l),
(459,660,l),
(141,660,ls),
(72,660,o),
(56,620,o),
(56,580,cs),
(56,515,l),
(76,515,l),
(76,586,o),
(121,620,o),
(201,620,cs),
(386,620,l),
(115,367,l),
(141,325,l),
(186,336,o),
(201,340,o),
(261,340,cs),
(321,340,o),
(391,290,o),
(391,185,cs),
(391,70,o),
(321,20,o),
(241,20,cs),
(165,20,o),
(107,49,o),
(56,105,c),
(40,87,l),
(96,22,o),
(166,-20,o),
(266,-20,cs)
);
}
);
width = 530;
},
{
layerId = "C3EC177B-A859-46F4-B872-3D98CC06F87A";
shapes = (
{
closed = 1;
nodes = (
(353,-20,o),
(512,17,o),
(512,185,cs),
(512,333,o),
(383,385,o),
(292,385,cs),
(268,385,o),
(229,382,o),
(228,381,cs),
(477,615,l),
(477,660,l),
(139,660,ls),
(70,660,o),
(54,620,o),
(54,580,cs),
(54,505,l),
(84,505,l),
(84,576,o),
(129,615,o),
(209,615,cs),
(388,615,l),
(115,359,l),
(139,321,l),
(169,330,ls),
(188,335,o),
(213,340,o),
(244,340,cs),
(314,340,o),
(372,293,o),
(372,185,cs),
(372,72,o),
(310,25,o),
(233,25,cs),
(176,25,o),
(111,54,o),
(55,117,c),
(27,88,l),
(83,23,o),
(148,-20,o),
(277,-20,cs)
);
}
);
width = 543;
}
);
unicode = 51;
},
{
glyphname = four;
layers = (
{
layerId = UUID0;
shapes = (
{
closed = 1;
nodes = (
(428,0,l),
(428,170,l),
(518,170,l),
(518,210,l),
(428,210,l),
(428,660,l),
(348,660,l),
(18,210,l),
(18,170,l),
(338,170,l),
(338,0,l)
);
},
{
closed = 1;
nodes = (
(338,564,l),
(338,210,l),
(78,210,l)
);
}
);
width = 546;
},
{
layerId = "C3EC177B-A859-46F4-B872-3D98CC06F87A";
shapes = (
{
closed = 1;
nodes = (
(459,0,l),
(459,170,l),
(549,170,l),
(549,215,l),
(459,215,l),
(459,660,l),
(355,660,l),
(9,210,l),
(9,170,l),
(329,170,l),
(329,0,l)
);
},
{
closed = 1;
nodes = (
(329,543,l),
(329,215,l),
(78,215,l)
);
}
);
width = 572;
}
);
unicode = 52;
},
{
glyphname = five;
layers = (
{
layerId = UUID0;
shapes = (
{
closed = 1;
nodes = (
(341,-20,o),
(492,14,o),
(492,185,cs),
(492,345,o),
(352,380,o),
(252,380,cs),
(227,380,o),
(201,378,o),
(182,377,cs),
(150,375,l),
(159,620,l),
(452,620,l),
(452,660,l),
(77,660,l),
(67,370,l),
(107,330,l),
(147,335,ls),
(171,338,o),
(201,340,o),
(232,340,cs),
(332,340,o),
(392,290,o),
(392,185,cs),
(392,70,o),
(322,20,o),
(242,20,cs),
(169,20,o),
(112,46,o),
(61,102,c),
(42,85,l),
(97,20,o),
(157,-20,o),
(257,-20,cs)
);
}
);
width = 530;
},
{
layerId = "C3EC177B-A859-46F4-B872-3D98CC06F87A";
shapes = (
{
closed = 1;
nodes = (
(360,-20,o),
(520,22,o),
(520,190,cs),
(520,348,o),
(367,390,o),
(262,390,cs),
(243,390,o),
(222,388,o),
(205,387,cs),
(175,385,l),
(184,616,l),
(457,616,l),
(457,660,l),
(68,660,l),
(57,360,l),
(97,321,l),
(111,325,o),
(125,329,o),
(139,332,c),
(163,339,o),
(194,344,o),
(222,344,cs),
(322,344,o),
(380,294,o),
(380,190,cs),
(380,72,o),
(319,25,o),
(242,25,cs),
(185,25,o),
(117,51,o),
(66,114,c),
(37,88,l),
(93,21,o),
(155,-20,o),
(265,-20,cs)
);
}
);
width = 546;
}
);
unicode = 53;
},
{
glyphname = six;
layers = (
{
layerId = UUID0;
shapes = (
{
closed = 1;
nodes = (
(427,-20,o),
(497,90,o),
(497,205,cs),
(497,341,o),
(437,430,o),
(297,430,cs),
(226,430,o),
(182,410,o),
(147,385,c),
(147,540,o),
(202,640,o),
(322,640,cs),
(373,640,o),
(421,635,o),
(452,630,c),
(457,650,l),
(417,665,o),
(367,680,o),
(302,680,cs),
(131,680,o),
(52,562,o),
(52,330,cs),
(52,99,o),
(122,-20,o),
(282,-20,cs)
);
},
{
closed = 1;
nodes = (
(202,20,o),
(147,110,o),
(147,340,c),
(182,371,o),
(216,390,o),
(267,390,cs),
(362,390,o),
(402,320,o),
(402,205,cs),
(402,110,o),
(358,20,o),
(282,20,cs)
);
}
);
width = 537;
},
{
layerId = "C3EC177B-A859-46F4-B872-3D98CC06F87A";
shapes = (
{
closed = 1;
nodes = (
(449,-20,o),
(529,88,o),
(529,205,cs),
(529,341,o),
(475,433,o),
(319,433,cs),
(276,433,o),
(241,421,o),
(217,409,cs),
(203,402,o),
(190,394,o),
(179,385,c),
(179,556,o),
(244,635,o),
(344,635,cs),
(372,635,o),
(405,630,o),
(432,626,cs),
(478,618,l),
(484,646,l),
(471,652,o),
(455,658,o),
(438,663,cs),
(409,671,o),
(369,680,o),
(324,680,cs),
(139,680,o),
(44,571,o),
(44,330,cs),
(44,98,o),
(127,-20,o),
(294,-20,cs)
);
},
{
closed = 1;
nodes = (
(224,25,o),
(179,115,o),
(179,337,cs),
(179,340,o),
(228,388,o),
(289,388,cs),
(365,388,o),
(394,324,o),
(394,205,cs),
(394,107,o),
(359,25,o),
(294,25,cs)
);
}
);
width = 560;
}
);
unicode = 54;
},
{
glyphname = seven;
layers = (
{
layerId = UUID0;
shapes = (
{
closed = 1;
nodes = (
(211,0,l),
(461,620,l),
(461,660,l),
(111,660,ls),
(42,660,o),
(26,620,o),
(26,580,cs),
(26,515,l),
(46,515,l),
(46,586,o),
(91,620,o),
(171,620,cs),
(371,620,l),
(121,0,l)
);
}
);
width = 474;
},
{
layerId = "C3EC177B-A859-46F4-B872-3D98CC06F87A";
shapes = (
{
closed = 1;
nodes = (
(217,0,l),
(467,615,l),
(467,660,l),
(106,660,ls),
(37,660,o),
(21,620,o),
(21,580,cs),
(21,505,l),
(51,505,l),
(51,576,o),
(96,615,o),
(176,615,cs),
(346,615,l),
(96,0,l)
);
}
);
width = 473;
}
);
unicode = 55;
},
{
glyphname = eight;
layers = (
{
layerId = UUID0;
shapes = (
{
closed = 1;
nodes = (
(401,-20,o),
(507,30,o),
(507,160,cs),
(507,262,o),
(432,310,o),
(357,355,c),
(421,387,o),
(482,440,o),
(482,520,cs),
(482,640,o),
(387,680,o),
(277,680,cs),
(167,680,o),
(72,640,o),
(72,510,cs),
(72,421,o),
(137,376,o),
(207,335,c),
(126,300,o),
(47,250,o),
(47,150,cs),
(47,30,o),
(153,-20,o),
(277,-20,cs)
);
},
{
closed = 1;
nodes = (
(207,20,o),
(142,59,o),
(142,150,cs),
(142,246,o),
(193,286,o),
(252,315,c),
(337,270,o),
(412,226,o),
(412,140,cs),
(412,60,o),
(346,20,o),
(277,20,cs)
);
},
{
closed = 1;
nodes = (
(237,415,o),
(167,465,o),
(167,530,cs),
(167,615,o),
(226,640,o),
(277,640,cs),
(328,640,o),
(387,615,o),
(387,520,cs),
(387,445,o),
(352,409,o),
(312,380,c)
);
}
);
width = 554;
},
{
layerId = "C3EC177B-A859-46F4-B872-3D98CC06F87A";
shapes = (
{
closed = 1;
nodes = (
(428,-20,o),
(539,30,o),
(539,162,cs),
(539,261,o),
(462,313,o),
(379,358,c),
(454,390,o),
(514,441,o),
(514,518,cs),
(514,641,o),
(413,680,o),
(289,680,cs),
(166,680,o),
(64,640,o),
(64,508,cs),
(64,422,o),
(128,378,o),
(206,335,c),
(119,298,o),
(39,247,o),
(39,152,cs),
(39,29,o),
(153,-20,o),
(289,-20,cs)
);
},
{
closed = 1;
nodes = (
(221,25,o),
(174,64,o),
(174,152,cs),
(174,243,o),
(208,284,o),
(259,311,c),
(337,270,o),
(404,224,o),
(404,142,cs),
(404,65,o),
(357,25,o),
(289,25,cs)
);
},
{
closed = 1;
nodes = (
(258,416,o),
(199,466,o),
(199,528,cs),
(199,611,o),
(251,635,o),
(289,635,cs),
(327,635,o),
(379,610,o),
(379,518,cs),
(379,445,o),
(362,411,o),
(327,384,c)
);
}
);
width = 578;
}
);
unicode = 56;
},
{
glyphname = nine;
layers = (
{
layerId = UUID0;
shapes = (
{
closed = 1;
nodes = (
(405,-20,o),
(484,98,o),
(484,330,cs),
(484,559,o),
(414,680,o),
(254,680,cs),
(109,680,o),
(39,570,o),
(39,455,cs),
(39,319,o),
(99,230,o),
(239,230,cs),
(310,230,o),
(354,250,o),
(389,275,c),
(389,120,o),
(334,20,o),
(214,20,cs),
(163,20,o),
(115,25,o),
(84,30,c),
(79,10,l),
(119,-5,o),
(169,-20,o),
(234,-20,cs)
);
},
{
closed = 1;
nodes = (
(174,270,o),
(134,340,o),
(134,455,cs),
(134,550,o),
(178,640,o),
(254,640,cs),
(334,640,o),
(389,550,o),
(389,320,c),
(354,289,o),
(320,270,o),
(269,270,cs)
);
}
);
width = 536;
},
{
layerId = "C3EC177B-A859-46F4-B872-3D98CC06F87A";
shapes = (
{
closed = 1;
nodes = (
(421,-20,o),
(516,87,o),
(516,330,cs),
(516,562,o),
(433,680,o),
(266,680,cs),
(111,680,o),
(31,572,o),
(31,455,cs),
(31,319,o),
(85,227,o),
(241,227,cs),
(284,227,o),
(319,239,o),
(343,251,cs),
(357,258,o),
(370,266,o),
(381,275,c),
(381,104,o),
(316,25,o),
(216,25,cs),
(187,25,o),
(155,29,o),
(128,33,c),
(82,42,l),
(76,14,l),
(89,7,o),
(105,2,o),
(122,-3,cs),
(151,-12,o),
(189,-20,o),
(236,-20,cs)
);
},
{
closed = 1;
nodes = (
(195,272,o),
(166,336,o),
(166,455,cs),
(166,553,o),
(201,635,o),
(266,635,cs),
(336,635,o),
(381,545,o),
(381,323,cs),
(381,320,o),
(330,272,o),
(271,272,cs)
);
}
);
width = 560;
}
);
unicode = 57;
},
{
glyphname = fraction;
layers = (
{
layerId = UUID0;
shapes = (
{
closed = 1;
nodes = (
(15,0,l),
(470,660,l),
(405,660,l),
(-50,0,l)
);
}
);
width = 420;
},
{
layerId = "C3EC177B-A859-46F4-B872-3D98CC06F87A";
shapes = (
{
closed = 1;
nodes = (
(45,0,l),
(500,660,l),
(405,660,l),
(-50,0,l)
);
}
);
width = 450;
}
);
unicode = 8260;
},
